<?xml version="1.0" encoding="utf-8"?>
<!-- Generator: Adobe Illustrator 19.1.0, SVG Export Plug-In . SVG Version: 6.00 Build 0)  -->
<!DOCTYPE svg PUBLIC "-//W3C//DTD SVG 1.1//EN" "http://www.w3.org/Graphics/SVG/1.1/DTD/svg11.dtd">
<svg version="1.1" xmlns="http://www.w3.org/2000/svg" xmlns:xlink="http://www.w3.org/1999/xlink" x="0px" y="0px" width="309px"
	 height="196.005px" viewBox="0 0 309 196.005" enable-background="new 0 0 309 196.005" xml:space="preserve">
<g id="Colors">
</g>
<g id="Layer_1">
	<g>
		<rect opacity="0.5" fill="none" width="309" height="196.005"/>
		<path fill="#E58593" d="M234.243,48.239l-6.668,4.463c24.285,39.14,13.334,90.952-25.238,116.769
			c-39.408,26.377-92.927,15.776-119.304-23.632S67.257,52.911,106.665,26.534c35.47-23.741,82.362-17.511,110.615,12.704
			l6.07-5.239C192.493,0.768,141.078-6.126,102.216,19.886c-43.074,28.831-54.661,87.329-25.831,130.402
			s87.329,54.661,130.402,25.831C249.026,147.847,260.982,91.048,234.243,48.239z"/>
		<path fill="#1464F1" d="M219.282,41.472c2.376,2.726,4.623,5.611,6.687,8.694l6.648-4.45c-2.246-3.356-4.673-6.52-7.257-9.489
			L219.282,41.472z"/>
	</g>
</g>
<g id="Fonts" display="none">
</g>
<g id="Heights" display="none">
</g>
<g id="Widths" display="none">
</g>
</svg>
