<?xml version="1.0" encoding="utf-8"?>
<!-- Generator: Adobe Illustrator 19.1.0, SVG Export Plug-In . SVG Version: 6.00 Build 0)  -->
<!DOCTYPE svg PUBLIC "-//W3C//DTD SVG 1.1//EN" "http://www.w3.org/Graphics/SVG/1.1/DTD/svg11.dtd">
<svg version="1.1" xmlns="http://www.w3.org/2000/svg" xmlns:xlink="http://www.w3.org/1999/xlink" x="0px" y="0px"
	 width="309.048px" height="196.005px" viewBox="0 0 309.048 196.005" enable-background="new 0 0 309.048 196.005"
	 xml:space="preserve">
<g id="Colors">
</g>
<g id="Layer_1">
	<g>
		<rect opacity="0.5" fill="none" width="309" height="196.005"/>
		<g>
			<g>
				<path fill="#013270" d="M0.392,94.514h0.883c0.015,0.201,0.071,0.39,0.168,0.564c0.097,0.175,0.227,0.331,0.391,0.47
					c0.164,0.138,0.375,0.247,0.632,0.329C2.722,95.959,3.007,96,3.32,96c0.581,0,1.047-0.134,1.397-0.402
					c0.35-0.269,0.525-0.63,0.525-1.084c0-0.358-0.112-0.643-0.335-0.855c-0.224-0.212-0.574-0.382-1.051-0.509l-1.386-0.369
					c-0.246-0.066-0.473-0.154-0.682-0.263c-0.209-0.107-0.402-0.241-0.581-0.402c-0.179-0.16-0.319-0.359-0.419-0.598
					s-0.151-0.507-0.151-0.805c0-0.351,0.074-0.671,0.224-0.962c0.149-0.29,0.35-0.529,0.604-0.715
					c0.253-0.187,0.54-0.33,0.861-0.431c0.32-0.101,0.66-0.151,1.017-0.151c0.268,0,0.531,0.028,0.788,0.084
					s0.501,0.144,0.732,0.263s0.432,0.265,0.604,0.437c0.171,0.171,0.309,0.38,0.414,0.626c0.104,0.246,0.16,0.518,0.168,0.815
					H5.176c-0.037-0.417-0.214-0.76-0.531-1.028c-0.317-0.269-0.758-0.402-1.325-0.402c-0.537,0-0.971,0.125-1.302,0.375
					c-0.332,0.249-0.498,0.594-0.498,1.033c0,0.642,0.395,1.066,1.185,1.274L4.058,92.3c0.335,0.09,0.622,0.19,0.861,0.302
					c0.239,0.112,0.453,0.252,0.643,0.42c0.19,0.167,0.333,0.37,0.43,0.608c0.097,0.239,0.145,0.511,0.145,0.816
					c0,0.745-0.276,1.323-0.827,1.732c-0.552,0.41-1.252,0.615-2.102,0.615c-0.492,0-0.926-0.071-1.302-0.213
					c-0.376-0.141-0.669-0.327-0.877-0.559c-0.209-0.23-0.365-0.473-0.47-0.727C0.455,95.043,0.399,94.782,0.392,94.514z"/>
				<path fill="#013270" d="M12.442,90.5v6.126h-0.861v-0.838h-0.034c-0.119,0.275-0.332,0.501-0.637,0.676
					s-0.693,0.263-1.163,0.263c-0.648,0-1.172-0.183-1.571-0.548c-0.399-0.364-0.598-0.89-0.598-1.576V90.5H8.44v3.856
					c0,0.373,0.069,0.681,0.207,0.923s0.319,0.412,0.542,0.509s0.484,0.146,0.782,0.146c0.484,0,0.874-0.147,1.168-0.442
					c0.294-0.294,0.442-0.69,0.442-1.19V90.5H12.442z"/>
				<path fill="#013270" d="M13.985,92.211c0-0.589,0.212-1.038,0.637-1.348c0.425-0.309,0.95-0.464,1.576-0.464
					c0.693,0,1.222,0.174,1.587,0.52c0.365,0.347,0.548,0.777,0.548,1.292h-0.805c-0.008-0.135-0.035-0.261-0.084-0.381
					c-0.049-0.119-0.123-0.234-0.224-0.346c-0.101-0.112-0.242-0.203-0.425-0.274c-0.183-0.07-0.393-0.106-0.632-0.106
					c-0.395,0-0.716,0.092-0.961,0.274s-0.369,0.431-0.369,0.743c0,0.142,0.03,0.267,0.089,0.375
					c0.06,0.107,0.127,0.193,0.201,0.257c0.074,0.063,0.188,0.123,0.341,0.179c0.153,0.056,0.278,0.095,0.375,0.117
					c0.097,0.022,0.242,0.053,0.436,0.09c0.037,0.007,0.063,0.011,0.078,0.011c0.261,0.053,0.482,0.101,0.665,0.146
					c0.182,0.045,0.375,0.111,0.576,0.201s0.361,0.19,0.481,0.302c0.119,0.112,0.218,0.257,0.296,0.437
					c0.078,0.179,0.117,0.384,0.117,0.614c0,0.396-0.103,0.736-0.307,1.023c-0.205,0.286-0.485,0.501-0.838,0.643
					c-0.354,0.142-0.762,0.212-1.224,0.212c-0.678,0-1.222-0.156-1.632-0.47c-0.41-0.312-0.615-0.733-0.615-1.263h0.838
					c0.045,0.306,0.188,0.552,0.43,0.737c0.242,0.187,0.579,0.28,1.012,0.28c0.484,0,0.853-0.097,1.107-0.291
					c0.253-0.193,0.38-0.451,0.38-0.771c0-0.119-0.017-0.226-0.05-0.318s-0.091-0.173-0.173-0.24s-0.16-0.125-0.235-0.174
					c-0.075-0.048-0.185-0.093-0.33-0.134s-0.267-0.072-0.363-0.095c-0.097-0.022-0.239-0.053-0.425-0.09
					c-0.231-0.052-0.417-0.097-0.559-0.134s-0.304-0.086-0.486-0.146c-0.183-0.06-0.328-0.129-0.436-0.207
					c-0.108-0.078-0.212-0.173-0.313-0.285c-0.101-0.111-0.173-0.244-0.218-0.396S13.985,92.405,13.985,92.211z"/>
				<path fill="#013270" d="M22.682,96.727c-0.865,0-1.472-0.316-1.822-0.95h-0.022v2.974h-0.861V90.49h0.827v0.883h0.022
					c0.074-0.179,0.19-0.339,0.347-0.48s0.369-0.259,0.637-0.353c0.268-0.093,0.57-0.14,0.906-0.14c0.7,0,1.269,0.244,1.705,0.732
					c0.436,0.488,0.654,1.149,0.654,1.984v0.905c0,0.843-0.22,1.504-0.659,1.984C23.975,96.487,23.397,96.727,22.682,96.727z
					 M22.559,95.956c0.499,0,0.9-0.179,1.202-0.536s0.453-0.872,0.453-1.543v-0.648c0-0.655-0.149-1.164-0.447-1.525
					c-0.298-0.361-0.708-0.542-1.23-0.542c-0.522,0-0.935,0.184-1.241,0.553c-0.306,0.369-0.458,0.844-0.458,1.426v0.805
					c0,0.365,0.067,0.698,0.201,1c0.134,0.303,0.333,0.547,0.598,0.732C21.901,95.863,22.209,95.956,22.559,95.956z"/>
				<path fill="#013270" d="M28.886,96.727c-0.835,0-1.47-0.259-1.906-0.776c-0.436-0.519-0.654-1.206-0.654-2.062v-0.582
					c0-0.573,0.089-1.074,0.268-1.503s0.457-0.77,0.833-1.023c0.376-0.253,0.837-0.38,1.381-0.38c0.812,0,1.429,0.261,1.85,0.782
					c0.421,0.522,0.632,1.227,0.632,2.113v0.48h-4.103v0.168c0,0.373,0.058,0.706,0.173,1c0.115,0.295,0.303,0.537,0.564,0.728
					c0.261,0.189,0.577,0.284,0.95,0.284c0.425,0,0.751-0.093,0.978-0.279c0.227-0.186,0.375-0.413,0.442-0.682H31.2
					c-0.037,0.209-0.106,0.408-0.207,0.598c-0.101,0.19-0.239,0.373-0.414,0.548c-0.175,0.176-0.41,0.317-0.704,0.425
					C29.581,96.673,29.251,96.727,28.886,96.727z M27.187,93.039h3.231v-0.022c0-0.365-0.063-0.688-0.19-0.967
					c-0.127-0.28-0.313-0.498-0.559-0.654s-0.533-0.234-0.861-0.234c-0.499,0-0.894,0.171-1.185,0.514
					c-0.291,0.343-0.436,0.79-0.436,1.342V93.039z"/>
				<path fill="#013270" d="M32.799,96.626V90.5h0.861v0.827h0.022c0.126-0.261,0.346-0.48,0.659-0.659S35.031,90.4,35.47,90.4
					c0.633,0,1.161,0.19,1.582,0.57c0.421,0.38,0.632,0.905,0.632,1.576v4.08h-0.872v-3.756c0-1.118-0.514-1.677-1.543-1.677
					c-0.522,0-0.921,0.152-1.196,0.458s-0.414,0.738-0.414,1.297v3.678H32.799z"/>
				<path fill="#013270" d="M39.193,92.211c0-0.589,0.212-1.038,0.637-1.348c0.425-0.309,0.95-0.464,1.576-0.464
					c0.693,0,1.222,0.174,1.587,0.52c0.365,0.347,0.548,0.777,0.548,1.292h-0.805c-0.008-0.135-0.035-0.261-0.084-0.381
					c-0.049-0.119-0.123-0.234-0.224-0.346c-0.101-0.112-0.242-0.203-0.425-0.274c-0.183-0.07-0.393-0.106-0.632-0.106
					c-0.395,0-0.716,0.092-0.961,0.274s-0.369,0.431-0.369,0.743c0,0.142,0.03,0.267,0.089,0.375
					c0.06,0.107,0.127,0.193,0.201,0.257c0.074,0.063,0.188,0.123,0.341,0.179c0.153,0.056,0.278,0.095,0.375,0.117
					c0.097,0.022,0.242,0.053,0.436,0.09c0.037,0.007,0.063,0.011,0.078,0.011c0.261,0.053,0.482,0.101,0.665,0.146
					c0.182,0.045,0.375,0.111,0.576,0.201s0.361,0.19,0.481,0.302c0.119,0.112,0.218,0.257,0.296,0.437
					c0.078,0.179,0.117,0.384,0.117,0.614c0,0.396-0.103,0.736-0.307,1.023c-0.205,0.286-0.485,0.501-0.838,0.643
					c-0.354,0.142-0.762,0.212-1.224,0.212c-0.678,0-1.222-0.156-1.632-0.47c-0.41-0.312-0.615-0.733-0.615-1.263h0.838
					c0.045,0.306,0.188,0.552,0.43,0.737c0.242,0.187,0.579,0.28,1.012,0.28c0.484,0,0.853-0.097,1.107-0.291
					c0.253-0.193,0.38-0.451,0.38-0.771c0-0.119-0.017-0.226-0.05-0.318s-0.091-0.173-0.173-0.24s-0.16-0.125-0.235-0.174
					c-0.075-0.048-0.185-0.093-0.33-0.134s-0.267-0.072-0.363-0.095c-0.097-0.022-0.239-0.053-0.425-0.09
					c-0.231-0.052-0.417-0.097-0.559-0.134s-0.304-0.086-0.486-0.146c-0.183-0.06-0.328-0.129-0.436-0.207
					c-0.108-0.078-0.212-0.173-0.313-0.285c-0.101-0.111-0.173-0.244-0.218-0.396S39.193,92.405,39.193,92.211z"/>
				<path fill="#013270" d="M45.185,88.992c0-0.164,0.056-0.302,0.168-0.414c0.112-0.111,0.25-0.167,0.414-0.167
					c0.164,0,0.304,0.056,0.419,0.167c0.115,0.112,0.173,0.25,0.173,0.414c0,0.171-0.058,0.312-0.173,0.425
					c-0.116,0.111-0.255,0.168-0.419,0.168c-0.164,0-0.302-0.057-0.414-0.168C45.241,89.304,45.185,89.163,45.185,88.992z
					 M45.341,96.626V90.5h0.861v6.126H45.341z"/>
				<path fill="#013270" d="M50.495,90.4c0.85,0,1.492,0.259,1.928,0.777c0.436,0.518,0.654,1.22,0.654,2.107v0.547
					c0,0.888-0.218,1.592-0.654,2.113c-0.436,0.521-1.079,0.782-1.928,0.782S49,96.468,48.561,95.951
					c-0.44-0.519-0.66-1.225-0.66-2.119v-0.547c0-0.865,0.22-1.562,0.66-2.091C49,90.665,49.645,90.4,50.495,90.4z M50.495,91.161
					c-0.596,0-1.036,0.205-1.319,0.614c-0.283,0.41-0.425,0.946-0.425,1.61v0.357c0,0.671,0.14,1.207,0.419,1.609
					s0.721,0.604,1.325,0.604c0.596,0,1.032-0.201,1.308-0.604s0.414-0.938,0.414-1.609v-0.357c0-0.664-0.138-1.2-0.414-1.61
					C51.527,91.366,51.091,91.161,50.495,91.161z"/>
				<path fill="#013270" d="M54.631,96.626V90.5h0.861v0.827h0.022c0.126-0.261,0.346-0.48,0.659-0.659s0.689-0.269,1.129-0.269
					c0.633,0,1.161,0.19,1.582,0.57c0.421,0.38,0.632,0.905,0.632,1.576v4.08h-0.872v-3.756c0-1.118-0.514-1.677-1.543-1.677
					c-0.522,0-0.921,0.152-1.196,0.458s-0.414,0.738-0.414,1.297v3.678H54.631z"/>
				<path fill="#013270" d="M63.775,96.626V88.22h0.861v8.406H63.775z"/>
				<path fill="#013270" d="M68.783,96.727c-0.835,0-1.47-0.259-1.906-0.776c-0.436-0.519-0.654-1.206-0.654-2.062v-0.582
					c0-0.573,0.089-1.074,0.268-1.503s0.457-0.77,0.833-1.023c0.376-0.253,0.837-0.38,1.381-0.38c0.812,0,1.429,0.261,1.85,0.782
					c0.421,0.522,0.632,1.227,0.632,2.113v0.48h-4.103v0.168c0,0.373,0.058,0.706,0.173,1c0.115,0.295,0.303,0.537,0.564,0.728
					c0.261,0.189,0.577,0.284,0.95,0.284c0.425,0,0.751-0.093,0.978-0.279c0.227-0.186,0.375-0.413,0.442-0.682h0.906
					c-0.037,0.209-0.106,0.408-0.207,0.598c-0.101,0.19-0.239,0.373-0.414,0.548c-0.175,0.176-0.41,0.317-0.704,0.425
					C69.478,96.673,69.148,96.727,68.783,96.727z M67.084,93.039h3.231v-0.022c0-0.365-0.063-0.688-0.19-0.967
					c-0.127-0.28-0.313-0.498-0.559-0.654s-0.533-0.234-0.861-0.234c-0.499,0-0.894,0.171-1.185,0.514
					c-0.291,0.343-0.436,0.79-0.436,1.342V93.039z"/>
				<path fill="#013270" d="M72.394,92.211c0-0.589,0.212-1.038,0.637-1.348c0.425-0.309,0.95-0.464,1.576-0.464
					c0.693,0,1.222,0.174,1.587,0.52c0.365,0.347,0.548,0.777,0.548,1.292h-0.805c-0.008-0.135-0.035-0.261-0.084-0.381
					c-0.049-0.119-0.123-0.234-0.224-0.346c-0.101-0.112-0.242-0.203-0.425-0.274c-0.183-0.07-0.393-0.106-0.632-0.106
					c-0.395,0-0.716,0.092-0.961,0.274s-0.369,0.431-0.369,0.743c0,0.142,0.03,0.267,0.089,0.375
					c0.06,0.107,0.127,0.193,0.201,0.257c0.074,0.063,0.188,0.123,0.341,0.179c0.153,0.056,0.278,0.095,0.375,0.117
					c0.097,0.022,0.242,0.053,0.436,0.09c0.037,0.007,0.063,0.011,0.078,0.011c0.261,0.053,0.482,0.101,0.665,0.146
					c0.182,0.045,0.375,0.111,0.576,0.201s0.361,0.19,0.481,0.302c0.119,0.112,0.218,0.257,0.296,0.437
					c0.078,0.179,0.117,0.384,0.117,0.614c0,0.396-0.103,0.736-0.307,1.023c-0.205,0.286-0.485,0.501-0.838,0.643
					c-0.354,0.142-0.762,0.212-1.224,0.212c-0.678,0-1.222-0.156-1.632-0.47c-0.41-0.312-0.615-0.733-0.615-1.263h0.838
					c0.045,0.306,0.188,0.552,0.43,0.737c0.242,0.187,0.579,0.28,1.012,0.28c0.484,0,0.853-0.097,1.107-0.291
					c0.253-0.193,0.38-0.451,0.38-0.771c0-0.119-0.017-0.226-0.05-0.318s-0.091-0.173-0.173-0.24s-0.16-0.125-0.235-0.174
					c-0.075-0.048-0.185-0.093-0.33-0.134s-0.267-0.072-0.363-0.095c-0.097-0.022-0.239-0.053-0.425-0.09
					c-0.231-0.052-0.417-0.097-0.559-0.134s-0.304-0.086-0.486-0.146c-0.183-0.06-0.328-0.129-0.436-0.207
					c-0.108-0.078-0.212-0.173-0.313-0.285c-0.101-0.111-0.173-0.244-0.218-0.396S72.394,92.405,72.394,92.211z"/>
				<path fill="#013270" d="M78.084,92.211c0-0.589,0.212-1.038,0.637-1.348c0.425-0.309,0.95-0.464,1.576-0.464
					c0.693,0,1.222,0.174,1.587,0.52c0.365,0.347,0.548,0.777,0.548,1.292h-0.805c-0.008-0.135-0.035-0.261-0.084-0.381
					c-0.049-0.119-0.123-0.234-0.224-0.346c-0.101-0.112-0.242-0.203-0.425-0.274c-0.183-0.07-0.393-0.106-0.632-0.106
					c-0.395,0-0.716,0.092-0.961,0.274s-0.369,0.431-0.369,0.743c0,0.142,0.03,0.267,0.089,0.375
					c0.06,0.107,0.127,0.193,0.201,0.257c0.074,0.063,0.188,0.123,0.341,0.179c0.153,0.056,0.278,0.095,0.375,0.117
					c0.097,0.022,0.242,0.053,0.436,0.09c0.037,0.007,0.063,0.011,0.078,0.011c0.261,0.053,0.482,0.101,0.665,0.146
					c0.182,0.045,0.375,0.111,0.576,0.201s0.361,0.19,0.481,0.302c0.119,0.112,0.218,0.257,0.296,0.437
					c0.078,0.179,0.117,0.384,0.117,0.614c0,0.396-0.103,0.736-0.307,1.023c-0.205,0.286-0.485,0.501-0.838,0.643
					c-0.354,0.142-0.762,0.212-1.224,0.212c-0.678,0-1.222-0.156-1.632-0.47c-0.41-0.312-0.615-0.733-0.615-1.263h0.838
					c0.045,0.306,0.188,0.552,0.43,0.737c0.242,0.187,0.579,0.28,1.012,0.28c0.484,0,0.853-0.097,1.107-0.291
					c0.253-0.193,0.38-0.451,0.38-0.771c0-0.119-0.017-0.226-0.05-0.318s-0.091-0.173-0.173-0.24s-0.16-0.125-0.235-0.174
					c-0.075-0.048-0.185-0.093-0.33-0.134s-0.267-0.072-0.363-0.095c-0.097-0.022-0.239-0.053-0.425-0.09
					c-0.231-0.052-0.417-0.097-0.559-0.134s-0.304-0.086-0.486-0.146c-0.183-0.06-0.328-0.129-0.436-0.207
					c-0.108-0.078-0.212-0.173-0.313-0.285c-0.101-0.111-0.173-0.244-0.218-0.396S78.084,92.405,78.084,92.211z"/>
				<path fill="#013270" d="M86.747,90.5v-1.542h0.861V90.5h1.263v0.727h-1.263v3.768c0,0.373,0.073,0.624,0.218,0.755
					c0.145,0.13,0.415,0.195,0.811,0.195c0.134,0,0.231-0.004,0.291-0.011v0.704c-0.134,0.029-0.298,0.044-0.492,0.044
					c-0.35,0-0.637-0.033-0.861-0.101c-0.224-0.066-0.395-0.177-0.514-0.329c-0.119-0.153-0.201-0.33-0.246-0.531
					s-0.067-0.458-0.067-0.771v-3.723h-0.861V90.5H86.747z"/>
				<path fill="#013270" d="M90.257,96.626V88.22h0.861v3.107h0.033c0.112-0.246,0.313-0.462,0.604-0.648
					c0.291-0.186,0.667-0.279,1.129-0.279c0.686,0,1.237,0.222,1.654,0.665c0.417,0.443,0.626,1.02,0.626,1.728v3.834h-0.861V92.96
					c0-0.529-0.133-0.956-0.397-1.28c-0.265-0.324-0.646-0.486-1.146-0.486c-0.343,0-0.639,0.072-0.889,0.218
					c-0.25,0.146-0.438,0.353-0.565,0.62c-0.127,0.269-0.19,0.586-0.19,0.95v3.645H90.257z"/>
				<path fill="#013270" d="M100.441,95.777c-0.164,0.276-0.399,0.503-0.704,0.683c-0.306,0.179-0.675,0.268-1.107,0.268
					c-0.395,0-0.743-0.076-1.045-0.229c-0.302-0.153-0.537-0.369-0.704-0.648c-0.167-0.28-0.251-0.605-0.251-0.979
					c0-0.536,0.185-0.965,0.553-1.285s0.896-0.481,1.582-0.481h1.666v-0.76c0-0.782-0.455-1.174-1.364-1.174
					c-0.82,0-1.274,0.339-1.364,1.018h-0.838c0.03-0.552,0.235-0.987,0.615-1.309c0.38-0.32,0.924-0.48,1.632-0.48
					c0.343,0,0.646,0.037,0.911,0.112c0.264,0.074,0.494,0.189,0.688,0.347c0.194,0.156,0.341,0.359,0.442,0.608
					c0.101,0.25,0.151,0.539,0.151,0.867v4.292h-0.838v-0.85H100.441z M98.831,95.978c0.454,0,0.834-0.138,1.14-0.413
					c0.305-0.275,0.458-0.619,0.458-1.028v-0.705h-1.643c-0.425,0-0.743,0.094-0.956,0.28c-0.212,0.186-0.318,0.436-0.318,0.749
					c0,0.357,0.126,0.633,0.38,0.827C98.145,95.881,98.458,95.978,98.831,95.978z"/>
				<path fill="#013270" d="M103.124,96.626V90.5h0.861v0.827h0.022c0.126-0.261,0.346-0.48,0.659-0.659s0.689-0.269,1.129-0.269
					c0.633,0,1.161,0.19,1.582,0.57c0.421,0.38,0.632,0.905,0.632,1.576v4.08h-0.872v-3.756c0-1.118-0.514-1.677-1.543-1.677
					c-0.522,0-0.921,0.152-1.196,0.458s-0.414,0.738-0.414,1.297v3.678H103.124z"/>
				<path fill="#013270" d="M114.727,96.626h-0.861v-6.998h-0.011c-0.127,0.075-0.308,0.183-0.542,0.324
					c-0.235,0.142-0.479,0.293-0.732,0.453c-0.253,0.16-0.462,0.296-0.626,0.408v-0.962c0.618-0.439,1.278-0.842,1.979-1.207h0.794
					V96.626z"/>
				<path fill="#013270" d="M126.554,90.5l-1.643,6.126h-0.838l-1.476-4.874h-0.022l-1.442,4.874h-0.85L118.55,90.5h0.973
					l1.174,4.964h0.045l1.431-4.964h0.816l1.465,4.964h0.045l1.196-4.964H126.554z"/>
				<path fill="#013270" d="M129.796,96.727c-0.835,0-1.47-0.259-1.906-0.776c-0.436-0.519-0.654-1.206-0.654-2.062v-0.582
					c0-0.573,0.089-1.074,0.268-1.503s0.457-0.77,0.833-1.023c0.376-0.253,0.837-0.38,1.381-0.38c0.812,0,1.429,0.261,1.85,0.782
					c0.421,0.522,0.632,1.227,0.632,2.113v0.48h-4.103v0.168c0,0.373,0.058,0.706,0.173,1c0.115,0.295,0.303,0.537,0.564,0.728
					c0.261,0.189,0.577,0.284,0.95,0.284c0.425,0,0.751-0.093,0.978-0.279c0.227-0.186,0.375-0.413,0.442-0.682h0.906
					c-0.037,0.209-0.106,0.408-0.207,0.598c-0.101,0.19-0.239,0.373-0.414,0.548c-0.175,0.176-0.41,0.317-0.704,0.425
					C130.491,96.673,130.161,96.727,129.796,96.727z M128.097,93.039h3.231v-0.022c0-0.365-0.063-0.688-0.19-0.967
					c-0.127-0.28-0.313-0.498-0.559-0.654s-0.533-0.234-0.861-0.234c-0.499,0-0.894,0.171-1.185,0.514
					c-0.291,0.343-0.436,0.79-0.436,1.342V93.039z"/>
				<path fill="#013270" d="M135.967,96.727c-0.835,0-1.47-0.259-1.906-0.776c-0.436-0.519-0.654-1.206-0.654-2.062v-0.582
					c0-0.573,0.089-1.074,0.268-1.503s0.457-0.77,0.833-1.023c0.376-0.253,0.837-0.38,1.381-0.38c0.812,0,1.429,0.261,1.85,0.782
					c0.421,0.522,0.632,1.227,0.632,2.113v0.48h-4.103v0.168c0,0.373,0.058,0.706,0.173,1c0.115,0.295,0.303,0.537,0.564,0.728
					c0.261,0.189,0.577,0.284,0.95,0.284c0.425,0,0.751-0.093,0.978-0.279c0.227-0.186,0.375-0.413,0.442-0.682h0.906
					c-0.037,0.209-0.106,0.408-0.207,0.598c-0.101,0.19-0.239,0.373-0.414,0.548c-0.175,0.176-0.41,0.317-0.704,0.425
					C136.662,96.673,136.332,96.727,135.967,96.727z M134.268,93.039h3.231v-0.022c0-0.365-0.063-0.688-0.19-0.967
					c-0.127-0.28-0.313-0.498-0.559-0.654s-0.533-0.234-0.861-0.234c-0.499,0-0.894,0.171-1.185,0.514
					c-0.291,0.343-0.436,0.79-0.436,1.342V93.039z"/>
				<path fill="#013270" d="M140.751,94.313v2.313h-0.861V88.22h0.861v5.12h0.033l2.694-2.851h1.006l-2.482,2.66l2.638,3.477h-1.04
					l-2.225-2.929L140.751,94.313z"/>
				<path fill="#013270" d="M159.163,93.731h-11.984V92.96h11.984V93.731z"/>
				<path fill="#013270" d="M162.158,88.645h4.963v0.816l-3.287,7.165h-0.928l3.376-7.188v-0.012h-4.125V88.645z"/>
				<path fill="#013270" d="M168.463,94.693h0.883c0.037,0.335,0.199,0.639,0.486,0.911s0.676,0.408,1.168,0.408
					c0.648,0,1.149-0.298,1.504-0.895c0.354-0.597,0.535-1.438,0.542-2.526h-0.033c-0.134,0.351-0.384,0.643-0.749,0.877
					c-0.365,0.235-0.82,0.353-1.364,0.353c-0.328,0-0.639-0.058-0.933-0.173c-0.295-0.116-0.561-0.281-0.799-0.498
					c-0.239-0.216-0.429-0.495-0.57-0.838s-0.212-0.723-0.212-1.141c0-0.805,0.261-1.455,0.783-1.95
					c0.521-0.496,1.144-0.744,1.867-0.744c1.908,0,2.862,1.327,2.862,3.979c0,1.379-0.259,2.445-0.777,3.197
					c-0.518,0.753-1.239,1.13-2.163,1.13c-0.395,0-0.751-0.063-1.068-0.19c-0.317-0.127-0.574-0.293-0.771-0.497
					c-0.198-0.205-0.352-0.429-0.464-0.671S168.478,94.939,168.463,94.693z M172.924,91.205c0-0.417-0.084-0.776-0.252-1.078
					c-0.167-0.302-0.387-0.523-0.659-0.665c-0.272-0.142-0.58-0.213-0.922-0.213c-0.239,0-0.466,0.041-0.682,0.123
					c-0.216,0.082-0.412,0.199-0.587,0.353c-0.175,0.152-0.313,0.354-0.414,0.604s-0.151,0.527-0.151,0.833
					c0,0.61,0.173,1.08,0.52,1.408c0.347,0.328,0.773,0.492,1.28,0.492c0.507,0,0.945-0.176,1.313-0.525
					C172.739,92.185,172.924,91.742,172.924,91.205z"/>
				<path fill="#013270" d="M174.578,88.645h4.963v0.816l-3.287,7.165h-0.928l3.376-7.188v-0.012h-4.125V88.645z"/>
			</g>
			<rect x="0.048" y="99.957" fill="#0E3F87" width="309" height="8"/>
		</g>
		<g>
			<g>
				<path fill="#013270" d="M3.801,44.574c0.335,0,0.643,0.042,0.922,0.123c0.279,0.082,0.516,0.196,0.71,0.341
					c0.194,0.145,0.358,0.316,0.492,0.514c0.134,0.197,0.233,0.412,0.296,0.643s0.095,0.47,0.095,0.715
					c0,0.604-0.146,1.088-0.436,1.454c-0.291,0.365-0.652,0.619-1.084,0.76l1.655,3.432H5.456l-1.531-3.253H1.867v3.253H0.995
					v-7.982H3.801z M1.867,48.52h1.789c0.283,0,0.537-0.035,0.76-0.106c0.223-0.071,0.41-0.171,0.559-0.302
					c0.149-0.13,0.261-0.292,0.335-0.486c0.074-0.194,0.112-0.41,0.112-0.648c0-0.521-0.155-0.922-0.464-1.202
					c-0.309-0.28-0.732-0.419-1.269-0.419H1.867V48.52z"/>
				<path fill="#013270" d="M10.173,52.656c-0.835,0-1.47-0.259-1.906-0.777s-0.654-1.206-0.654-2.062v-0.582
					c0-0.574,0.089-1.075,0.268-1.503c0.179-0.428,0.457-0.77,0.833-1.023c0.376-0.253,0.837-0.38,1.381-0.38
					c0.812,0,1.429,0.261,1.85,0.782c0.421,0.522,0.632,1.226,0.632,2.113v0.481H8.474v0.167c0,0.373,0.058,0.707,0.173,1
					c0.115,0.295,0.303,0.537,0.564,0.727c0.261,0.19,0.577,0.285,0.95,0.285c0.425,0,0.751-0.093,0.978-0.279
					c0.227-0.186,0.375-0.414,0.442-0.682h0.906c-0.037,0.209-0.106,0.408-0.207,0.598s-0.239,0.373-0.414,0.548
					c-0.175,0.175-0.41,0.317-0.704,0.425S10.538,52.656,10.173,52.656z M8.474,48.967h3.231v-0.022c0-0.365-0.063-0.688-0.19-0.967
					c-0.127-0.28-0.313-0.498-0.559-0.654c-0.246-0.156-0.533-0.234-0.861-0.234c-0.499,0-0.894,0.171-1.185,0.514
					c-0.291,0.343-0.436,0.79-0.436,1.341V48.967z"/>
				<path fill="#013270" d="M16.791,52.656c-0.865,0-1.472-0.317-1.822-0.95h-0.022v2.974h-0.861v-8.261h0.827v0.883h0.022
					c0.074-0.179,0.19-0.339,0.347-0.481s0.369-0.259,0.637-0.352c0.268-0.093,0.57-0.14,0.906-0.14c0.7,0,1.269,0.244,1.705,0.732
					c0.436,0.488,0.654,1.15,0.654,1.984v0.906c0,0.842-0.22,1.503-0.659,1.984C18.084,52.416,17.506,52.656,16.791,52.656z
					 M16.668,51.885c0.499,0,0.9-0.179,1.202-0.537c0.302-0.357,0.453-0.872,0.453-1.542v-0.648c0-0.656-0.149-1.164-0.447-1.526
					c-0.298-0.361-0.708-0.542-1.23-0.542c-0.522,0-0.935,0.184-1.241,0.553c-0.306,0.369-0.458,0.844-0.458,1.425v0.805
					c0,0.365,0.067,0.699,0.201,1c0.134,0.302,0.333,0.546,0.598,0.732C16.01,51.792,16.317,51.885,16.668,51.885z"/>
				<path fill="#013270" d="M20.838,52.556V46.43h0.849v0.76h0.022c0.037-0.075,0.073-0.14,0.106-0.196
					c0.033-0.056,0.08-0.121,0.14-0.196c0.06-0.074,0.127-0.136,0.201-0.184c0.074-0.048,0.164-0.095,0.268-0.14
					c0.104-0.044,0.227-0.078,0.369-0.101c0.141-0.022,0.298-0.033,0.469-0.033c0.097,0,0.223,0.007,0.38,0.022v0.793
					c-0.082-0.015-0.242-0.022-0.48-0.022c-0.514,0-0.889,0.14-1.124,0.419c-0.235,0.279-0.352,0.661-0.352,1.146v3.857H20.838z"/>
				<path fill="#013270" d="M24.739,44.92c0-0.164,0.056-0.302,0.168-0.414s0.25-0.167,0.414-0.167c0.164,0,0.304,0.056,0.419,0.167
					c0.115,0.112,0.173,0.25,0.173,0.414c0,0.171-0.058,0.313-0.173,0.425c-0.116,0.112-0.255,0.168-0.419,0.168
					c-0.164,0-0.302-0.056-0.414-0.168S24.739,45.092,24.739,44.92z M24.895,52.556V46.43h0.861v6.126H24.895z"/>
				<path fill="#013270" d="M27.757,52.556V46.43h0.861v0.771h0.045c0.104-0.239,0.294-0.443,0.57-0.615
					c0.276-0.171,0.607-0.257,0.995-0.257c0.924,0,1.516,0.339,1.777,1.017h0.033c0.06-0.142,0.144-0.27,0.252-0.386
					c0.108-0.115,0.238-0.222,0.391-0.318s0.335-0.173,0.548-0.229c0.212-0.056,0.442-0.084,0.688-0.084
					c0.641,0,1.146,0.185,1.515,0.553c0.369,0.369,0.553,0.87,0.553,1.503v4.17h-0.861v-4.013c0-0.425-0.121-0.768-0.363-1.028
					s-0.583-0.392-1.023-0.392c-0.306,0-0.568,0.067-0.788,0.201c-0.22,0.134-0.384,0.315-0.492,0.542
					c-0.108,0.228-0.162,0.486-0.162,0.777v3.913h-0.861v-3.913c0-0.328-0.054-0.605-0.162-0.833
					c-0.108-0.227-0.268-0.398-0.481-0.514c-0.212-0.115-0.464-0.173-0.755-0.173c-0.417,0-0.758,0.136-1.023,0.408
					c-0.265,0.272-0.397,0.643-0.397,1.112v3.913H27.757z"/>
				<path fill="#013270" d="M41.261,51.706c-0.164,0.276-0.399,0.503-0.704,0.682c-0.306,0.179-0.675,0.268-1.107,0.268
					c-0.395,0-0.743-0.077-1.045-0.229c-0.302-0.153-0.537-0.369-0.704-0.648c-0.167-0.28-0.251-0.605-0.251-0.978
					c0-0.537,0.185-0.965,0.553-1.286s0.896-0.481,1.582-0.481h1.666v-0.76c0-0.782-0.455-1.173-1.364-1.173
					c-0.82,0-1.274,0.339-1.364,1.017h-0.838c0.03-0.551,0.235-0.987,0.615-1.308c0.38-0.32,0.924-0.48,1.632-0.48
					c0.343,0,0.646,0.037,0.911,0.112c0.264,0.075,0.494,0.19,0.688,0.347c0.194,0.156,0.341,0.359,0.442,0.609
					c0.101,0.25,0.151,0.539,0.151,0.867v4.292h-0.838v-0.85H41.261z M39.651,51.907c0.454,0,0.834-0.138,1.14-0.414
					c0.305-0.275,0.458-0.619,0.458-1.028v-0.705h-1.643c-0.425,0-0.743,0.093-0.956,0.28c-0.212,0.186-0.318,0.436-0.318,0.749
					c0,0.357,0.126,0.633,0.38,0.827S39.279,51.907,39.651,51.907z"/>
				<path fill="#013270" d="M43.944,52.556V46.43h0.861v0.827h0.022c0.126-0.261,0.346-0.48,0.659-0.66
					c0.313-0.179,0.689-0.268,1.129-0.268c0.633,0,1.161,0.19,1.582,0.57c0.421,0.38,0.632,0.906,0.632,1.577v4.08h-0.872V48.8
					c0-1.118-0.514-1.677-1.543-1.677c-0.522,0-0.921,0.153-1.196,0.458s-0.414,0.738-0.414,1.297v3.678H43.944z"/>
				<path fill="#013270" d="M52.753,46.329c0.477,0,0.87,0.093,1.179,0.279c0.309,0.187,0.516,0.417,0.62,0.693h0.034v-3.153h0.85
					v8.407h-0.805v-0.95h-0.022c-0.074,0.268-0.279,0.509-0.615,0.721s-0.749,0.318-1.241,0.318c-0.768,0-1.362-0.25-1.783-0.749
					c-0.421-0.499-0.632-1.163-0.632-1.99v-0.838c0-0.82,0.21-1.481,0.632-1.984C51.391,46.58,51.985,46.329,52.753,46.329z
					 M52.865,47.089c-0.544,0-0.958,0.194-1.241,0.581c-0.283,0.388-0.425,0.909-0.425,1.565v0.503c0,0.663,0.143,1.188,0.43,1.576
					c0.287,0.388,0.706,0.581,1.258,0.581c0.537,0,0.954-0.19,1.252-0.57c0.298-0.38,0.447-0.902,0.447-1.565v-0.57
					c0-0.641-0.153-1.151-0.458-1.532C53.822,47.279,53.401,47.089,52.865,47.089z"/>
				<path fill="#013270" d="M70.773,49.66H58.789v-0.771h11.984V49.66z"/>
				<path fill="#013270" d="M73.992,50.577h0.85c0.037,0.283,0.134,0.529,0.291,0.738s0.363,0.369,0.62,0.48s0.55,0.168,0.878,0.168
					c0.484,0,0.917-0.179,1.297-0.537c0.38-0.358,0.57-0.835,0.57-1.431c0-0.581-0.177-1.049-0.531-1.403s-0.792-0.531-1.313-0.531
					c-0.469,0-0.857,0.106-1.163,0.319s-0.525,0.471-0.659,0.777h-0.738l0.447-4.594h4.259v0.782h-3.51l-0.302,2.672h0.011
					c0.052-0.074,0.132-0.151,0.24-0.229c0.108-0.079,0.237-0.155,0.386-0.229c0.149-0.074,0.324-0.136,0.525-0.185
					c0.201-0.048,0.402-0.072,0.604-0.072c0.484,0,0.926,0.112,1.325,0.335c0.399,0.223,0.717,0.54,0.956,0.95
					c0.239,0.41,0.358,0.875,0.358,1.397c0,0.798-0.268,1.454-0.805,1.968s-1.207,0.771-2.012,0.771
					c-0.782,0-1.399-0.208-1.85-0.626C74.273,51.68,74.03,51.173,73.992,50.577z"/>
				<path fill="#013270" d="M83.427,52.723c-0.798,0-1.453-0.216-1.968-0.648c-0.514-0.432-0.771-0.995-0.771-1.688
					c0-0.298,0.052-0.572,0.156-0.822c0.104-0.25,0.242-0.455,0.414-0.615s0.345-0.291,0.52-0.392s0.352-0.169,0.531-0.207v-0.011
					c-0.328-0.104-0.628-0.313-0.9-0.626s-0.408-0.708-0.408-1.185c0-0.619,0.233-1.129,0.699-1.532
					c0.466-0.402,1.052-0.604,1.761-0.604c0.7,0,1.283,0.201,1.749,0.604c0.466,0.403,0.699,0.913,0.699,1.532
					c0,0.253-0.045,0.49-0.134,0.71c-0.09,0.22-0.203,0.4-0.341,0.542s-0.278,0.257-0.419,0.347s-0.283,0.16-0.425,0.212v0.011
					c0.179,0.037,0.358,0.106,0.537,0.207s0.352,0.231,0.52,0.392s0.304,0.365,0.408,0.615c0.104,0.25,0.157,0.52,0.157,0.811
					c0,0.693-0.263,1.257-0.788,1.693S84.232,52.723,83.427,52.723z M83.461,51.974c0.544,0,0.997-0.151,1.358-0.453
					c0.361-0.302,0.542-0.688,0.542-1.157c0-0.477-0.179-0.865-0.537-1.163c-0.358-0.298-0.812-0.447-1.364-0.447
					c-0.559,0-1.019,0.151-1.381,0.453c-0.362,0.302-0.542,0.688-0.542,1.157c0,0.231,0.048,0.447,0.145,0.648
					c0.097,0.201,0.231,0.371,0.403,0.508c0.171,0.138,0.374,0.248,0.609,0.33S83.185,51.974,83.461,51.974z M82.304,47.603
					c0.302,0.268,0.686,0.402,1.152,0.402c0.466,0,0.85-0.134,1.151-0.402c0.302-0.269,0.453-0.611,0.453-1.028
					s-0.149-0.756-0.447-1.018c-0.298-0.261-0.682-0.391-1.151-0.391c-0.47,0-0.855,0.13-1.157,0.391
					c-0.302,0.261-0.453,0.6-0.453,1.018S82.002,47.335,82.304,47.603z"/>
				<path fill="#013270" d="M87.429,48.889v-0.637c0-0.79,0.106-1.472,0.319-2.046c0.212-0.574,0.525-1.019,0.939-1.336
					c0.414-0.316,0.911-0.475,1.492-0.475c0.872,0,1.546,0.343,2.023,1.028c0.477,0.686,0.715,1.628,0.715,2.829v0.637
					c0,1.2-0.239,2.139-0.715,2.817c-0.477,0.678-1.154,1.017-2.029,1.017c-0.876,0-1.552-0.341-2.029-1.022
					C87.668,51.018,87.429,50.081,87.429,48.889z M88.301,48.263v0.615c0,0.976,0.166,1.732,0.498,2.269
					c0.332,0.537,0.792,0.805,1.381,0.805c0.589,0,1.049-0.269,1.381-0.805c0.332-0.537,0.497-1.293,0.497-2.269v-0.615
					c0-0.648-0.076-1.206-0.229-1.671c-0.153-0.466-0.369-0.82-0.648-1.062s-0.613-0.363-1-0.363c-0.589,0-1.049,0.272-1.381,0.816
					C88.467,46.526,88.301,47.286,88.301,48.263z"/>
			</g>
			<rect x="0.048" y="55.886" fill="#0652C1" width="224.868" height="8"/>
		</g>
		<g>
			<g>
				<path fill="#013270" d="M1.867,8.484H0.995V0.502h0.872l4.17,6.484h0.022V0.502h0.872v7.982H6.059L1.889,2H1.867V8.484z"/>
				<path fill="#013270" d="M11.146,2.258c0.85,0,1.492,0.259,1.928,0.777c0.436,0.518,0.654,1.22,0.654,2.107v0.547
					c0,0.887-0.218,1.591-0.654,2.113c-0.436,0.522-1.079,0.783-1.928,0.783S9.651,8.326,9.212,7.808
					c-0.44-0.518-0.66-1.224-0.66-2.119V5.142c0-0.865,0.22-1.562,0.66-2.091C9.651,2.522,10.296,2.258,11.146,2.258z M11.146,3.018
					c-0.596,0-1.036,0.205-1.319,0.615s-0.425,0.946-0.425,1.61V5.6c0,0.671,0.14,1.208,0.419,1.61s0.721,0.604,1.325,0.604
					c0.596,0,1.032-0.201,1.308-0.604s0.414-0.939,0.414-1.61V5.243c0-0.664-0.138-1.2-0.414-1.61S11.742,3.018,11.146,3.018z"/>
				<path fill="#013270" d="M17.752,0.502h2.817c0.753,0,1.36,0.224,1.822,0.671s0.693,1.036,0.693,1.766
					c0,0.373-0.06,0.71-0.179,1.012c-0.119,0.302-0.289,0.557-0.509,0.766c-0.22,0.208-0.486,0.371-0.799,0.486
					c-0.313,0.115-0.656,0.173-1.028,0.173h-1.945v3.108h-0.872V0.502z M18.624,1.296v3.298h1.341c0.76,0,1.321-0.118,1.683-0.352
					c0.361-0.235,0.542-0.669,0.542-1.303c0-0.521-0.144-0.926-0.43-1.213c-0.287-0.287-0.691-0.43-1.213-0.43H18.624z"/>
				<path fill="#013270" d="M26.472,8.585c-0.835,0-1.47-0.259-1.906-0.777s-0.654-1.206-0.654-2.062V5.164
					c0-0.574,0.089-1.075,0.268-1.503c0.179-0.428,0.457-0.77,0.833-1.023c0.376-0.253,0.837-0.38,1.381-0.38
					c0.812,0,1.429,0.261,1.85,0.782c0.421,0.522,0.632,1.226,0.632,2.113v0.481h-4.103v0.167c0,0.373,0.058,0.707,0.173,1
					c0.115,0.295,0.303,0.537,0.564,0.727c0.261,0.19,0.577,0.285,0.95,0.285c0.425,0,0.751-0.093,0.978-0.279
					c0.227-0.186,0.375-0.414,0.442-0.682h0.906c-0.037,0.209-0.106,0.408-0.207,0.598s-0.239,0.373-0.414,0.548
					c-0.175,0.175-0.41,0.317-0.704,0.425S26.837,8.585,26.472,8.585z M24.772,4.896h3.231V4.874c0-0.365-0.063-0.688-0.19-0.967
					c-0.127-0.28-0.313-0.498-0.559-0.654c-0.246-0.156-0.533-0.234-0.861-0.234c-0.499,0-0.894,0.171-1.185,0.514
					c-0.291,0.343-0.436,0.79-0.436,1.341V4.896z"/>
				<path fill="#013270" d="M30.384,8.484V2.358h0.861v0.827h0.022c0.126-0.261,0.346-0.48,0.659-0.66
					c0.313-0.179,0.689-0.268,1.129-0.268c0.633,0,1.161,0.19,1.582,0.57c0.421,0.38,0.632,0.906,0.632,1.577v4.08h-0.872V4.729
					c0-1.118-0.514-1.677-1.543-1.677c-0.522,0-0.921,0.153-1.196,0.458s-0.414,0.738-0.414,1.297v3.678H30.384z"/>
				<path fill="#013270" d="M40.534,7.635c-0.164,0.276-0.399,0.503-0.704,0.682c-0.306,0.179-0.675,0.268-1.107,0.268
					c-0.395,0-0.743-0.077-1.045-0.229c-0.302-0.153-0.537-0.369-0.704-0.648c-0.167-0.28-0.251-0.605-0.251-0.978
					c0-0.537,0.185-0.965,0.553-1.286s0.896-0.481,1.582-0.481h1.666v-0.76c0-0.782-0.455-1.173-1.364-1.173
					c-0.82,0-1.274,0.339-1.364,1.017h-0.838c0.03-0.551,0.235-0.987,0.615-1.308c0.38-0.32,0.924-0.48,1.632-0.48
					c0.343,0,0.646,0.037,0.911,0.112c0.264,0.075,0.494,0.19,0.688,0.347c0.194,0.156,0.341,0.359,0.442,0.609
					c0.101,0.25,0.151,0.539,0.151,0.867v4.292h-0.838v-0.85H40.534z M38.925,7.836c0.454,0,0.834-0.138,1.14-0.414
					c0.305-0.275,0.458-0.619,0.458-1.028V5.689H38.88c-0.425,0-0.743,0.093-0.956,0.28c-0.212,0.186-0.318,0.436-0.318,0.749
					c0,0.357,0.126,0.633,0.38,0.827S38.552,7.836,38.925,7.836z"/>
				<path fill="#013270" d="M43.262,8.484V0.078h0.861v8.407H43.262z"/>
				<path fill="#013270" d="M46.28,2.358V0.816h0.861v1.542h1.263v0.727h-1.263v3.767c0,0.373,0.073,0.625,0.218,0.755
					s0.415,0.195,0.811,0.195c0.134,0,0.231-0.003,0.291-0.011v0.704c-0.134,0.03-0.298,0.044-0.492,0.044
					c-0.35,0-0.637-0.033-0.861-0.101c-0.224-0.067-0.395-0.177-0.514-0.33c-0.119-0.153-0.201-0.33-0.246-0.531
					c-0.045-0.202-0.067-0.458-0.067-0.771V3.085H45.42V2.358H46.28z"/>
				<path fill="#013270" d="M54.832,2.358L52.619,8.54l-0.168,0.458c-0.097,0.261-0.19,0.477-0.28,0.648s-0.207,0.347-0.352,0.525
					c-0.146,0.179-0.326,0.311-0.542,0.397c-0.216,0.085-0.466,0.128-0.749,0.128c-0.186,0-0.384-0.015-0.593-0.045V9.926
					c0.127,0.022,0.278,0.034,0.453,0.034c0.175,0,0.33-0.022,0.464-0.067c0.134-0.045,0.25-0.112,0.346-0.201
					c0.097-0.09,0.177-0.192,0.24-0.308c0.063-0.116,0.117-0.259,0.162-0.43l0.112-0.369l-2.281-6.227h0.95l1.755,5.231h0.033
					l1.744-5.231H54.832z"/>
				<path fill="#013270" d="M69.51,5.589H57.526V4.818H69.51V5.589z"/>
				<path fill="#013270" d="M74.261,4.762V3.979h0.76c0.484,0,0.878-0.14,1.179-0.419s0.449-0.631,0.442-1.056
					c0-0.417-0.142-0.756-0.425-1.018c-0.283-0.261-0.664-0.391-1.14-0.391c-0.492,0-0.865,0.138-1.118,0.414
					s-0.395,0.592-0.425,0.95h-0.838c0-0.253,0.052-0.503,0.156-0.749c0.104-0.246,0.25-0.473,0.436-0.682
					c0.186-0.208,0.436-0.378,0.749-0.508s0.659-0.196,1.04-0.196c0.73,0,1.319,0.194,1.766,0.582
					c0.447,0.387,0.678,0.872,0.693,1.453c0.015,0.529-0.136,0.975-0.453,1.336c-0.317,0.361-0.658,0.572-1.023,0.631v0.011
					c0.141,0.015,0.291,0.049,0.447,0.101c0.156,0.052,0.315,0.132,0.475,0.24c0.16,0.108,0.302,0.233,0.425,0.375
					c0.123,0.142,0.225,0.321,0.307,0.537c0.082,0.216,0.127,0.447,0.134,0.693c0.007,0.686-0.251,1.254-0.777,1.705
					c-0.525,0.451-1.198,0.676-2.018,0.676c-0.805,0-1.427-0.208-1.867-0.626c-0.44-0.417-0.675-0.946-0.704-1.587h0.838
					c0.052,0.425,0.225,0.771,0.52,1.04c0.294,0.269,0.71,0.403,1.246,0.403c0.581,0,1.04-0.149,1.375-0.447
					s0.499-0.682,0.492-1.151c-0.008-0.47-0.179-0.842-0.514-1.118c-0.335-0.275-0.79-0.414-1.364-0.414H74.261z"/>
				<path fill="#013270" d="M80.8,4.762V3.979h0.76c0.484,0,0.878-0.14,1.179-0.419s0.449-0.631,0.442-1.056
					c0-0.417-0.142-0.756-0.425-1.018c-0.283-0.261-0.664-0.391-1.14-0.391c-0.492,0-0.865,0.138-1.118,0.414
					s-0.395,0.592-0.425,0.95h-0.838c0-0.253,0.052-0.503,0.156-0.749c0.104-0.246,0.25-0.473,0.436-0.682
					c0.186-0.208,0.436-0.378,0.749-0.508s0.659-0.196,1.04-0.196c0.73,0,1.319,0.194,1.766,0.582
					c0.447,0.387,0.678,0.872,0.693,1.453c0.015,0.529-0.136,0.975-0.453,1.336c-0.317,0.361-0.658,0.572-1.023,0.631v0.011
					c0.141,0.015,0.291,0.049,0.447,0.101c0.156,0.052,0.315,0.132,0.475,0.24c0.16,0.108,0.302,0.233,0.425,0.375
					c0.123,0.142,0.225,0.321,0.307,0.537c0.082,0.216,0.127,0.447,0.134,0.693c0.007,0.686-0.251,1.254-0.777,1.705
					c-0.525,0.451-1.198,0.676-2.018,0.676c-0.805,0-1.427-0.208-1.867-0.626c-0.44-0.417-0.675-0.946-0.704-1.587h0.838
					c0.052,0.425,0.225,0.771,0.52,1.04c0.294,0.269,0.71,0.403,1.246,0.403c0.581,0,1.04-0.149,1.375-0.447
					s0.499-0.682,0.492-1.151c-0.008-0.47-0.179-0.842-0.514-1.118c-0.335-0.275-0.79-0.414-1.364-0.414H80.8z"/>
				<path fill="#013270" d="M85.808,6.506h0.85c0.037,0.283,0.134,0.529,0.291,0.738s0.363,0.369,0.62,0.48s0.55,0.168,0.878,0.168
					c0.484,0,0.917-0.179,1.297-0.537c0.38-0.358,0.57-0.835,0.57-1.431c0-0.581-0.177-1.049-0.531-1.403S88.99,3.99,88.469,3.99
					c-0.469,0-0.857,0.106-1.163,0.319s-0.525,0.471-0.659,0.777h-0.738l0.447-4.594h4.259v0.782h-3.51l-0.302,2.672h0.011
					c0.052-0.074,0.132-0.151,0.24-0.229c0.108-0.079,0.237-0.155,0.386-0.229c0.149-0.074,0.324-0.136,0.525-0.185
					c0.201-0.048,0.402-0.072,0.604-0.072c0.484,0,0.926,0.112,1.325,0.335c0.399,0.223,0.717,0.54,0.956,0.95
					c0.239,0.41,0.358,0.875,0.358,1.397c0,0.798-0.268,1.454-0.805,1.968s-1.207,0.771-2.012,0.771
					c-0.782,0-1.399-0.208-1.85-0.626C86.089,7.609,85.845,7.102,85.808,6.506z"/>
			</g>
			<rect x="0.048" y="11.815" fill="#1464F1" width="129.881" height="8"/>
		</g>
		<g>
			<g>
				<path fill="#013270" d="M3.455,184.674H2.594v-7.188H0.112v-0.793h5.835v0.793H3.455V184.674z"/>
				<path fill="#013270" d="M8.329,184.774c-0.835,0-1.47-0.259-1.906-0.777c-0.436-0.518-0.654-1.205-0.654-2.062v-0.581
					c0-0.573,0.089-1.075,0.268-1.503c0.179-0.429,0.457-0.77,0.833-1.023c0.376-0.253,0.837-0.38,1.381-0.38
					c0.812,0,1.429,0.261,1.85,0.782c0.421,0.521,0.632,1.227,0.632,2.113v0.48H6.629v0.168c0,0.372,0.058,0.706,0.173,1
					c0.115,0.295,0.303,0.537,0.564,0.727c0.261,0.19,0.577,0.285,0.95,0.285c0.425,0,0.751-0.093,0.978-0.279
					s0.375-0.414,0.442-0.682h0.906c-0.037,0.208-0.106,0.408-0.207,0.598c-0.101,0.19-0.239,0.373-0.414,0.548
					c-0.175,0.175-0.41,0.317-0.704,0.425C9.023,184.721,8.694,184.774,8.329,184.774z M6.629,181.085H9.86v-0.021
					c0-0.365-0.063-0.688-0.19-0.968c-0.127-0.279-0.313-0.497-0.559-0.653c-0.246-0.157-0.533-0.235-0.861-0.235
					c-0.499,0-0.894,0.172-1.185,0.515c-0.291,0.343-0.436,0.79-0.436,1.342V181.085z"/>
				<path fill="#013270" d="M12.342,184.674v-6.126h0.849v0.76h0.022c0.037-0.074,0.073-0.14,0.106-0.195s0.08-0.121,0.14-0.195
					s0.127-0.136,0.201-0.185c0.074-0.049,0.164-0.095,0.268-0.14c0.104-0.045,0.227-0.078,0.369-0.101
					c0.141-0.022,0.298-0.034,0.469-0.034c0.097,0,0.223,0.008,0.38,0.022v0.794c-0.082-0.015-0.242-0.022-0.48-0.022
					c-0.514,0-0.889,0.14-1.124,0.419c-0.235,0.28-0.352,0.662-0.352,1.146v3.856H12.342z"/>
				<path fill="#013270" d="M16.243,184.674v-6.126h0.861v0.771h0.045c0.104-0.238,0.294-0.443,0.57-0.615
					c0.276-0.171,0.607-0.257,0.995-0.257c0.924,0,1.516,0.339,1.777,1.018h0.033c0.06-0.142,0.144-0.271,0.252-0.386
					c0.108-0.116,0.238-0.222,0.391-0.319c0.153-0.097,0.335-0.173,0.548-0.229s0.442-0.084,0.688-0.084
					c0.641,0,1.146,0.185,1.515,0.554c0.369,0.368,0.553,0.87,0.553,1.503v4.17H23.61v-4.014c0-0.425-0.121-0.767-0.363-1.028
					c-0.242-0.261-0.583-0.391-1.023-0.391c-0.306,0-0.568,0.066-0.788,0.201c-0.22,0.134-0.384,0.314-0.492,0.542
					c-0.108,0.228-0.162,0.486-0.162,0.776v3.913h-0.861v-3.913c0-0.327-0.054-0.604-0.162-0.832
					c-0.108-0.228-0.268-0.398-0.481-0.515c-0.212-0.115-0.464-0.173-0.755-0.173c-0.417,0-0.758,0.136-1.023,0.408
					c-0.265,0.271-0.397,0.643-0.397,1.111v3.913H16.243z"/>
				<path fill="#013270" d="M26.293,177.039c0-0.164,0.056-0.302,0.168-0.414c0.112-0.111,0.25-0.168,0.414-0.168
					c0.164,0,0.304,0.057,0.419,0.168c0.115,0.112,0.173,0.25,0.173,0.414c0,0.171-0.058,0.312-0.173,0.425
					c-0.116,0.111-0.255,0.167-0.419,0.167c-0.164,0-0.302-0.056-0.414-0.167C26.348,177.352,26.293,177.21,26.293,177.039z
					 M26.449,184.674v-6.126h0.861v6.126H26.449z"/>
				<path fill="#013270" d="M29.311,184.674v-6.126h0.861v0.827h0.022c0.126-0.261,0.346-0.48,0.659-0.659s0.689-0.269,1.129-0.269
					c0.633,0,1.161,0.19,1.582,0.57c0.421,0.38,0.632,0.905,0.632,1.576v4.08h-0.872v-3.756c0-1.118-0.514-1.677-1.543-1.677
					c-0.522,0-0.921,0.152-1.196,0.458s-0.414,0.738-0.414,1.297v3.678H29.311z"/>
				<path fill="#013270" d="M39.461,183.824c-0.164,0.275-0.399,0.503-0.704,0.682s-0.675,0.269-1.107,0.269
					c-0.395,0-0.743-0.076-1.045-0.229c-0.302-0.152-0.537-0.368-0.704-0.648c-0.167-0.279-0.251-0.605-0.251-0.978
					c0-0.537,0.185-0.965,0.553-1.286c0.369-0.32,0.896-0.48,1.582-0.48h1.666v-0.76c0-0.783-0.455-1.174-1.364-1.174
					c-0.82,0-1.274,0.339-1.364,1.017h-0.838c0.03-0.551,0.235-0.987,0.615-1.308s0.924-0.48,1.632-0.48
					c0.343,0,0.646,0.037,0.911,0.111c0.264,0.075,0.494,0.19,0.688,0.347c0.194,0.157,0.341,0.36,0.442,0.609
					c0.101,0.25,0.151,0.539,0.151,0.866v4.293h-0.838v-0.85H39.461z M37.852,184.025c0.454,0,0.834-0.138,1.14-0.413
					c0.305-0.276,0.458-0.619,0.458-1.029v-0.704h-1.643c-0.425,0-0.743,0.094-0.956,0.279c-0.212,0.187-0.318,0.437-0.318,0.749
					c0,0.358,0.126,0.634,0.38,0.827C37.166,183.929,37.479,184.025,37.852,184.025z"/>
				<path fill="#013270" d="M42.412,178.548v-1.543h0.861v1.543h1.263v0.727h-1.263v3.768c0,0.372,0.073,0.624,0.218,0.754
					c0.145,0.131,0.415,0.196,0.811,0.196c0.134,0,0.231-0.004,0.291-0.012v0.704c-0.134,0.03-0.298,0.045-0.492,0.045
					c-0.35,0-0.637-0.033-0.861-0.101c-0.224-0.066-0.395-0.177-0.514-0.329c-0.119-0.153-0.201-0.33-0.246-0.531
					s-0.067-0.459-0.067-0.771v-3.723h-0.861v-0.727H42.412z"/>
				<path fill="#013270" d="M45.911,177.039c0-0.164,0.056-0.302,0.168-0.414c0.112-0.111,0.25-0.168,0.414-0.168
					c0.164,0,0.304,0.057,0.419,0.168c0.115,0.112,0.173,0.25,0.173,0.414c0,0.171-0.058,0.312-0.173,0.425
					c-0.116,0.111-0.255,0.167-0.419,0.167c-0.164,0-0.302-0.056-0.414-0.167C45.967,177.352,45.911,177.21,45.911,177.039z
					 M46.068,184.674v-6.126h0.861v6.126H46.068z"/>
				<path fill="#013270" d="M51.221,178.447c0.85,0,1.492,0.259,1.928,0.777c0.436,0.518,0.654,1.22,0.654,2.106v0.548
					c0,0.887-0.218,1.592-0.654,2.113c-0.436,0.521-1.079,0.782-1.928,0.782s-1.494-0.259-1.934-0.777
					c-0.44-0.518-0.66-1.224-0.66-2.118v-0.548c0-0.864,0.22-1.561,0.66-2.09C49.727,178.712,50.372,178.447,51.221,178.447z
					 M51.221,179.207c-0.596,0-1.036,0.205-1.319,0.615s-0.425,0.946-0.425,1.609v0.358c0,0.67,0.14,1.207,0.419,1.609
					s0.721,0.604,1.325,0.604c0.596,0,1.032-0.201,1.308-0.604s0.414-0.939,0.414-1.609v-0.358c0-0.663-0.138-1.199-0.414-1.609
					S51.817,179.207,51.221,179.207z"/>
				<path fill="#013270" d="M55.357,184.674v-6.126h0.861v0.827h0.022c0.126-0.261,0.346-0.48,0.659-0.659s0.689-0.269,1.129-0.269
					c0.633,0,1.161,0.19,1.582,0.57c0.421,0.38,0.632,0.905,0.632,1.576v4.08h-0.872v-3.756c0-1.118-0.514-1.677-1.543-1.677
					c-0.522,0-0.921,0.152-1.196,0.458s-0.414,0.738-0.414,1.297v3.678H55.357z"/>
				<path fill="#013270" d="M75.512,181.778H63.529v-0.771h11.984V181.778z"/>
				<path fill="#013270" d="M80.263,180.951v-0.782h0.76c0.484,0,0.878-0.14,1.179-0.419c0.302-0.28,0.449-0.632,0.442-1.057
					c0-0.418-0.142-0.757-0.425-1.018c-0.283-0.261-0.664-0.392-1.14-0.392c-0.492,0-0.865,0.139-1.118,0.414
					s-0.395,0.593-0.425,0.95h-0.838c0-0.253,0.052-0.503,0.156-0.749c0.104-0.246,0.25-0.474,0.436-0.682
					c0.186-0.209,0.436-0.378,0.749-0.509s0.659-0.195,1.04-0.195c0.73,0,1.319,0.193,1.766,0.581
					c0.447,0.388,0.678,0.872,0.693,1.453c0.015,0.529-0.136,0.975-0.453,1.336c-0.317,0.361-0.658,0.572-1.023,0.632v0.011
					c0.141,0.015,0.291,0.049,0.447,0.101c0.156,0.053,0.315,0.133,0.475,0.24c0.16,0.108,0.302,0.233,0.425,0.375
					s0.225,0.32,0.307,0.536c0.082,0.217,0.127,0.447,0.134,0.693c0.007,0.686-0.251,1.254-0.777,1.705
					c-0.525,0.45-1.198,0.676-2.018,0.676c-0.805,0-1.427-0.208-1.867-0.626c-0.44-0.417-0.675-0.946-0.704-1.587h0.838
					c0.052,0.425,0.225,0.771,0.52,1.039c0.294,0.269,0.71,0.402,1.246,0.402c0.581,0,1.04-0.148,1.375-0.447
					c0.335-0.298,0.499-0.682,0.492-1.151c-0.008-0.469-0.179-0.842-0.514-1.117c-0.335-0.276-0.79-0.414-1.364-0.414H80.263z"/>
				<path fill="#013270" d="M86.803,180.951v-0.782h0.76c0.484,0,0.878-0.14,1.179-0.419c0.302-0.28,0.449-0.632,0.442-1.057
					c0-0.418-0.142-0.757-0.425-1.018c-0.283-0.261-0.664-0.392-1.14-0.392c-0.492,0-0.865,0.139-1.118,0.414
					s-0.395,0.593-0.425,0.95h-0.838c0-0.253,0.052-0.503,0.156-0.749c0.104-0.246,0.25-0.474,0.436-0.682
					c0.186-0.209,0.436-0.378,0.749-0.509s0.659-0.195,1.04-0.195c0.73,0,1.319,0.193,1.766,0.581
					c0.447,0.388,0.678,0.872,0.693,1.453c0.015,0.529-0.136,0.975-0.453,1.336c-0.317,0.361-0.658,0.572-1.023,0.632v0.011
					c0.141,0.015,0.291,0.049,0.447,0.101c0.156,0.053,0.315,0.133,0.475,0.24c0.16,0.108,0.302,0.233,0.425,0.375
					s0.225,0.32,0.307,0.536c0.082,0.217,0.127,0.447,0.134,0.693c0.007,0.686-0.251,1.254-0.777,1.705
					c-0.525,0.45-1.198,0.676-2.018,0.676c-0.805,0-1.427-0.208-1.867-0.626c-0.44-0.417-0.675-0.946-0.704-1.587h0.838
					c0.052,0.425,0.225,0.771,0.52,1.039c0.294,0.269,0.71,0.402,1.246,0.402c0.581,0,1.04-0.148,1.375-0.447
					c0.335-0.298,0.499-0.682,0.492-1.151c-0.008-0.469-0.179-0.842-0.514-1.117c-0.335-0.276-0.79-0.414-1.364-0.414H86.803z"/>
			</g>
			<rect x="0.048" y="188.005" fill="#022A56" width="12.794" height="8"/>
		</g>
		<g>
			<g>
				<path fill="#013270" d="M0.392,138.585h0.883c0.015,0.201,0.071,0.39,0.168,0.564c0.097,0.175,0.227,0.332,0.391,0.47
					c0.164,0.138,0.375,0.248,0.632,0.33c0.257,0.082,0.542,0.123,0.855,0.123c0.581,0,1.047-0.134,1.397-0.402
					c0.35-0.269,0.525-0.63,0.525-1.084c0-0.358-0.112-0.643-0.335-0.855s-0.574-0.382-1.051-0.509l-1.386-0.369
					c-0.246-0.067-0.473-0.154-0.682-0.263c-0.209-0.108-0.402-0.242-0.581-0.402c-0.179-0.16-0.319-0.359-0.419-0.598
					c-0.101-0.238-0.151-0.506-0.151-0.805c0-0.35,0.074-0.671,0.224-0.961c0.149-0.291,0.35-0.529,0.604-0.715
					c0.253-0.187,0.54-0.33,0.861-0.431c0.32-0.101,0.66-0.151,1.017-0.151c0.268,0,0.531,0.028,0.788,0.084
					c0.257,0.056,0.501,0.144,0.732,0.263s0.432,0.265,0.604,0.436c0.171,0.171,0.309,0.38,0.414,0.626
					c0.104,0.246,0.16,0.518,0.168,0.816H5.176c-0.037-0.417-0.214-0.76-0.531-1.028c-0.317-0.269-0.758-0.402-1.325-0.402
					c-0.537,0-0.971,0.125-1.302,0.375c-0.332,0.25-0.498,0.594-0.498,1.034c0,0.641,0.395,1.066,1.185,1.274l1.353,0.369
					c0.335,0.089,0.622,0.19,0.861,0.302s0.453,0.251,0.643,0.419c0.19,0.167,0.333,0.371,0.43,0.609
					c0.097,0.239,0.145,0.511,0.145,0.816c0,0.745-0.276,1.323-0.827,1.732c-0.552,0.41-1.252,0.615-2.102,0.615
					c-0.492,0-0.926-0.071-1.302-0.212c-0.376-0.141-0.669-0.328-0.877-0.559c-0.209-0.231-0.365-0.473-0.47-0.727
					C0.455,139.114,0.399,138.853,0.392,138.585z"/>
				<path fill="#013270" d="M12.442,134.572v6.126h-0.861v-0.838h-0.034c-0.119,0.276-0.332,0.501-0.637,0.676
					s-0.693,0.263-1.163,0.263c-0.648,0-1.172-0.183-1.571-0.548c-0.399-0.365-0.598-0.89-0.598-1.576v-4.103H8.44v3.856
					c0,0.373,0.069,0.68,0.207,0.922s0.319,0.412,0.542,0.509s0.484,0.146,0.782,0.146c0.484,0,0.874-0.147,1.168-0.442
					s0.442-0.691,0.442-1.19v-3.801H12.442z"/>
				<path fill="#013270" d="M13.985,136.282c0-0.589,0.212-1.038,0.637-1.347c0.425-0.309,0.95-0.464,1.576-0.464
					c0.693,0,1.222,0.173,1.587,0.52c0.365,0.347,0.548,0.777,0.548,1.292h-0.805c-0.008-0.134-0.035-0.261-0.084-0.38
					c-0.049-0.119-0.123-0.234-0.224-0.346s-0.242-0.203-0.425-0.274s-0.393-0.106-0.632-0.106c-0.395,0-0.716,0.091-0.961,0.274
					s-0.369,0.431-0.369,0.744c0,0.142,0.03,0.266,0.089,0.375c0.06,0.108,0.127,0.194,0.201,0.257
					c0.074,0.063,0.188,0.123,0.341,0.179c0.153,0.056,0.278,0.095,0.375,0.118c0.097,0.022,0.242,0.052,0.436,0.089
					c0.037,0.007,0.063,0.011,0.078,0.011c0.261,0.052,0.482,0.101,0.665,0.145c0.182,0.045,0.375,0.112,0.576,0.202
					c0.201,0.089,0.361,0.19,0.481,0.302c0.119,0.112,0.218,0.257,0.296,0.436c0.078,0.179,0.117,0.384,0.117,0.615
					c0,0.395-0.103,0.736-0.307,1.023c-0.205,0.287-0.485,0.501-0.838,0.643c-0.354,0.142-0.762,0.212-1.224,0.212
					c-0.678,0-1.222-0.156-1.632-0.47c-0.41-0.313-0.615-0.734-0.615-1.263h0.838c0.045,0.306,0.188,0.552,0.43,0.738
					c0.242,0.187,0.579,0.28,1.012,0.28c0.484,0,0.853-0.097,1.107-0.291s0.38-0.451,0.38-0.771c0-0.119-0.017-0.226-0.05-0.319
					c-0.033-0.093-0.091-0.173-0.173-0.24c-0.082-0.067-0.16-0.125-0.235-0.173c-0.075-0.048-0.185-0.093-0.33-0.134
					s-0.267-0.073-0.363-0.095c-0.097-0.022-0.239-0.052-0.425-0.089c-0.231-0.052-0.417-0.097-0.559-0.134
					c-0.142-0.037-0.304-0.085-0.486-0.146c-0.183-0.06-0.328-0.128-0.436-0.207c-0.108-0.078-0.212-0.173-0.313-0.285
					s-0.173-0.244-0.218-0.397C14.007,136.65,13.985,136.476,13.985,136.282z"/>
				<path fill="#013270" d="M22.682,140.798c-0.865,0-1.472-0.317-1.822-0.95h-0.022v2.974h-0.861v-8.261h0.827v0.883h0.022
					c0.074-0.179,0.19-0.339,0.347-0.481s0.369-0.259,0.637-0.352s0.57-0.14,0.906-0.14c0.7,0,1.269,0.244,1.705,0.732
					c0.436,0.488,0.654,1.15,0.654,1.984v0.906c0,0.842-0.22,1.503-0.659,1.984C23.975,140.558,23.397,140.798,22.682,140.798z
					 M22.559,140.027c0.499,0,0.9-0.179,1.202-0.537c0.302-0.357,0.453-0.872,0.453-1.542v-0.648c0-0.656-0.149-1.164-0.447-1.526
					c-0.298-0.361-0.708-0.542-1.23-0.542c-0.522,0-0.935,0.184-1.241,0.553c-0.306,0.369-0.458,0.844-0.458,1.425v0.805
					c0,0.365,0.067,0.699,0.201,1c0.134,0.302,0.333,0.546,0.598,0.732C21.901,139.934,22.209,140.027,22.559,140.027z"/>
				<path fill="#013270" d="M28.886,140.798c-0.835,0-1.47-0.259-1.906-0.777s-0.654-1.206-0.654-2.062v-0.582
					c0-0.574,0.089-1.075,0.268-1.503c0.179-0.428,0.457-0.77,0.833-1.023c0.376-0.253,0.837-0.38,1.381-0.38
					c0.812,0,1.429,0.261,1.85,0.782c0.421,0.522,0.632,1.226,0.632,2.113v0.481h-4.103v0.167c0,0.373,0.058,0.707,0.173,1
					c0.115,0.295,0.303,0.537,0.564,0.727c0.261,0.19,0.577,0.285,0.95,0.285c0.425,0,0.751-0.093,0.978-0.279
					c0.227-0.186,0.375-0.414,0.442-0.682H31.2c-0.037,0.209-0.106,0.408-0.207,0.598s-0.239,0.373-0.414,0.548
					c-0.175,0.175-0.41,0.317-0.704,0.425S29.251,140.798,28.886,140.798z M27.187,137.109h3.231v-0.022
					c0-0.365-0.063-0.688-0.19-0.967c-0.127-0.28-0.313-0.498-0.559-0.654c-0.246-0.156-0.533-0.234-0.861-0.234
					c-0.499,0-0.894,0.171-1.185,0.514c-0.291,0.343-0.436,0.79-0.436,1.341V137.109z"/>
				<path fill="#013270" d="M32.799,140.698v-6.126h0.861v0.827h0.022c0.126-0.261,0.346-0.48,0.659-0.66
					c0.313-0.179,0.689-0.268,1.129-0.268c0.633,0,1.161,0.19,1.582,0.57c0.421,0.38,0.632,0.906,0.632,1.577v4.08h-0.872v-3.756
					c0-1.118-0.514-1.677-1.543-1.677c-0.522,0-0.921,0.153-1.196,0.458s-0.414,0.738-0.414,1.297v3.678H32.799z"/>
				<path fill="#013270" d="M39.193,136.282c0-0.589,0.212-1.038,0.637-1.347c0.425-0.309,0.95-0.464,1.576-0.464
					c0.693,0,1.222,0.173,1.587,0.52c0.365,0.347,0.548,0.777,0.548,1.292h-0.805c-0.008-0.134-0.035-0.261-0.084-0.38
					c-0.049-0.119-0.123-0.234-0.224-0.346s-0.242-0.203-0.425-0.274s-0.393-0.106-0.632-0.106c-0.395,0-0.716,0.091-0.961,0.274
					s-0.369,0.431-0.369,0.744c0,0.142,0.03,0.266,0.089,0.375c0.06,0.108,0.127,0.194,0.201,0.257
					c0.074,0.063,0.188,0.123,0.341,0.179c0.153,0.056,0.278,0.095,0.375,0.118c0.097,0.022,0.242,0.052,0.436,0.089
					c0.037,0.007,0.063,0.011,0.078,0.011c0.261,0.052,0.482,0.101,0.665,0.145c0.182,0.045,0.375,0.112,0.576,0.202
					c0.201,0.089,0.361,0.19,0.481,0.302c0.119,0.112,0.218,0.257,0.296,0.436c0.078,0.179,0.117,0.384,0.117,0.615
					c0,0.395-0.103,0.736-0.307,1.023c-0.205,0.287-0.485,0.501-0.838,0.643c-0.354,0.142-0.762,0.212-1.224,0.212
					c-0.678,0-1.222-0.156-1.632-0.47c-0.41-0.313-0.615-0.734-0.615-1.263h0.838c0.045,0.306,0.188,0.552,0.43,0.738
					c0.242,0.187,0.579,0.28,1.012,0.28c0.484,0,0.853-0.097,1.107-0.291s0.38-0.451,0.38-0.771c0-0.119-0.017-0.226-0.05-0.319
					c-0.033-0.093-0.091-0.173-0.173-0.24c-0.082-0.067-0.16-0.125-0.235-0.173c-0.075-0.048-0.185-0.093-0.33-0.134
					s-0.267-0.073-0.363-0.095c-0.097-0.022-0.239-0.052-0.425-0.089c-0.231-0.052-0.417-0.097-0.559-0.134
					c-0.142-0.037-0.304-0.085-0.486-0.146c-0.183-0.06-0.328-0.128-0.436-0.207c-0.108-0.078-0.212-0.173-0.313-0.285
					s-0.173-0.244-0.218-0.397C39.215,136.65,39.193,136.476,39.193,136.282z"/>
				<path fill="#013270" d="M45.185,133.063c0-0.164,0.056-0.302,0.168-0.414s0.25-0.167,0.414-0.167
					c0.164,0,0.304,0.056,0.419,0.167c0.115,0.112,0.173,0.25,0.173,0.414c0,0.171-0.058,0.313-0.173,0.425
					c-0.116,0.112-0.255,0.168-0.419,0.168c-0.164,0-0.302-0.056-0.414-0.168S45.185,133.234,45.185,133.063z M45.341,140.698
					v-6.126h0.861v6.126H45.341z"/>
				<path fill="#013270" d="M50.495,134.471c0.85,0,1.492,0.259,1.928,0.777c0.436,0.518,0.654,1.22,0.654,2.107v0.547
					c0,0.887-0.218,1.591-0.654,2.113c-0.436,0.522-1.079,0.783-1.928,0.783s-1.494-0.259-1.934-0.777
					c-0.44-0.518-0.66-1.224-0.66-2.119v-0.547c0-0.865,0.22-1.562,0.66-2.091C49,134.736,49.645,134.471,50.495,134.471z
					 M50.495,135.232c-0.596,0-1.036,0.205-1.319,0.615s-0.425,0.946-0.425,1.61v0.357c0,0.671,0.14,1.208,0.419,1.61
					s0.721,0.604,1.325,0.604c0.596,0,1.032-0.201,1.308-0.604s0.414-0.939,0.414-1.61v-0.357c0-0.664-0.138-1.2-0.414-1.61
					S51.091,135.232,50.495,135.232z"/>
				<path fill="#013270" d="M54.631,140.698v-6.126h0.861v0.827h0.022c0.126-0.261,0.346-0.48,0.659-0.66
					c0.313-0.179,0.689-0.268,1.129-0.268c0.633,0,1.161,0.19,1.582,0.57c0.421,0.38,0.632,0.906,0.632,1.577v4.08h-0.872v-3.756
					c0-1.118-0.514-1.677-1.543-1.677c-0.522,0-0.921,0.153-1.196,0.458s-0.414,0.738-0.414,1.297v3.678H54.631z"/>
				<path fill="#013270" d="M65.865,142.207c0.566,0,0.997-0.138,1.291-0.414c0.294-0.276,0.441-0.671,0.441-1.185v-0.984h-0.022
					c-0.127,0.276-0.35,0.513-0.671,0.71c-0.32,0.198-0.693,0.296-1.118,0.296c-0.701,0-1.282-0.239-1.744-0.716
					c-0.462-0.477-0.693-1.11-0.693-1.9v-0.894c0-0.79,0.231-1.429,0.693-1.917c0.462-0.488,1.047-0.732,1.755-0.732
					c0.872,0,1.476,0.324,1.811,0.973h0.022v-0.872h0.816v6.003c0,0.797-0.231,1.397-0.693,1.8s-1.103,0.604-1.923,0.604
					c-0.745,0-1.315-0.171-1.71-0.514s-0.607-0.756-0.637-1.241h0.906c0.03,0.268,0.169,0.499,0.419,0.693
					C65.058,142.11,65.411,142.207,65.865,142.207z M65.944,135.232c-0.529,0-0.952,0.184-1.269,0.553
					c-0.317,0.369-0.475,0.866-0.475,1.492v0.615c0,0.611,0.162,1.094,0.486,1.447c0.324,0.354,0.747,0.531,1.269,0.531
					c0.507,0,0.906-0.187,1.196-0.559c0.291-0.373,0.436-0.827,0.436-1.364v-0.682c0-0.574-0.149-1.056-0.447-1.447
					C66.842,135.427,66.443,135.232,65.944,135.232z"/>
				<path fill="#013270" d="M70.549,140.698v-6.126h0.849v0.76h0.022c0.037-0.075,0.073-0.14,0.106-0.196
					c0.033-0.056,0.08-0.121,0.14-0.196c0.06-0.074,0.127-0.136,0.201-0.184c0.074-0.048,0.164-0.095,0.268-0.14
					c0.104-0.044,0.227-0.078,0.369-0.101c0.141-0.022,0.298-0.033,0.469-0.033c0.097,0,0.223,0.007,0.38,0.022v0.793
					c-0.082-0.015-0.242-0.022-0.48-0.022c-0.514,0-0.889,0.14-1.124,0.419c-0.235,0.279-0.352,0.661-0.352,1.146v3.857H70.549z"/>
				<path fill="#013270" d="M76.709,140.798c-0.835,0-1.47-0.259-1.906-0.777s-0.654-1.206-0.654-2.062v-0.582
					c0-0.574,0.089-1.075,0.268-1.503c0.179-0.428,0.457-0.77,0.833-1.023c0.376-0.253,0.837-0.38,1.381-0.38
					c0.812,0,1.429,0.261,1.85,0.782c0.421,0.522,0.632,1.226,0.632,2.113v0.481h-4.103v0.167c0,0.373,0.058,0.707,0.173,1
					c0.115,0.295,0.303,0.537,0.564,0.727c0.261,0.19,0.577,0.285,0.95,0.285c0.425,0,0.751-0.093,0.978-0.279
					c0.227-0.186,0.375-0.414,0.442-0.682h0.906c-0.037,0.209-0.106,0.408-0.207,0.598s-0.239,0.373-0.414,0.548
					c-0.175,0.175-0.41,0.317-0.704,0.425S77.074,140.798,76.709,140.798z M75.009,137.109h3.231v-0.022
					c0-0.365-0.063-0.688-0.19-0.967c-0.127-0.28-0.313-0.498-0.559-0.654c-0.246-0.156-0.533-0.234-0.861-0.234
					c-0.499,0-0.894,0.171-1.185,0.514c-0.291,0.343-0.436,0.79-0.436,1.341V137.109z"/>
				<path fill="#013270" d="M84.075,139.848c-0.164,0.276-0.399,0.503-0.704,0.682c-0.306,0.179-0.675,0.268-1.107,0.268
					c-0.395,0-0.743-0.077-1.045-0.229c-0.302-0.153-0.537-0.369-0.704-0.648c-0.167-0.28-0.251-0.605-0.251-0.978
					c0-0.537,0.185-0.965,0.553-1.286s0.896-0.481,1.582-0.481h1.666v-0.76c0-0.782-0.455-1.173-1.364-1.173
					c-0.82,0-1.274,0.339-1.364,1.017h-0.838c0.03-0.551,0.235-0.987,0.615-1.308c0.38-0.32,0.924-0.48,1.632-0.48
					c0.343,0,0.646,0.037,0.911,0.112c0.264,0.075,0.494,0.19,0.688,0.347c0.194,0.156,0.341,0.359,0.442,0.609
					c0.101,0.25,0.151,0.539,0.151,0.867v4.292h-0.838v-0.85H84.075z M82.466,140.049c0.454,0,0.834-0.138,1.14-0.414
					c0.305-0.275,0.458-0.619,0.458-1.028v-0.705h-1.643c-0.425,0-0.743,0.093-0.956,0.28c-0.212,0.186-0.318,0.436-0.318,0.749
					c0,0.357,0.126,0.633,0.38,0.827S82.093,140.049,82.466,140.049z"/>
				<path fill="#013270" d="M87.026,134.572v-1.542h0.861v1.542h1.263v0.727h-1.263v3.767c0,0.373,0.073,0.625,0.218,0.755
					s0.415,0.195,0.811,0.195c0.134,0,0.231-0.003,0.291-0.011v0.704c-0.134,0.03-0.298,0.044-0.492,0.044
					c-0.35,0-0.637-0.033-0.861-0.101c-0.224-0.067-0.395-0.177-0.514-0.33s-0.201-0.33-0.246-0.531
					c-0.045-0.202-0.067-0.458-0.067-0.771v-3.723h-0.861v-0.727H87.026z"/>
				<path fill="#013270" d="M92.649,140.798c-0.835,0-1.47-0.259-1.906-0.777s-0.654-1.206-0.654-2.062v-0.582
					c0-0.574,0.089-1.075,0.268-1.503c0.179-0.428,0.457-0.77,0.833-1.023c0.376-0.253,0.837-0.38,1.381-0.38
					c0.812,0,1.429,0.261,1.85,0.782c0.421,0.522,0.632,1.226,0.632,2.113v0.481H90.95v0.167c0,0.373,0.058,0.707,0.173,1
					c0.115,0.295,0.303,0.537,0.564,0.727c0.261,0.19,0.577,0.285,0.95,0.285c0.425,0,0.751-0.093,0.978-0.279
					c0.227-0.186,0.375-0.414,0.442-0.682h0.906c-0.037,0.209-0.106,0.408-0.207,0.598s-0.239,0.373-0.414,0.548
					c-0.175,0.175-0.41,0.317-0.704,0.425S93.014,140.798,92.649,140.798z M90.95,137.109h3.231v-0.022
					c0-0.365-0.063-0.688-0.19-0.967c-0.127-0.28-0.313-0.498-0.559-0.654c-0.246-0.156-0.533-0.234-0.861-0.234
					c-0.499,0-0.894,0.171-1.185,0.514c-0.291,0.343-0.436,0.79-0.436,1.341V137.109z"/>
				<path fill="#013270" d="M96.662,140.698v-6.126h0.849v0.76h0.022c0.037-0.075,0.073-0.14,0.106-0.196
					c0.033-0.056,0.08-0.121,0.14-0.196c0.06-0.074,0.127-0.136,0.201-0.184c0.074-0.048,0.164-0.095,0.268-0.14
					c0.104-0.044,0.227-0.078,0.369-0.101c0.141-0.022,0.298-0.033,0.469-0.033c0.097,0,0.223,0.007,0.38,0.022v0.793
					c-0.082-0.015-0.242-0.022-0.48-0.022c-0.514,0-0.889,0.14-1.124,0.419c-0.235,0.279-0.352,0.661-0.352,1.146v3.857H96.662z"/>
				<path fill="#013270" d="M103.235,134.572v-1.542h0.861v1.542h1.263v0.727h-1.263v3.767c0,0.373,0.073,0.625,0.218,0.755
					s0.415,0.195,0.811,0.195c0.134,0,0.231-0.003,0.291-0.011v0.704c-0.134,0.03-0.298,0.044-0.492,0.044
					c-0.35,0-0.637-0.033-0.861-0.101c-0.224-0.067-0.395-0.177-0.514-0.33s-0.201-0.33-0.246-0.531
					c-0.045-0.202-0.067-0.458-0.067-0.771v-3.723h-0.861v-0.727H103.235z"/>
				<path fill="#013270" d="M106.745,140.698v-8.407h0.861v3.108h0.033c0.112-0.246,0.313-0.462,0.604-0.648
					c0.291-0.186,0.667-0.279,1.129-0.279c0.686,0,1.237,0.222,1.654,0.665c0.417,0.443,0.626,1.019,0.626,1.727v3.834h-0.861
					v-3.667c0-0.529-0.133-0.956-0.397-1.28c-0.265-0.324-0.646-0.486-1.146-0.486c-0.343,0-0.639,0.073-0.889,0.218
					c-0.25,0.145-0.438,0.352-0.565,0.62c-0.127,0.269-0.19,0.585-0.19,0.95v3.645H106.745z"/>
				<path fill="#013270" d="M116.929,139.848c-0.164,0.276-0.399,0.503-0.704,0.682c-0.306,0.179-0.675,0.268-1.107,0.268
					c-0.395,0-0.743-0.077-1.045-0.229c-0.302-0.153-0.537-0.369-0.704-0.648c-0.167-0.28-0.251-0.605-0.251-0.978
					c0-0.537,0.185-0.965,0.553-1.286s0.896-0.481,1.582-0.481h1.666v-0.76c0-0.782-0.455-1.173-1.364-1.173
					c-0.82,0-1.274,0.339-1.364,1.017h-0.838c0.03-0.551,0.235-0.987,0.615-1.308c0.38-0.32,0.924-0.48,1.632-0.48
					c0.343,0,0.646,0.037,0.911,0.112c0.264,0.075,0.494,0.19,0.688,0.347c0.194,0.156,0.341,0.359,0.442,0.609
					c0.101,0.25,0.151,0.539,0.151,0.867v4.292h-0.838v-0.85H116.929z M115.319,140.049c0.454,0,0.834-0.138,1.14-0.414
					c0.305-0.275,0.458-0.619,0.458-1.028v-0.705h-1.643c-0.425,0-0.743,0.093-0.956,0.28c-0.212,0.186-0.318,0.436-0.318,0.749
					c0,0.357,0.126,0.633,0.38,0.827S114.947,140.049,115.319,140.049z"/>
				<path fill="#013270" d="M119.612,140.698v-6.126h0.861v0.827h0.022c0.126-0.261,0.346-0.48,0.659-0.66
					c0.313-0.179,0.689-0.268,1.129-0.268c0.633,0,1.161,0.19,1.582,0.57c0.421,0.38,0.632,0.906,0.632,1.577v4.08h-0.872v-3.756
					c0-1.118-0.514-1.677-1.543-1.677c-0.522,0-0.921,0.153-1.196,0.458s-0.414,0.738-0.414,1.297v3.678H119.612z"/>
				<path fill="#013270" d="M131.215,140.698h-0.861V133.7h-0.011c-0.127,0.075-0.308,0.183-0.542,0.324
					c-0.235,0.142-0.479,0.292-0.732,0.453c-0.253,0.161-0.462,0.296-0.626,0.408v-0.961c0.618-0.439,1.278-0.842,1.979-1.208h0.794
					V140.698z"/>
				<path fill="#013270" d="M143.043,134.572l-1.643,6.126h-0.838l-1.476-4.874h-0.022l-1.442,4.874h-0.85l-1.733-6.126h0.973
					l1.174,4.963h0.045l1.431-4.963h0.816l1.465,4.963h0.045l1.196-4.963H143.043z"/>
				<path fill="#013270" d="M146.284,140.798c-0.835,0-1.47-0.259-1.906-0.777s-0.654-1.206-0.654-2.062v-0.582
					c0-0.574,0.089-1.075,0.268-1.503c0.179-0.428,0.457-0.77,0.833-1.023c0.376-0.253,0.837-0.38,1.381-0.38
					c0.812,0,1.429,0.261,1.85,0.782c0.421,0.522,0.632,1.226,0.632,2.113v0.481h-4.103v0.167c0,0.373,0.058,0.707,0.173,1
					c0.115,0.295,0.303,0.537,0.564,0.727c0.261,0.19,0.577,0.285,0.95,0.285c0.425,0,0.751-0.093,0.978-0.279
					c0.227-0.186,0.375-0.414,0.442-0.682h0.906c-0.037,0.209-0.106,0.408-0.207,0.598s-0.239,0.373-0.414,0.548
					c-0.175,0.175-0.41,0.317-0.704,0.425S146.649,140.798,146.284,140.798z M144.585,137.109h3.231v-0.022
					c0-0.365-0.063-0.688-0.19-0.967c-0.127-0.28-0.313-0.498-0.559-0.654c-0.246-0.156-0.533-0.234-0.861-0.234
					c-0.499,0-0.894,0.171-1.185,0.514c-0.291,0.343-0.436,0.79-0.436,1.341V137.109z"/>
				<path fill="#013270" d="M152.455,140.798c-0.835,0-1.47-0.259-1.906-0.777s-0.654-1.206-0.654-2.062v-0.582
					c0-0.574,0.089-1.075,0.268-1.503c0.179-0.428,0.457-0.77,0.833-1.023c0.376-0.253,0.837-0.38,1.381-0.38
					c0.812,0,1.429,0.261,1.85,0.782c0.421,0.522,0.632,1.226,0.632,2.113v0.481h-4.103v0.167c0,0.373,0.058,0.707,0.173,1
					c0.115,0.295,0.303,0.537,0.564,0.727c0.261,0.19,0.577,0.285,0.95,0.285c0.425,0,0.751-0.093,0.978-0.279
					c0.227-0.186,0.375-0.414,0.442-0.682h0.906c-0.037,0.209-0.106,0.408-0.207,0.598s-0.239,0.373-0.414,0.548
					c-0.175,0.175-0.41,0.317-0.704,0.425S152.82,140.798,152.455,140.798z M150.756,137.109h3.231v-0.022
					c0-0.365-0.063-0.688-0.19-0.967c-0.127-0.28-0.313-0.498-0.559-0.654c-0.246-0.156-0.533-0.234-0.861-0.234
					c-0.499,0-0.894,0.171-1.185,0.514c-0.291,0.343-0.436,0.79-0.436,1.341V137.109z"/>
				<path fill="#013270" d="M157.24,138.384v2.314h-0.861v-8.407h0.861v5.12h0.033l2.694-2.851h1.006l-2.482,2.661l2.638,3.477
					h-1.04l-2.225-2.929L157.24,138.384z"/>
				<path fill="#013270" d="M175.651,137.802h-11.984v-0.771h11.984V137.802z"/>
				<path fill="#013270" d="M179.619,134.862h-0.85v-0.034c0-0.626,0.22-1.164,0.66-1.615c0.44-0.451,1.04-0.676,1.8-0.676
					c0.291,0,0.564,0.036,0.822,0.106c0.257,0.071,0.482,0.171,0.677,0.302c0.194,0.13,0.361,0.285,0.503,0.464
					s0.248,0.38,0.319,0.604s0.106,0.455,0.106,0.693c0,0.194-0.028,0.386-0.084,0.576s-0.11,0.346-0.162,0.469
					c-0.052,0.123-0.156,0.292-0.313,0.509s-0.27,0.365-0.341,0.447s-0.214,0.253-0.43,0.514l-2.292,2.683v0.011h3.778v0.783h-4.997
					v-0.559l3.018-3.521c0.194-0.231,0.344-0.417,0.453-0.559c0.108-0.142,0.214-0.333,0.319-0.576
					c0.104-0.242,0.156-0.482,0.156-0.721c0-0.439-0.144-0.792-0.43-1.056s-0.658-0.397-1.112-0.397
					c-0.492,0-0.881,0.149-1.168,0.447c-0.287,0.298-0.43,0.656-0.43,1.073V134.862z"/>
				<path fill="#013270" d="M185.298,138.719h0.85c0.037,0.283,0.134,0.529,0.291,0.738s0.363,0.369,0.62,0.48
					s0.55,0.168,0.878,0.168c0.484,0,0.917-0.179,1.297-0.537c0.38-0.358,0.57-0.835,0.57-1.431c0-0.581-0.177-1.049-0.531-1.403
					s-0.792-0.531-1.313-0.531c-0.469,0-0.857,0.106-1.163,0.319s-0.525,0.471-0.659,0.777h-0.738l0.447-4.594h4.259v0.782h-3.51
					l-0.302,2.672h0.011c0.052-0.074,0.132-0.151,0.24-0.229c0.108-0.079,0.237-0.155,0.386-0.229
					c0.149-0.074,0.324-0.136,0.525-0.185c0.201-0.048,0.402-0.072,0.604-0.072c0.484,0,0.926,0.112,1.325,0.335
					c0.399,0.223,0.717,0.54,0.956,0.95c0.239,0.41,0.358,0.875,0.358,1.397c0,0.798-0.268,1.454-0.805,1.968
					s-1.207,0.771-2.012,0.771c-0.782,0-1.399-0.208-1.85-0.626C185.579,139.822,185.335,139.316,185.298,138.719z"/>
				<path fill="#013270" d="M195.348,132.716h1.274v5.478h1.073v0.782h-1.073v1.722h-0.838v-1.722h-3.879v-0.76
					c0.208-0.38,0.471-0.827,0.788-1.341c0.317-0.514,0.605-0.974,0.866-1.38s0.579-0.902,0.956-1.487
					C194.891,133.422,195.169,132.992,195.348,132.716z M192.81,138.194h2.973v-4.695h-0.011c-1.23,1.833-2.217,3.395-2.962,4.684
					V138.194z"/>
			</g>
			<rect x="0.048" y="144.028" fill="#013270" width="98.477" height="8"/>
		</g>
	</g>
</g>
<g id="Fonts" display="none">
</g>
<g id="Heights" display="none">
</g>
<g id="Widths" display="none">
</g>
</svg>
