<?xml version="1.0" encoding="utf-8"?>
<!-- Generator: Adobe Illustrator 19.1.0, SVG Export Plug-In . SVG Version: 6.00 Build 0)  -->
<!DOCTYPE svg PUBLIC "-//W3C//DTD SVG 1.1//EN" "http://www.w3.org/Graphics/SVG/1.1/DTD/svg11.dtd">
<svg version="1.1" id="Layer_1" xmlns="http://www.w3.org/2000/svg" xmlns:xlink="http://www.w3.org/1999/xlink" x="0px" y="0px"
	 width="309px" height="197.288px" viewBox="0 0 309 197.288" enable-background="new 0 0 309 197.288" xml:space="preserve">
<g>
	<rect x="0" y="1.283" opacity="0.5" fill="none" width="309" height="196.005"/>
	<g>
		<g>
			<rect x="223.671" y="28.112" fill="none" width="84.259" height="10.07"/>
			<path fill="#013270" d="M249.857,33.175v-1.229c0-1.11,0.285-1.986,0.855-2.627s1.332-0.961,2.286-0.961
				c0.969,0,1.734,0.318,2.297,0.955c0.563,0.638,0.844,1.515,0.844,2.633v1.229c0,1.111-0.283,1.974-0.85,2.588
				c-0.566,0.615-1.334,0.923-2.303,0.923c-0.969,0-1.733-0.308-2.292-0.923C250.137,35.148,249.857,34.286,249.857,33.175z
				 M250.718,31.945v1.241c0,0.439,0.058,0.835,0.173,1.185c0.115,0.351,0.276,0.636,0.48,0.855c0.205,0.22,0.443,0.386,0.716,0.497
				c0.272,0.112,0.572,0.168,0.9,0.168c0.686,0,1.237-0.23,1.655-0.693c0.417-0.462,0.626-1.133,0.626-2.012v-1.241
				c0-0.887-0.211-1.574-0.632-2.062s-0.971-0.732-1.649-0.732c-0.44,0-0.827,0.104-1.163,0.313s-0.604,0.525-0.805,0.95
				S250.718,31.35,250.718,31.945z"/>
			<path fill="#013270" d="M258.006,30.392v-1.543h0.861v1.543h1.263v0.727h-1.263v3.768c0,0.372,0.073,0.624,0.218,0.754
				c0.145,0.131,0.415,0.196,0.811,0.196c0.134,0,0.23-0.004,0.29-0.012v0.704c-0.134,0.03-0.298,0.045-0.492,0.045
				c-0.35,0-0.637-0.033-0.861-0.101c-0.224-0.066-0.395-0.177-0.514-0.329c-0.119-0.153-0.201-0.33-0.246-0.531
				c-0.045-0.201-0.067-0.459-0.067-0.771v-3.723h-0.86v-0.727H258.006z"/>
			<path fill="#013270" d="M261.516,36.518v-8.406h0.861v3.107h0.033c0.112-0.246,0.313-0.462,0.604-0.648
				c0.291-0.187,0.667-0.279,1.129-0.279c0.686,0,1.237,0.222,1.654,0.665s0.626,1.02,0.626,1.728v3.834h-0.861v-3.667
				c0-0.528-0.132-0.955-0.396-1.279c-0.265-0.324-0.646-0.486-1.146-0.486c-0.343,0-0.639,0.072-0.889,0.218
				s-0.438,0.352-0.565,0.62c-0.126,0.269-0.189,0.585-0.189,0.95v3.645H261.516z"/>
			<path fill="#013270" d="M270.504,36.618c-0.835,0-1.47-0.259-1.906-0.777c-0.436-0.518-0.654-1.205-0.654-2.062v-0.581
				c0-0.573,0.09-1.075,0.269-1.503c0.179-0.429,0.457-0.77,0.833-1.023c0.376-0.253,0.836-0.38,1.38-0.38
				c0.812,0,1.429,0.261,1.85,0.782s0.632,1.227,0.632,2.113v0.48h-4.103v0.168c0,0.372,0.058,0.706,0.173,1
				c0.116,0.295,0.304,0.537,0.564,0.727c0.261,0.19,0.578,0.285,0.95,0.285c0.425,0,0.751-0.093,0.979-0.279
				c0.227-0.187,0.374-0.414,0.441-0.682h0.905c-0.037,0.208-0.106,0.408-0.207,0.598c-0.101,0.19-0.239,0.373-0.414,0.548
				c-0.175,0.175-0.41,0.317-0.704,0.425C271.199,36.564,270.869,36.618,270.504,36.618z M268.805,32.929h3.23v-0.021
				c0-0.365-0.063-0.688-0.19-0.968c-0.126-0.279-0.312-0.497-0.559-0.653c-0.246-0.157-0.533-0.235-0.861-0.235
				c-0.5,0-0.894,0.172-1.185,0.515c-0.291,0.343-0.436,0.79-0.436,1.342V32.929z"/>
			<path fill="#013270" d="M274.517,36.518v-6.126h0.85v0.76h0.022c0.037-0.074,0.073-0.14,0.106-0.195
				c0.033-0.056,0.08-0.121,0.14-0.195s0.126-0.136,0.201-0.185c0.074-0.049,0.164-0.095,0.269-0.14
				c0.104-0.045,0.227-0.078,0.369-0.101c0.141-0.022,0.298-0.034,0.469-0.034c0.097,0,0.224,0.008,0.38,0.022v0.794
				c-0.082-0.015-0.242-0.022-0.48-0.022c-0.514,0-0.889,0.14-1.123,0.419c-0.235,0.28-0.353,0.662-0.353,1.146v3.856H274.517z"/>
			<path fill="#013270" d="M282.23,28.547h0.705c-0.142,0.156-0.282,0.357-0.42,0.604c-0.138,0.246-0.285,0.562-0.441,0.945
				c-0.156,0.384-0.283,0.846-0.38,1.386s-0.146,1.112-0.146,1.716c0,0.478,0.035,0.944,0.106,1.403
				c0.07,0.458,0.147,0.84,0.229,1.146s0.198,0.63,0.347,0.973s0.264,0.589,0.346,0.738c0.082,0.148,0.198,0.346,0.347,0.592h-0.737
				c-0.179-0.216-0.345-0.458-0.498-0.727c-0.152-0.269-0.309-0.6-0.469-0.995c-0.161-0.395-0.287-0.862-0.38-1.402
				c-0.093-0.54-0.14-1.112-0.14-1.716c0-0.5,0.034-0.966,0.101-1.397c0.067-0.433,0.147-0.8,0.24-1.102
				c0.094-0.302,0.214-0.6,0.363-0.895c0.149-0.294,0.283-0.525,0.403-0.692C281.925,28.955,282.066,28.764,282.23,28.547z"/>
			<path fill="#013270" d="M283.997,28.536h4.963v0.815l-3.287,7.166h-0.928l3.376-7.188v-0.011h-4.125V28.536z"/>
			<path fill="#013270" d="M290.301,34.584h0.883c0.038,0.335,0.2,0.639,0.486,0.911c0.287,0.271,0.677,0.407,1.168,0.407
				c0.648,0,1.149-0.298,1.503-0.894c0.354-0.597,0.535-1.438,0.542-2.526h-0.033c-0.134,0.35-0.384,0.643-0.749,0.877
				c-0.365,0.235-0.82,0.353-1.364,0.353c-0.328,0-0.639-0.058-0.933-0.174c-0.295-0.115-0.562-0.281-0.8-0.497
				s-0.429-0.495-0.57-0.839c-0.142-0.343-0.212-0.723-0.212-1.14c0-0.805,0.261-1.455,0.782-1.951
				c0.521-0.495,1.144-0.743,1.867-0.743c1.907,0,2.861,1.326,2.861,3.979c0,1.379-0.259,2.444-0.776,3.197
				c-0.519,0.753-1.239,1.129-2.163,1.129c-0.396,0-0.751-0.063-1.068-0.189c-0.317-0.127-0.574-0.293-0.771-0.498
				c-0.198-0.205-0.353-0.428-0.464-0.671C290.379,35.074,290.316,34.829,290.301,34.584z M294.762,31.096
				c0-0.417-0.084-0.776-0.251-1.079c-0.168-0.302-0.388-0.523-0.66-0.665s-0.58-0.212-0.922-0.212
				c-0.238,0-0.466,0.041-0.682,0.123c-0.217,0.082-0.412,0.199-0.587,0.352c-0.175,0.153-0.313,0.354-0.414,0.604
				c-0.101,0.249-0.15,0.527-0.15,0.832c0,0.611,0.173,1.081,0.52,1.409s0.773,0.491,1.28,0.491c0.506,0,0.944-0.175,1.313-0.525
				C294.577,32.076,294.762,31.633,294.762,31.096z"/>
			<path fill="#013270" d="M296.394,30.548v-0.156c0-0.552,0.143-1.012,0.43-1.381c0.287-0.369,0.673-0.553,1.157-0.553
				c0.477,0,0.859,0.184,1.146,0.553c0.287,0.369,0.43,0.837,0.43,1.403v0.156c0,0.552-0.144,1.014-0.43,1.387
				c-0.287,0.372-0.672,0.559-1.157,0.559c-0.485,0-0.869-0.187-1.151-0.559C296.535,31.584,296.394,31.114,296.394,30.548z
				 M297.668,36.518h-0.794l3.041-4.002l3.041-3.979h0.783l-3.03,3.979L297.668,36.518z M297.053,30.437v0.056
				c0,0.425,0.082,0.766,0.246,1.022c0.164,0.258,0.391,0.386,0.682,0.386c0.187,0,0.351-0.06,0.492-0.179s0.248-0.281,0.318-0.486
				s0.106-0.445,0.106-0.721v-0.056c0-0.418-0.08-0.753-0.24-1.007c-0.161-0.253-0.386-0.38-0.677-0.38
				c-0.298,0-0.527,0.129-0.688,0.386S297.053,30.041,297.053,30.437z M301.089,34.606v-0.157c0-0.551,0.141-1.013,0.425-1.386
				c0.283-0.373,0.667-0.56,1.151-0.56c0.484,0,0.87,0.187,1.157,0.56c0.287,0.373,0.431,0.838,0.431,1.397v0.156
				c0,0.365-0.062,0.695-0.185,0.989c-0.123,0.295-0.308,0.529-0.553,0.704c-0.246,0.176-0.533,0.263-0.861,0.263
				c-0.484,0-0.866-0.186-1.146-0.559C301.229,35.642,301.089,35.173,301.089,34.606z M301.749,34.494v0.056
				c0,0.276,0.033,0.519,0.101,0.727c0.067,0.209,0.171,0.375,0.313,0.498c0.141,0.123,0.309,0.185,0.503,0.185
				c0.186,0,0.35-0.06,0.492-0.18c0.142-0.118,0.25-0.282,0.324-0.491s0.112-0.447,0.112-0.716v-0.066
				c0-0.41-0.082-0.744-0.246-1.001c-0.164-0.257-0.392-0.386-0.682-0.386s-0.516,0.129-0.676,0.386S301.749,34.092,301.749,34.494z
				"/>
			<path fill="#013270" d="M304.901,28.547h0.682c0.224,0.276,0.406,0.527,0.548,0.755s0.3,0.531,0.475,0.911
				s0.307,0.821,0.397,1.324c0.089,0.503,0.134,1.061,0.134,1.672c0,1.975-0.499,3.588-1.498,4.84h-0.727
				c0.119-0.208,0.211-0.372,0.274-0.491c0.063-0.12,0.16-0.31,0.29-0.57c0.131-0.261,0.233-0.509,0.308-0.743
				c0.074-0.235,0.154-0.513,0.24-0.833s0.147-0.669,0.185-1.046c0.037-0.376,0.056-0.766,0.056-1.168
				c0-0.604-0.046-1.176-0.14-1.716c-0.093-0.54-0.218-1.002-0.374-1.386c-0.157-0.384-0.304-0.699-0.442-0.945
				S305.035,28.703,304.901,28.547z"/>
		</g>
		<g>
			<rect x="223.671" y="81.414" fill="none" width="84.259" height="10.07"/>
			<path fill="#013270" d="M252.741,86.477v-1.229c0-1.11,0.285-1.986,0.855-2.627c0.57-0.641,1.332-0.961,2.286-0.961
				c0.969,0,1.734,0.318,2.297,0.955c0.563,0.638,0.844,1.515,0.844,2.633v1.229c0,1.111-0.283,1.974-0.85,2.588
				c-0.566,0.615-1.334,0.923-2.303,0.923c-0.969,0-1.733-0.308-2.292-0.923C253.021,88.45,252.741,87.588,252.741,86.477z
				 M253.602,85.247v1.241c0,0.439,0.058,0.835,0.173,1.185c0.115,0.351,0.276,0.636,0.48,0.855c0.205,0.22,0.443,0.386,0.715,0.497
				c0.272,0.112,0.572,0.168,0.9,0.168c0.686,0,1.237-0.23,1.654-0.693c0.417-0.462,0.626-1.133,0.626-2.012v-1.241
				c0-0.887-0.211-1.574-0.632-2.062s-0.971-0.732-1.648-0.732c-0.44,0-0.827,0.104-1.163,0.313
				c-0.335,0.209-0.604,0.525-0.805,0.95S253.602,84.651,253.602,85.247z"/>
			<path fill="#013270" d="M260.89,83.693V82.15h0.861v1.543h1.263v0.727h-1.263v3.768c0,0.372,0.072,0.624,0.218,0.754
				c0.146,0.131,0.415,0.196,0.811,0.196c0.134,0,0.23-0.004,0.291-0.012v0.704c-0.134,0.03-0.298,0.045-0.492,0.045
				c-0.351,0-0.637-0.033-0.861-0.101c-0.224-0.066-0.395-0.177-0.514-0.329c-0.119-0.153-0.201-0.33-0.246-0.531
				s-0.067-0.459-0.067-0.771V84.42h-0.86v-0.727H260.89z"/>
			<path fill="#013270" d="M264.4,89.819v-8.406h0.861v3.107h0.033c0.112-0.246,0.313-0.462,0.604-0.648s0.667-0.279,1.129-0.279
				c0.686,0,1.236,0.222,1.654,0.665c0.417,0.443,0.626,1.02,0.626,1.728v3.834h-0.861v-3.667c0-0.528-0.132-0.955-0.397-1.279
				s-0.646-0.486-1.146-0.486c-0.343,0-0.64,0.072-0.889,0.218c-0.25,0.146-0.438,0.352-0.565,0.62s-0.19,0.585-0.19,0.95v3.645
				H264.4z"/>
			<path fill="#013270" d="M273.388,89.92c-0.835,0-1.47-0.259-1.906-0.777c-0.436-0.518-0.654-1.205-0.654-2.062v-0.581
				c0-0.573,0.089-1.075,0.268-1.503c0.179-0.429,0.457-0.77,0.833-1.023c0.376-0.253,0.837-0.38,1.381-0.38
				c0.812,0,1.429,0.261,1.85,0.782s0.632,1.227,0.632,2.113v0.48h-4.103v0.168c0,0.372,0.058,0.706,0.173,1
				c0.116,0.295,0.303,0.537,0.564,0.727c0.261,0.19,0.578,0.285,0.95,0.285c0.425,0,0.75-0.093,0.978-0.279
				s0.375-0.414,0.441-0.682h0.906c-0.038,0.208-0.106,0.408-0.207,0.598c-0.101,0.19-0.239,0.373-0.414,0.548
				c-0.175,0.175-0.41,0.317-0.704,0.425C274.083,89.866,273.753,89.92,273.388,89.92z M271.689,86.23h3.23v-0.021
				c0-0.365-0.063-0.688-0.19-0.968c-0.126-0.279-0.313-0.497-0.559-0.653c-0.246-0.157-0.533-0.235-0.86-0.235
				c-0.5,0-0.895,0.172-1.185,0.515s-0.436,0.79-0.436,1.342V86.23z"/>
			<path fill="#013270" d="M277.401,89.819v-6.126h0.849v0.76h0.022c0.037-0.074,0.073-0.14,0.106-0.195s0.08-0.121,0.14-0.195
				s0.127-0.136,0.201-0.185s0.164-0.095,0.269-0.14s0.227-0.078,0.369-0.101c0.141-0.022,0.298-0.034,0.469-0.034
				c0.097,0,0.223,0.008,0.38,0.022v0.794c-0.082-0.015-0.242-0.022-0.48-0.022c-0.514,0-0.889,0.14-1.124,0.419
				c-0.235,0.28-0.353,0.662-0.353,1.146v3.856H277.401z"/>
			<path fill="#013270" d="M282.711,81.849h0.704c-0.142,0.156-0.281,0.357-0.419,0.604s-0.285,0.562-0.441,0.945
				s-0.284,0.846-0.38,1.386s-0.145,1.112-0.145,1.716c0,0.478,0.035,0.944,0.106,1.403c0.071,0.458,0.147,0.84,0.229,1.146
				s0.197,0.63,0.347,0.973c0.148,0.343,0.264,0.589,0.346,0.738c0.082,0.148,0.198,0.346,0.347,0.592h-0.738
				c-0.179-0.216-0.345-0.458-0.498-0.727s-0.309-0.6-0.469-0.995c-0.161-0.395-0.287-0.862-0.38-1.402s-0.14-1.112-0.14-1.716
				c0-0.5,0.034-0.966,0.101-1.397c0.067-0.433,0.147-0.8,0.24-1.102s0.214-0.6,0.363-0.895c0.149-0.294,0.283-0.525,0.403-0.692
				C282.406,82.257,282.547,82.065,282.711,81.849z"/>
			<path fill="#013270" d="M287.06,81.838h1.274v5.478h1.073v0.782h-1.073v1.722h-0.838v-1.722h-3.879v-0.76
				c0.208-0.38,0.471-0.827,0.788-1.342c0.316-0.514,0.605-0.975,0.866-1.381s0.579-0.901,0.956-1.486
				C286.603,82.544,286.881,82.113,287.06,81.838z M284.522,87.315h2.974V82.62h-0.011c-1.23,1.833-2.218,3.395-2.963,4.684V87.315z
				"/>
			<path fill="#013270" d="M291.352,83.984h-0.85V83.95c0-0.626,0.22-1.164,0.66-1.615c0.439-0.451,1.039-0.676,1.8-0.676
				c0.29,0,0.564,0.035,0.821,0.105c0.257,0.071,0.482,0.172,0.677,0.302c0.193,0.131,0.361,0.285,0.503,0.464
				c0.142,0.18,0.248,0.381,0.318,0.604s0.106,0.454,0.106,0.692c0,0.194-0.028,0.386-0.084,0.576
				c-0.056,0.189-0.11,0.347-0.162,0.47c-0.052,0.123-0.156,0.292-0.313,0.508c-0.157,0.217-0.27,0.365-0.341,0.447
				c-0.07,0.082-0.214,0.254-0.43,0.515l-2.292,2.683v0.012h3.778v0.782h-4.997v-0.559l3.019-3.521
				c0.193-0.231,0.345-0.418,0.453-0.56c0.108-0.141,0.214-0.333,0.319-0.575c0.104-0.242,0.156-0.482,0.156-0.721
				c0-0.44-0.144-0.792-0.431-1.057c-0.287-0.265-0.657-0.397-1.112-0.397c-0.492,0-0.881,0.149-1.168,0.447
				c-0.287,0.299-0.431,0.656-0.431,1.073V83.984z"/>
			<path fill="#013270" d="M296.394,83.85v-0.156c0-0.552,0.144-1.012,0.43-1.381s0.672-0.553,1.157-0.553
				c0.477,0,0.859,0.184,1.146,0.553c0.287,0.369,0.43,0.837,0.43,1.403v0.156c0,0.552-0.144,1.014-0.43,1.387
				c-0.287,0.372-0.673,0.559-1.157,0.559s-0.868-0.187-1.151-0.559C296.536,84.886,296.394,84.416,296.394,83.85z M297.668,89.819
				h-0.794l3.041-4.002l3.041-3.979h0.783l-3.03,3.979L297.668,89.819z M297.053,83.738v0.056c0,0.425,0.082,0.766,0.246,1.022
				c0.164,0.258,0.392,0.386,0.682,0.386c0.186,0,0.35-0.06,0.492-0.179s0.248-0.281,0.318-0.486
				c0.071-0.205,0.106-0.445,0.106-0.721v-0.056c0-0.418-0.08-0.753-0.24-1.007c-0.16-0.253-0.386-0.38-0.676-0.38
				c-0.298,0-0.527,0.129-0.688,0.386C297.133,83.017,297.053,83.343,297.053,83.738z M301.089,87.908v-0.157
				c0-0.551,0.141-1.013,0.425-1.386c0.283-0.373,0.667-0.56,1.151-0.56c0.484,0,0.87,0.187,1.157,0.56s0.43,0.838,0.43,1.397v0.156
				c0,0.365-0.062,0.695-0.184,0.989c-0.123,0.295-0.308,0.529-0.553,0.704c-0.246,0.176-0.533,0.263-0.861,0.263
				c-0.484,0-0.866-0.186-1.146-0.559S301.089,88.475,301.089,87.908z M301.749,87.796v0.056c0,0.276,0.034,0.519,0.101,0.727
				c0.067,0.209,0.171,0.375,0.313,0.498c0.141,0.123,0.309,0.185,0.503,0.185c0.186,0,0.35-0.06,0.492-0.18
				c0.141-0.118,0.25-0.282,0.324-0.491c0.074-0.209,0.112-0.447,0.112-0.716v-0.066c0-0.41-0.082-0.744-0.246-1.001
				s-0.391-0.386-0.682-0.386c-0.291,0-0.517,0.129-0.677,0.386S301.749,87.394,301.749,87.796z"/>
			<path fill="#013270" d="M304.901,81.849h0.682c0.224,0.276,0.406,0.527,0.548,0.755s0.3,0.531,0.476,0.911
				c0.175,0.38,0.307,0.821,0.396,1.324s0.134,1.061,0.134,1.672c0,1.975-0.5,3.588-1.498,4.84h-0.727
				c0.119-0.208,0.21-0.372,0.274-0.491c0.063-0.12,0.16-0.31,0.291-0.57s0.233-0.509,0.307-0.743
				c0.075-0.235,0.155-0.513,0.241-0.833c0.085-0.32,0.147-0.669,0.184-1.046c0.038-0.376,0.056-0.766,0.056-1.168
				c0-0.604-0.046-1.176-0.14-1.716s-0.218-1.002-0.375-1.386s-0.304-0.699-0.441-0.945
				C305.171,82.206,305.035,82.005,304.901,81.849z"/>
		</g>
		<g>
			<rect x="3.04" y="17.543" fill="#73DCFE" width="64.027" height="5.081"/>
			<rect x="67.067" y="17.543" fill="#FF450A" width="240.863" height="5.081"/>
		</g>
		<g>
			<rect x="3.04" y="1.283" fill="none" width="142.569" height="10.7"/>
			<path d="M4.864,5.866v1.308c0,1.102,0.233,1.927,0.7,2.478s1.118,0.825,1.955,0.825c0.74,0,1.319-0.195,1.737-0.588
				C9.675,9.497,9.884,9.02,9.884,8.456h1.03c0,0.334-0.07,0.671-0.211,1.01c-0.141,0.34-0.343,0.656-0.608,0.952
				c-0.264,0.295-0.625,0.534-1.083,0.72c-0.458,0.185-0.969,0.277-1.533,0.277c-1.136,0-2.026-0.365-2.668-1.097
				c-0.644-0.73-0.965-1.774-0.965-3.131V5.866c0-1.365,0.326-2.422,0.978-3.171c0.652-0.748,1.542-1.123,2.669-1.123
				c0.37,0,0.718,0.044,1.044,0.133c0.326,0.088,0.612,0.207,0.858,0.356s0.467,0.326,0.661,0.528s0.352,0.421,0.476,0.654
				c0.123,0.233,0.215,0.473,0.277,0.72c0.062,0.246,0.092,0.493,0.092,0.739H9.884c0-0.264-0.053-0.523-0.159-0.779
				C9.62,3.669,9.47,3.436,9.276,3.224c-0.194-0.211-0.447-0.383-0.76-0.515C8.204,2.576,7.863,2.511,7.493,2.511
				c-0.811,0-1.451,0.288-1.922,0.865C5.099,3.953,4.864,4.783,4.864,5.866z"/>
			<path d="M15.433,3.858c1.004,0,1.764,0.306,2.278,0.918c0.516,0.612,0.773,1.442,0.773,2.49v0.647
				c0,1.048-0.258,1.881-0.773,2.497c-0.515,0.616-1.274,0.925-2.278,0.925c-1.004,0-1.767-0.307-2.286-0.918
				c-0.52-0.612-0.779-1.447-0.779-2.504V7.267c0-1.021,0.26-1.845,0.779-2.471C13.667,4.171,14.429,3.858,15.433,3.858z
				 M15.433,4.757c-0.705,0-1.225,0.242-1.56,0.727c-0.334,0.484-0.502,1.118-0.502,1.902v0.423c0,0.792,0.165,1.427,0.496,1.902
				s0.852,0.713,1.566,0.713c0.704,0,1.22-0.237,1.545-0.713s0.489-1.11,0.489-1.902V7.386c0-0.784-0.163-1.418-0.489-1.902
				S16.137,4.757,15.433,4.757z"/>
			<path d="M20.321,11.217v-7.24h1.018v0.912h0.053c0.123-0.282,0.348-0.524,0.674-0.727c0.326-0.203,0.718-0.304,1.176-0.304
				c1.092,0,1.792,0.4,2.101,1.202h0.04c0.07-0.167,0.169-0.319,0.297-0.456c0.127-0.137,0.282-0.262,0.462-0.377
				c0.18-0.114,0.396-0.204,0.647-0.271S27.31,3.858,27.6,3.858c0.758,0,1.354,0.218,1.791,0.653
				c0.436,0.437,0.654,1.028,0.654,1.777v4.928h-1.018V6.474c0-0.502-0.143-0.907-0.429-1.215c-0.287-0.309-0.689-0.463-1.209-0.463
				c-0.361,0-0.672,0.079-0.932,0.238c-0.26,0.158-0.454,0.372-0.581,0.641c-0.128,0.269-0.191,0.574-0.191,0.918v4.624h-1.018
				V6.593c0-0.388-0.064-0.716-0.191-0.984c-0.128-0.269-0.317-0.471-0.568-0.607s-0.548-0.205-0.892-0.205
				c-0.493,0-0.896,0.161-1.209,0.482s-0.469,0.76-0.469,1.314v4.624H20.321z"/>
			<path d="M35.395,11.336c-1.021,0-1.739-0.374-2.153-1.123h-0.026v3.514h-1.018V3.964h0.978v1.044h0.026
				c0.088-0.212,0.225-0.401,0.41-0.568c0.185-0.167,0.436-0.306,0.753-0.416c0.317-0.11,0.674-0.165,1.07-0.165
				c0.828,0,1.5,0.288,2.015,0.865c0.515,0.577,0.772,1.358,0.772,2.345v1.07c0,0.995-0.26,1.776-0.779,2.345
				S36.241,11.336,35.395,11.336z M35.25,10.424c0.59,0,1.063-0.211,1.42-0.634s0.535-1.03,0.535-1.823V7.2
				c0-0.774-0.176-1.376-0.529-1.803c-0.352-0.428-0.837-0.641-1.453-0.641s-1.105,0.218-1.466,0.653
				c-0.361,0.437-0.542,0.998-0.542,1.685v0.951c0,0.432,0.079,0.826,0.237,1.183c0.159,0.356,0.395,0.646,0.707,0.865
				C34.472,10.314,34.835,10.424,35.25,10.424z"/>
			<path d="M40.111,11.217V1.282h1.017v9.935H40.111z"/>
			<path d="M47.444,10.213c-0.194,0.326-0.472,0.595-0.833,0.806c-0.361,0.212-0.797,0.317-1.308,0.317
				c-0.467,0-0.878-0.091-1.235-0.271c-0.356-0.18-0.634-0.436-0.832-0.766s-0.297-0.716-0.297-1.156
				c0-0.634,0.218-1.141,0.654-1.52c0.436-0.378,1.059-0.567,1.87-0.567h1.968V6.157c0-0.925-0.537-1.388-1.611-1.388
				c-0.969,0-1.506,0.401-1.612,1.202h-0.991c0.035-0.651,0.278-1.167,0.727-1.546c0.449-0.378,1.092-0.567,1.929-0.567
				c0.405,0,0.764,0.044,1.076,0.132s0.584,0.225,0.812,0.409c0.229,0.186,0.403,0.426,0.522,0.721
				c0.119,0.295,0.178,0.636,0.178,1.023v5.073h-0.99v-1.004H47.444z M45.541,10.45c0.537,0,0.986-0.162,1.348-0.488
				C47.25,9.636,47.43,9.23,47.43,8.746V7.914h-1.942c-0.502,0-0.878,0.11-1.129,0.33c-0.251,0.221-0.377,0.516-0.377,0.886
				c0,0.422,0.15,0.748,0.449,0.978C44.731,10.336,45.101,10.45,45.541,10.45z"/>
			<path d="M50.614,2.193c0-0.193,0.066-0.356,0.198-0.488c0.132-0.133,0.295-0.198,0.489-0.198c0.193,0,0.358,0.065,0.495,0.198
				C51.933,1.837,52.001,2,52.001,2.193c0,0.203-0.068,0.37-0.205,0.502s-0.302,0.198-0.495,0.198c-0.194,0-0.357-0.066-0.489-0.198
				C50.68,2.563,50.614,2.396,50.614,2.193z M50.799,11.217v-7.24h1.017v7.24H50.799z"/>
			<path d="M54.181,11.217v-7.24h1.017v0.979h0.026c0.15-0.309,0.41-0.568,0.78-0.78c0.37-0.211,0.814-0.316,1.334-0.316
				c0.749,0,1.372,0.225,1.87,0.674s0.747,1.069,0.747,1.862v4.822h-1.031V6.777c0-1.32-0.608-1.981-1.823-1.981
				c-0.617,0-1.088,0.181-1.414,0.542S55.198,6.21,55.198,6.87v4.347H54.181z"/>
			<path d="M62.412,3.977V2.153h1.018v1.823h1.493v0.859h-1.493v4.452c0,0.44,0.086,0.737,0.257,0.892
				c0.172,0.154,0.491,0.231,0.958,0.231c0.159,0,0.273-0.005,0.344-0.014v0.833c-0.158,0.034-0.353,0.053-0.581,0.053
				c-0.414,0-0.753-0.04-1.018-0.119c-0.264-0.079-0.467-0.209-0.607-0.39c-0.141-0.181-0.238-0.39-0.291-0.628
				c-0.053-0.237-0.079-0.541-0.079-0.911V4.836h-1.018V3.977H62.412z"/>
			<path d="M66.19,5.998c0-0.695,0.251-1.227,0.753-1.592s1.123-0.548,1.863-0.548c0.819,0,1.444,0.204,1.876,0.614
				c0.431,0.409,0.647,0.918,0.647,1.525h-0.952c-0.009-0.158-0.042-0.308-0.099-0.449c-0.057-0.141-0.146-0.277-0.264-0.409
				s-0.286-0.24-0.502-0.324c-0.216-0.083-0.464-0.125-0.747-0.125c-0.467,0-0.846,0.107-1.136,0.323
				c-0.291,0.216-0.437,0.509-0.437,0.879c0,0.167,0.035,0.315,0.106,0.442c0.07,0.128,0.15,0.229,0.238,0.304
				c0.088,0.075,0.223,0.146,0.403,0.212c0.18,0.065,0.328,0.112,0.443,0.139c0.114,0.026,0.286,0.062,0.515,0.105
				c0.044,0.009,0.075,0.014,0.092,0.014c0.309,0.062,0.57,0.118,0.786,0.172c0.216,0.053,0.442,0.132,0.681,0.237
				c0.237,0.105,0.427,0.225,0.568,0.356c0.141,0.133,0.257,0.304,0.35,0.516c0.093,0.211,0.139,0.454,0.139,0.727
				c0,0.467-0.121,0.87-0.363,1.209s-0.572,0.592-0.991,0.76c-0.418,0.167-0.901,0.251-1.447,0.251
				c-0.802,0-1.444-0.186-1.929-0.555c-0.484-0.37-0.727-0.868-0.727-1.493h0.991c0.053,0.361,0.222,0.651,0.508,0.872
				c0.286,0.22,0.685,0.33,1.196,0.33c0.573,0,1.008-0.114,1.308-0.344c0.299-0.229,0.449-0.532,0.449-0.911
				c0-0.141-0.02-0.267-0.06-0.377c-0.04-0.109-0.108-0.205-0.205-0.284c-0.097-0.079-0.189-0.147-0.277-0.204
				c-0.088-0.058-0.218-0.11-0.39-0.159c-0.172-0.048-0.315-0.086-0.429-0.112c-0.115-0.026-0.282-0.062-0.502-0.105
				c-0.273-0.062-0.494-0.114-0.661-0.158c-0.167-0.044-0.359-0.102-0.575-0.172c-0.216-0.07-0.388-0.152-0.515-0.244
				c-0.128-0.093-0.251-0.205-0.37-0.337c-0.119-0.133-0.205-0.289-0.258-0.47C66.216,6.433,66.19,6.228,66.19,5.998z"/>
		</g>
		<g>
			<rect x="3.04" y="28.112" fill="none" width="84.259" height="10.07"/>
			<path fill="#FF450A" d="M6.126,36.518H5.343l-2.202-7.981h1.028l1.576,6.45h0.022l1.666-6.45h0.938l1.666,6.45h0.022l1.576-6.45
				h1.028l-2.202,7.981H9.669l-1.755-6.495H7.881L6.126,36.518z"/>
			<path fill="#FF450A" d="M13.694,36.518v-8.406h0.861v3.107h0.034c0.111-0.246,0.312-0.462,0.604-0.648
				c0.291-0.187,0.667-0.279,1.129-0.279c0.686,0,1.237,0.222,1.654,0.665c0.417,0.443,0.626,1.02,0.626,1.728v3.834h-0.86v-3.667
				c0-0.528-0.133-0.955-0.397-1.279c-0.265-0.324-0.646-0.486-1.146-0.486c-0.343,0-0.639,0.072-0.889,0.218
				c-0.25,0.146-0.438,0.352-0.564,0.62s-0.19,0.585-0.19,0.95v3.645H13.694z"/>
			<path fill="#FF450A" d="M20.423,28.883c0-0.164,0.056-0.302,0.168-0.414c0.111-0.111,0.25-0.168,0.413-0.168
				c0.164,0,0.304,0.057,0.42,0.168c0.115,0.112,0.173,0.25,0.173,0.414c0,0.171-0.058,0.312-0.173,0.425
				c-0.116,0.111-0.256,0.167-0.42,0.167c-0.164,0-0.302-0.056-0.413-0.167C20.479,29.195,20.423,29.054,20.423,28.883z
				 M20.58,36.518v-6.126h0.861v6.126H20.58z"/>
			<path fill="#FF450A" d="M23.71,30.392v-1.543h0.861v1.543h1.263v0.727h-1.263v3.768c0,0.372,0.073,0.624,0.218,0.754
				c0.146,0.131,0.416,0.196,0.811,0.196c0.134,0,0.231-0.004,0.291-0.012v0.704c-0.134,0.03-0.298,0.045-0.492,0.045
				c-0.351,0-0.637-0.033-0.86-0.101c-0.224-0.066-0.396-0.177-0.515-0.329c-0.119-0.153-0.201-0.33-0.246-0.531
				c-0.044-0.201-0.067-0.459-0.067-0.771v-3.723h-0.861v-0.727H23.71z"/>
			<path fill="#FF450A" d="M29.333,36.618c-0.834,0-1.47-0.259-1.906-0.777c-0.437-0.518-0.654-1.205-0.654-2.062v-0.581
				c0-0.573,0.089-1.075,0.269-1.503c0.179-0.429,0.456-0.77,0.833-1.023c0.376-0.253,0.836-0.38,1.38-0.38
				c0.812,0,1.429,0.261,1.851,0.782c0.421,0.521,0.631,1.227,0.631,2.113v0.48h-4.103v0.168c0,0.372,0.058,0.706,0.173,1
				c0.115,0.295,0.304,0.537,0.564,0.727c0.261,0.19,0.577,0.285,0.95,0.285c0.425,0,0.751-0.093,0.978-0.279
				s0.375-0.414,0.442-0.682h0.905c-0.037,0.208-0.106,0.408-0.207,0.598c-0.101,0.19-0.238,0.373-0.413,0.548
				c-0.176,0.175-0.41,0.317-0.705,0.425C30.028,36.564,29.698,36.618,29.333,36.618z M27.634,32.929h3.231v-0.021
				c0-0.365-0.063-0.688-0.19-0.968c-0.127-0.279-0.313-0.497-0.559-0.653c-0.246-0.157-0.533-0.235-0.861-0.235
				c-0.499,0-0.894,0.172-1.185,0.515c-0.291,0.343-0.436,0.79-0.436,1.342V32.929z"/>
			<path fill="#FF450A" d="M37.057,28.547h0.705c-0.142,0.156-0.282,0.357-0.419,0.604s-0.285,0.562-0.441,0.945
				s-0.283,0.846-0.38,1.386c-0.097,0.54-0.146,1.112-0.146,1.716c0,0.478,0.035,0.944,0.106,1.403
				c0.07,0.458,0.146,0.84,0.229,1.146s0.198,0.63,0.347,0.973c0.149,0.343,0.265,0.589,0.347,0.738
				c0.082,0.148,0.197,0.346,0.347,0.592h-0.738c-0.179-0.216-0.345-0.458-0.498-0.727c-0.153-0.269-0.31-0.6-0.47-0.995
				c-0.16-0.395-0.287-0.862-0.38-1.402c-0.093-0.54-0.14-1.112-0.14-1.716c0-0.5,0.033-0.966,0.101-1.397
				c0.067-0.433,0.147-0.8,0.24-1.102s0.214-0.6,0.363-0.895c0.149-0.294,0.283-0.525,0.402-0.692
				C36.751,28.955,36.893,28.764,37.057,28.547z"/>
			<path fill="#FF450A" d="M39.796,30.683h-0.85v-0.034c0-0.626,0.22-1.164,0.66-1.615s1.04-0.676,1.8-0.676
				c0.291,0,0.564,0.035,0.821,0.105c0.258,0.071,0.482,0.172,0.677,0.302c0.193,0.131,0.361,0.285,0.503,0.464
				c0.142,0.18,0.248,0.381,0.318,0.604c0.071,0.224,0.106,0.454,0.106,0.692c0,0.194-0.028,0.386-0.084,0.576
				c-0.056,0.189-0.11,0.347-0.162,0.47c-0.052,0.123-0.156,0.292-0.312,0.508c-0.157,0.217-0.271,0.365-0.341,0.447
				s-0.214,0.254-0.43,0.515l-2.292,2.683v0.012h3.778v0.782h-4.997v-0.559l3.018-3.521c0.194-0.231,0.345-0.418,0.453-0.56
				c0.107-0.141,0.214-0.333,0.318-0.575s0.156-0.482,0.156-0.721c0-0.44-0.144-0.792-0.43-1.057s-0.658-0.397-1.112-0.397
				c-0.492,0-0.881,0.149-1.168,0.447c-0.287,0.299-0.43,0.656-0.43,1.073V30.683z"/>
			<path fill="#FF450A" d="M48.09,36.518h-0.86V29.52h-0.011c-0.127,0.074-0.308,0.183-0.542,0.324
				c-0.234,0.142-0.479,0.293-0.732,0.453s-0.462,0.296-0.626,0.407v-0.961c0.619-0.439,1.278-0.842,1.979-1.207h0.793V36.518z"/>
			<path fill="#FF450A" d="M49.488,30.548v-0.156c0-0.552,0.144-1.012,0.431-1.381c0.287-0.369,0.672-0.553,1.157-0.553
				c0.477,0,0.858,0.184,1.146,0.553s0.431,0.837,0.431,1.403v0.156c0,0.552-0.144,1.014-0.431,1.387
				c-0.287,0.372-0.673,0.559-1.157,0.559s-0.868-0.187-1.151-0.559C49.629,31.584,49.488,31.114,49.488,30.548z M50.762,36.518
				h-0.793l3.041-4.002l3.041-3.979h0.782l-3.029,3.979L50.762,36.518z M50.147,30.437v0.056c0,0.425,0.082,0.766,0.246,1.022
				c0.164,0.258,0.392,0.386,0.683,0.386c0.186,0,0.35-0.06,0.491-0.179s0.248-0.281,0.319-0.486s0.106-0.445,0.106-0.721v-0.056
				c0-0.418-0.08-0.753-0.24-1.007c-0.16-0.253-0.386-0.38-0.676-0.38c-0.299,0-0.527,0.129-0.688,0.386
				C50.228,29.715,50.147,30.041,50.147,30.437z M54.183,34.606v-0.157c0-0.551,0.142-1.013,0.425-1.386s0.667-0.56,1.151-0.56
				s0.87,0.187,1.157,0.56c0.287,0.373,0.43,0.838,0.43,1.397v0.156c0,0.365-0.062,0.695-0.184,0.989
				c-0.123,0.295-0.308,0.529-0.554,0.704c-0.246,0.176-0.533,0.263-0.861,0.263c-0.484,0-0.866-0.186-1.146-0.559
				C54.323,35.642,54.183,35.173,54.183,34.606z M54.842,34.494v0.056c0,0.276,0.034,0.519,0.101,0.727
				c0.067,0.209,0.172,0.375,0.313,0.498s0.309,0.185,0.503,0.185c0.187,0,0.351-0.06,0.492-0.18
				c0.141-0.118,0.249-0.282,0.324-0.491c0.074-0.209,0.111-0.447,0.111-0.716v-0.066c0-0.41-0.082-0.744-0.246-1.001
				s-0.391-0.386-0.682-0.386c-0.291,0-0.516,0.129-0.676,0.386C54.922,33.762,54.842,34.092,54.842,34.494z"/>
			<path fill="#FF450A" d="M57.995,28.547h0.682c0.224,0.276,0.406,0.527,0.548,0.755c0.141,0.228,0.3,0.531,0.475,0.911
				c0.175,0.38,0.308,0.821,0.396,1.324c0.09,0.503,0.135,1.061,0.135,1.672c0,1.975-0.5,3.588-1.498,4.84h-0.727
				c0.119-0.208,0.21-0.372,0.273-0.491c0.063-0.12,0.16-0.31,0.291-0.57c0.13-0.261,0.232-0.509,0.307-0.743
				c0.075-0.235,0.155-0.513,0.241-0.833c0.085-0.32,0.146-0.669,0.184-1.046c0.038-0.376,0.056-0.766,0.056-1.168
				c0-0.604-0.047-1.176-0.14-1.716c-0.094-0.54-0.218-1.002-0.375-1.386c-0.156-0.384-0.304-0.699-0.441-0.945
				S58.129,28.703,57.995,28.547z"/>
		</g>
		<g>
			<g>
				<path d="M4.864,58.424v1.308c0,1.102,0.233,1.927,0.7,2.478s1.118,0.825,1.955,0.825c0.74,0,1.319-0.195,1.737-0.588
					c0.418-0.392,0.628-0.869,0.628-1.433h1.03c0,0.334-0.07,0.671-0.211,1.01c-0.141,0.34-0.343,0.656-0.608,0.952
					c-0.264,0.295-0.625,0.534-1.083,0.72c-0.458,0.185-0.969,0.277-1.533,0.277c-1.136,0-2.026-0.365-2.668-1.097
					c-0.644-0.73-0.965-1.774-0.965-3.131v-1.321c0-1.365,0.326-2.422,0.978-3.171c0.652-0.748,1.542-1.123,2.669-1.123
					c0.37,0,0.718,0.044,1.044,0.133c0.326,0.088,0.612,0.207,0.858,0.356s0.467,0.326,0.661,0.528s0.352,0.421,0.476,0.654
					c0.123,0.233,0.215,0.473,0.277,0.72c0.062,0.246,0.092,0.493,0.092,0.739H9.884c0-0.264-0.053-0.523-0.159-0.779
					c-0.106-0.255-0.255-0.488-0.449-0.7c-0.194-0.211-0.447-0.383-0.76-0.515c-0.313-0.133-0.654-0.198-1.024-0.198
					c-0.811,0-1.451,0.288-1.922,0.865C5.099,56.511,4.864,57.341,4.864,58.424z"/>
				<path d="M15.433,56.416c1.004,0,1.764,0.306,2.278,0.918c0.516,0.612,0.773,1.442,0.773,2.49v0.647
					c0,1.048-0.258,1.881-0.773,2.497c-0.515,0.616-1.274,0.925-2.278,0.925c-1.004,0-1.767-0.307-2.286-0.918
					c-0.52-0.612-0.779-1.447-0.779-2.504v-0.647c0-1.021,0.26-1.845,0.779-2.471C13.667,56.729,14.429,56.416,15.433,56.416z
					 M15.433,57.314c-0.705,0-1.225,0.242-1.56,0.727c-0.334,0.484-0.502,1.118-0.502,1.902v0.423c0,0.792,0.165,1.427,0.496,1.902
					s0.852,0.713,1.566,0.713c0.704,0,1.22-0.237,1.545-0.713s0.489-1.11,0.489-1.902v-0.423c0-0.784-0.163-1.418-0.489-1.902
					S16.137,57.314,15.433,57.314z"/>
				<path d="M20.321,63.774v-7.24h1.018v0.912h0.053c0.123-0.282,0.348-0.524,0.674-0.727c0.326-0.203,0.718-0.304,1.176-0.304
					c1.092,0,1.792,0.4,2.101,1.202h0.04c0.07-0.167,0.169-0.319,0.297-0.456c0.127-0.137,0.282-0.262,0.462-0.377
					c0.18-0.114,0.396-0.204,0.647-0.271s0.522-0.099,0.812-0.099c0.758,0,1.354,0.218,1.791,0.653
					c0.436,0.437,0.654,1.028,0.654,1.777v4.928h-1.018v-4.743c0-0.502-0.143-0.907-0.429-1.215
					c-0.287-0.309-0.689-0.463-1.209-0.463c-0.361,0-0.672,0.079-0.932,0.238c-0.26,0.158-0.454,0.372-0.581,0.641
					c-0.128,0.269-0.191,0.574-0.191,0.918v4.624h-1.018V59.15c0-0.388-0.064-0.716-0.191-0.984
					c-0.128-0.269-0.317-0.471-0.568-0.607s-0.548-0.205-0.892-0.205c-0.493,0-0.896,0.161-1.209,0.482s-0.469,0.76-0.469,1.314
					v4.624H20.321z"/>
				<path d="M35.395,63.894c-1.021,0-1.739-0.374-2.153-1.123h-0.026v3.514h-1.018v-9.763h0.978v1.044h0.026
					c0.088-0.212,0.225-0.401,0.41-0.568c0.185-0.167,0.436-0.306,0.753-0.416c0.317-0.11,0.674-0.165,1.07-0.165
					c0.828,0,1.5,0.288,2.015,0.865c0.515,0.577,0.772,1.358,0.772,2.345v1.07c0,0.995-0.26,1.776-0.779,2.345
					S36.241,63.894,35.395,63.894z M35.25,62.981c0.59,0,1.063-0.211,1.42-0.634s0.535-1.03,0.535-1.823v-0.767
					c0-0.774-0.176-1.376-0.529-1.803c-0.352-0.428-0.837-0.641-1.453-0.641s-1.105,0.218-1.466,0.653
					c-0.361,0.437-0.542,0.998-0.542,1.685v0.951c0,0.432,0.079,0.826,0.237,1.183c0.159,0.356,0.395,0.646,0.707,0.865
					C34.472,62.872,34.835,62.981,35.25,62.981z"/>
				<path d="M40.111,63.774V53.84h1.017v9.935H40.111z"/>
				<path d="M47.444,62.771c-0.194,0.326-0.472,0.595-0.833,0.806c-0.361,0.212-0.797,0.317-1.308,0.317
					c-0.467,0-0.878-0.091-1.235-0.271c-0.356-0.18-0.634-0.436-0.832-0.766s-0.297-0.716-0.297-1.156
					c0-0.634,0.218-1.141,0.654-1.52c0.436-0.378,1.059-0.567,1.87-0.567h1.968v-0.898c0-0.925-0.537-1.388-1.611-1.388
					c-0.969,0-1.506,0.401-1.612,1.202h-0.991c0.035-0.651,0.278-1.167,0.727-1.546c0.449-0.378,1.092-0.567,1.929-0.567
					c0.405,0,0.764,0.044,1.076,0.132s0.584,0.225,0.812,0.409c0.229,0.186,0.403,0.426,0.522,0.721
					c0.119,0.295,0.178,0.636,0.178,1.023v5.073h-0.99v-1.004H47.444z M45.541,63.008c0.537,0,0.986-0.162,1.348-0.488
					c0.361-0.326,0.542-0.731,0.542-1.216v-0.832h-1.942c-0.502,0-0.878,0.11-1.129,0.33c-0.251,0.221-0.377,0.516-0.377,0.886
					c0,0.422,0.15,0.748,0.449,0.978C44.731,62.894,45.101,63.008,45.541,63.008z"/>
				<path d="M50.614,54.751c0-0.193,0.066-0.356,0.198-0.488c0.132-0.133,0.295-0.198,0.489-0.198c0.193,0,0.358,0.065,0.495,0.198
					c0.137,0.132,0.205,0.295,0.205,0.488c0,0.203-0.068,0.37-0.205,0.502s-0.302,0.198-0.495,0.198
					c-0.194,0-0.357-0.066-0.489-0.198C50.68,55.121,50.614,54.954,50.614,54.751z M50.799,63.774v-7.24h1.017v7.24H50.799z"/>
				<path d="M54.181,63.774v-7.24h1.017v0.979h0.026c0.15-0.309,0.41-0.568,0.78-0.78c0.37-0.211,0.814-0.316,1.334-0.316
					c0.749,0,1.372,0.225,1.87,0.674s0.747,1.069,0.747,1.862v4.822h-1.031v-4.439c0-1.32-0.608-1.981-1.823-1.981
					c-0.617,0-1.088,0.181-1.414,0.542s-0.489,0.872-0.489,1.532v4.347H54.181z"/>
				<path d="M62.412,56.534v-1.823h1.018v1.823h1.493v0.859h-1.493v4.452c0,0.44,0.086,0.737,0.257,0.892
					c0.172,0.154,0.491,0.231,0.958,0.231c0.159,0,0.273-0.005,0.344-0.014v0.833c-0.158,0.034-0.353,0.053-0.581,0.053
					c-0.414,0-0.753-0.04-1.018-0.119c-0.264-0.079-0.467-0.209-0.607-0.39c-0.141-0.181-0.238-0.39-0.291-0.628
					c-0.053-0.237-0.079-0.541-0.079-0.911v-4.399h-1.018v-0.859H62.412z"/>
				<path d="M66.19,58.556c0-0.695,0.251-1.227,0.753-1.592s1.123-0.548,1.863-0.548c0.819,0,1.444,0.204,1.876,0.614
					c0.431,0.409,0.647,0.918,0.647,1.525h-0.952c-0.009-0.158-0.042-0.308-0.099-0.449c-0.057-0.141-0.146-0.277-0.264-0.409
					s-0.286-0.24-0.502-0.324c-0.216-0.083-0.464-0.125-0.747-0.125c-0.467,0-0.846,0.107-1.136,0.323
					c-0.291,0.216-0.437,0.509-0.437,0.879c0,0.167,0.035,0.315,0.106,0.442c0.07,0.128,0.15,0.229,0.238,0.304
					c0.088,0.075,0.223,0.146,0.403,0.212c0.18,0.065,0.328,0.112,0.443,0.139c0.114,0.026,0.286,0.062,0.515,0.105
					c0.044,0.009,0.075,0.014,0.092,0.014c0.309,0.062,0.57,0.118,0.786,0.172c0.216,0.053,0.442,0.132,0.681,0.237
					c0.237,0.105,0.427,0.225,0.568,0.356c0.141,0.133,0.257,0.304,0.35,0.516c0.093,0.211,0.139,0.454,0.139,0.727
					c0,0.467-0.121,0.87-0.363,1.209s-0.572,0.592-0.991,0.76c-0.418,0.167-0.901,0.251-1.447,0.251
					c-0.802,0-1.444-0.186-1.929-0.555c-0.484-0.37-0.727-0.868-0.727-1.493h0.991c0.053,0.361,0.222,0.651,0.508,0.872
					c0.286,0.22,0.685,0.33,1.196,0.33c0.573,0,1.008-0.114,1.308-0.344c0.299-0.229,0.449-0.532,0.449-0.911
					c0-0.141-0.02-0.267-0.06-0.377c-0.04-0.109-0.108-0.205-0.205-0.284c-0.097-0.079-0.189-0.147-0.277-0.204
					c-0.088-0.058-0.218-0.11-0.39-0.159c-0.172-0.048-0.315-0.086-0.429-0.112c-0.115-0.026-0.282-0.062-0.502-0.105
					c-0.273-0.062-0.494-0.114-0.661-0.158c-0.167-0.044-0.359-0.102-0.575-0.172c-0.216-0.07-0.388-0.152-0.515-0.244
					c-0.128-0.093-0.251-0.205-0.37-0.337c-0.119-0.133-0.205-0.289-0.258-0.47C66.216,58.99,66.19,58.785,66.19,58.556z"/>
				<path d="M76.23,63.774v-7.24h1.004v0.898h0.026c0.044-0.088,0.086-0.165,0.125-0.23c0.04-0.066,0.095-0.144,0.166-0.231
					c0.07-0.088,0.15-0.161,0.238-0.218c0.088-0.058,0.193-0.112,0.317-0.165c0.123-0.054,0.269-0.093,0.436-0.119
					s0.353-0.04,0.555-0.04c0.115,0,0.265,0.009,0.449,0.026v0.938c-0.097-0.018-0.286-0.026-0.568-0.026
					c-0.608,0-1.05,0.165-1.328,0.495s-0.416,0.782-0.416,1.354v4.558H76.23z"/>
				<path d="M83.51,63.894c-0.986,0-1.737-0.307-2.252-0.918c-0.515-0.612-0.773-1.425-0.773-2.438v-0.688
					c0-0.678,0.106-1.271,0.317-1.777c0.212-0.506,0.54-0.909,0.984-1.208c0.445-0.3,0.989-0.449,1.632-0.449
					c0.96,0,1.688,0.308,2.187,0.925c0.497,0.616,0.746,1.448,0.746,2.497v0.567h-4.849v0.198c0,0.44,0.068,0.835,0.205,1.183
					s0.358,0.634,0.667,0.858s0.683,0.337,1.123,0.337c0.502,0,0.887-0.109,1.156-0.33c0.269-0.22,0.442-0.488,0.521-0.806h1.07
					c-0.044,0.246-0.125,0.482-0.244,0.707c-0.119,0.225-0.282,0.44-0.489,0.647s-0.484,0.374-0.832,0.502
					C84.331,63.829,83.941,63.894,83.51,63.894z M81.501,59.533h3.818v-0.026c0-0.431-0.075-0.812-0.225-1.143
					c-0.15-0.33-0.37-0.588-0.661-0.772c-0.291-0.186-0.629-0.277-1.017-0.277c-0.59,0-1.057,0.202-1.4,0.607
					s-0.516,0.934-0.516,1.585V59.533z"/>
				<path d="M87.777,58.556c0-0.695,0.251-1.227,0.753-1.592s1.123-0.548,1.863-0.548c0.819,0,1.444,0.204,1.876,0.614
					c0.432,0.409,0.647,0.918,0.647,1.525h-0.951c-0.009-0.158-0.042-0.308-0.099-0.449c-0.057-0.141-0.146-0.277-0.264-0.409
					c-0.119-0.132-0.286-0.24-0.502-0.324c-0.216-0.083-0.465-0.125-0.747-0.125c-0.467,0-0.846,0.107-1.136,0.323
					c-0.291,0.216-0.436,0.509-0.436,0.879c0,0.167,0.035,0.315,0.106,0.442c0.07,0.128,0.149,0.229,0.237,0.304
					c0.088,0.075,0.223,0.146,0.403,0.212c0.18,0.065,0.328,0.112,0.442,0.139s0.286,0.062,0.516,0.105
					c0.044,0.009,0.074,0.014,0.092,0.014c0.308,0.062,0.57,0.118,0.786,0.172c0.216,0.053,0.443,0.132,0.681,0.237
					s0.427,0.225,0.568,0.356c0.141,0.133,0.257,0.304,0.35,0.516c0.093,0.211,0.139,0.454,0.139,0.727
					c0,0.467-0.121,0.87-0.363,1.209s-0.572,0.592-0.99,0.76c-0.419,0.167-0.901,0.251-1.447,0.251
					c-0.801,0-1.444-0.186-1.929-0.555c-0.484-0.37-0.727-0.868-0.727-1.493h0.991c0.053,0.361,0.222,0.651,0.508,0.872
					c0.286,0.22,0.685,0.33,1.196,0.33c0.572,0,1.008-0.114,1.308-0.344c0.3-0.229,0.449-0.532,0.449-0.911
					c0-0.141-0.02-0.267-0.06-0.377c-0.039-0.109-0.107-0.205-0.205-0.284s-0.189-0.147-0.277-0.204
					c-0.088-0.058-0.218-0.11-0.39-0.159c-0.172-0.048-0.315-0.086-0.429-0.112c-0.115-0.026-0.282-0.062-0.502-0.105
					c-0.273-0.062-0.494-0.114-0.661-0.158c-0.167-0.044-0.359-0.102-0.574-0.172c-0.216-0.07-0.388-0.152-0.516-0.244
					c-0.128-0.093-0.251-0.205-0.37-0.337c-0.119-0.133-0.204-0.289-0.257-0.47C87.804,58.99,87.777,58.785,87.777,58.556z"/>
				<path d="M100.553,56.534v7.24h-1.017v-0.991h-0.04c-0.141,0.326-0.392,0.593-0.753,0.8s-0.819,0.311-1.374,0.311
					c-0.767,0-1.385-0.216-1.856-0.647c-0.471-0.432-0.707-1.053-0.707-1.863v-4.849h1.017v4.559c0,0.44,0.082,0.804,0.245,1.09
					c0.163,0.286,0.376,0.486,0.641,0.601c0.264,0.115,0.573,0.172,0.925,0.172c0.573,0,1.033-0.174,1.38-0.521
					c0.348-0.348,0.522-0.817,0.522-1.407v-4.492H100.553z"/>
				<path d="M102.785,63.774V53.84h1.017v9.935H102.785z"/>
				<path d="M106.352,56.534v-1.823h1.018v1.823h1.493v0.859h-1.493v4.452c0,0.44,0.086,0.737,0.257,0.892
					c0.172,0.154,0.491,0.231,0.958,0.231c0.159,0,0.273-0.005,0.344-0.014v0.833c-0.158,0.034-0.353,0.053-0.581,0.053
					c-0.414,0-0.753-0.04-1.018-0.119c-0.264-0.079-0.467-0.209-0.607-0.39c-0.141-0.181-0.238-0.39-0.291-0.628
					c-0.053-0.237-0.079-0.541-0.079-0.911v-4.399h-1.018v-0.859H106.352z"/>
				<path d="M110.487,54.751c0-0.193,0.066-0.356,0.198-0.488c0.132-0.133,0.295-0.198,0.489-0.198c0.193,0,0.358,0.065,0.495,0.198
					c0.137,0.132,0.205,0.295,0.205,0.488c0,0.203-0.068,0.37-0.205,0.502s-0.302,0.198-0.495,0.198
					c-0.194,0-0.357-0.066-0.489-0.198C110.553,55.121,110.487,54.954,110.487,54.751z M110.672,63.774v-7.24h1.017v7.24H110.672z"
					/>
				<path d="M114.054,63.774v-7.24h1.017v0.979h0.026c0.15-0.309,0.41-0.568,0.78-0.78c0.37-0.211,0.814-0.316,1.334-0.316
					c0.749,0,1.372,0.225,1.87,0.674s0.747,1.069,0.747,1.862v4.822h-1.031v-4.439c0-1.32-0.608-1.981-1.823-1.981
					c-0.617,0-1.088,0.181-1.414,0.542s-0.489,0.872-0.489,1.532v4.347H114.054z"/>
				<path d="M124.491,65.558c0.669,0,1.178-0.163,1.526-0.488c0.348-0.326,0.521-0.793,0.521-1.4v-1.163h-0.026
					c-0.149,0.326-0.414,0.605-0.792,0.839c-0.379,0.233-0.819,0.351-1.321,0.351c-0.828,0-1.515-0.282-2.061-0.846
					s-0.819-1.312-0.819-2.246v-1.057c0-0.934,0.273-1.688,0.819-2.266s1.237-0.865,2.074-0.865c1.03,0,1.744,0.383,2.141,1.149
					h0.026v-1.031h0.964v7.095c0,0.942-0.272,1.651-0.819,2.127s-1.303,0.714-2.272,0.714c-0.881,0-1.555-0.203-2.021-0.608
					c-0.467-0.404-0.718-0.894-0.753-1.466h1.07c0.035,0.317,0.2,0.59,0.496,0.819C123.538,65.443,123.954,65.558,124.491,65.558z
					 M124.584,57.314c-0.625,0-1.125,0.218-1.5,0.653c-0.375,0.437-0.562,1.024-0.562,1.764v0.727c0,0.723,0.192,1.293,0.575,1.711
					c0.383,0.419,0.883,0.628,1.5,0.628c0.599,0,1.07-0.22,1.414-0.661c0.344-0.439,0.516-0.978,0.516-1.611v-0.806
					c0-0.679-0.177-1.249-0.529-1.711C125.645,57.545,125.173,57.314,124.584,57.314z"/>
				<path d="M132.444,54.751c0-0.193,0.066-0.356,0.198-0.488c0.132-0.133,0.295-0.198,0.489-0.198s0.359,0.065,0.496,0.198
					c0.137,0.132,0.205,0.295,0.205,0.488c0,0.203-0.068,0.37-0.205,0.502s-0.302,0.198-0.496,0.198s-0.357-0.066-0.489-0.198
					S132.444,54.954,132.444,54.751z M132.629,63.774v-7.24h1.017v7.24H132.629z"/>
				<path d="M136.011,63.774v-7.24h1.017v0.979h0.026c0.15-0.309,0.41-0.568,0.78-0.78c0.37-0.211,0.815-0.316,1.334-0.316
					c0.749,0,1.372,0.225,1.869,0.674s0.747,1.069,0.747,1.862v4.822h-1.031v-4.439c0-1.32-0.607-1.981-1.823-1.981
					c-0.617,0-1.088,0.181-1.414,0.542c-0.326,0.361-0.489,0.872-0.489,1.532v4.347H136.011z"/>
				<path d="M150.847,62.771c-0.194,0.326-0.472,0.595-0.833,0.806c-0.361,0.212-0.797,0.317-1.308,0.317
					c-0.467,0-0.878-0.091-1.235-0.271c-0.357-0.18-0.634-0.436-0.833-0.766s-0.297-0.716-0.297-1.156
					c0-0.634,0.218-1.141,0.653-1.52c0.437-0.378,1.06-0.567,1.87-0.567h1.968v-0.898c0-0.925-0.538-1.388-1.612-1.388
					c-0.969,0-1.506,0.401-1.612,1.202h-0.991c0.035-0.651,0.277-1.167,0.727-1.546c0.449-0.378,1.092-0.567,1.929-0.567
					c0.405,0,0.764,0.044,1.077,0.132c0.312,0.088,0.583,0.225,0.812,0.409c0.229,0.186,0.403,0.426,0.522,0.721
					s0.178,0.636,0.178,1.023v5.073h-0.991v-1.004H150.847z M148.945,63.008c0.537,0,0.986-0.162,1.348-0.488
					c0.361-0.326,0.542-0.731,0.542-1.216v-0.832h-1.942c-0.502,0-0.879,0.11-1.13,0.33c-0.251,0.221-0.376,0.516-0.376,0.886
					c0,0.422,0.15,0.748,0.449,0.978C148.134,62.894,148.504,63.008,148.945,63.008z"/>
				<path d="M156.501,58.556c0-0.695,0.251-1.227,0.753-1.592s1.123-0.548,1.863-0.548c0.819,0,1.444,0.204,1.876,0.614
					c0.431,0.409,0.647,0.918,0.647,1.525h-0.952c-0.009-0.158-0.042-0.308-0.099-0.449c-0.058-0.141-0.146-0.277-0.265-0.409
					c-0.119-0.132-0.286-0.24-0.502-0.324c-0.216-0.083-0.464-0.125-0.746-0.125c-0.467,0-0.846,0.107-1.136,0.323
					s-0.436,0.509-0.436,0.879c0,0.167,0.035,0.315,0.105,0.442c0.07,0.128,0.15,0.229,0.238,0.304
					c0.088,0.075,0.222,0.146,0.402,0.212c0.181,0.065,0.328,0.112,0.443,0.139s0.286,0.062,0.515,0.105
					c0.044,0.009,0.075,0.014,0.093,0.014c0.308,0.062,0.57,0.118,0.786,0.172c0.216,0.053,0.442,0.132,0.68,0.237
					s0.427,0.225,0.568,0.356c0.141,0.133,0.258,0.304,0.351,0.516c0.092,0.211,0.139,0.454,0.139,0.727
					c0,0.467-0.121,0.87-0.363,1.209c-0.243,0.339-0.573,0.592-0.991,0.76c-0.418,0.167-0.9,0.251-1.446,0.251
					c-0.802,0-1.445-0.186-1.929-0.555c-0.484-0.37-0.727-0.868-0.727-1.493h0.991c0.053,0.361,0.223,0.651,0.509,0.872
					c0.286,0.22,0.685,0.33,1.195,0.33c0.573,0,1.009-0.114,1.309-0.344c0.299-0.229,0.449-0.532,0.449-0.911
					c0-0.141-0.021-0.267-0.06-0.377c-0.04-0.109-0.108-0.205-0.205-0.284s-0.189-0.147-0.277-0.204
					c-0.088-0.058-0.218-0.11-0.39-0.159c-0.172-0.048-0.315-0.086-0.43-0.112s-0.282-0.062-0.502-0.105
					c-0.273-0.062-0.493-0.114-0.66-0.158c-0.168-0.044-0.359-0.102-0.575-0.172s-0.388-0.152-0.515-0.244
					c-0.127-0.093-0.251-0.205-0.37-0.337c-0.119-0.133-0.205-0.289-0.258-0.47C156.528,58.99,156.501,58.785,156.501,58.556z"/>
				<path d="M169.277,56.534v7.24h-1.018v-0.991h-0.04c-0.141,0.326-0.392,0.593-0.753,0.8c-0.361,0.207-0.819,0.311-1.374,0.311
					c-0.766,0-1.385-0.216-1.856-0.647c-0.472-0.432-0.707-1.053-0.707-1.863v-4.849h1.018v4.559c0,0.44,0.081,0.804,0.244,1.09
					s0.376,0.486,0.641,0.601c0.265,0.115,0.572,0.172,0.925,0.172c0.572,0,1.033-0.174,1.381-0.521
					c0.348-0.348,0.521-0.817,0.521-1.407v-4.492H169.277z"/>
				<path d="M171.1,58.556c0-0.695,0.251-1.227,0.753-1.592s1.123-0.548,1.862-0.548c0.819,0,1.444,0.204,1.876,0.614
					c0.432,0.409,0.647,0.918,0.647,1.525h-0.951c-0.009-0.158-0.042-0.308-0.099-0.449c-0.058-0.141-0.146-0.277-0.265-0.409
					s-0.286-0.24-0.502-0.324c-0.216-0.083-0.465-0.125-0.746-0.125c-0.467,0-0.846,0.107-1.137,0.323
					c-0.291,0.216-0.436,0.509-0.436,0.879c0,0.167,0.035,0.315,0.105,0.442c0.07,0.128,0.149,0.229,0.238,0.304
					c0.088,0.075,0.222,0.146,0.403,0.212c0.181,0.065,0.328,0.112,0.442,0.139c0.115,0.026,0.286,0.062,0.516,0.105
					c0.044,0.009,0.075,0.014,0.093,0.014c0.308,0.062,0.57,0.118,0.786,0.172c0.216,0.053,0.443,0.132,0.68,0.237
					c0.238,0.105,0.428,0.225,0.568,0.356c0.141,0.133,0.258,0.304,0.35,0.516c0.092,0.211,0.139,0.454,0.139,0.727
					c0,0.467-0.121,0.87-0.363,1.209c-0.243,0.339-0.573,0.592-0.991,0.76c-0.418,0.167-0.9,0.251-1.447,0.251
					c-0.801,0-1.445-0.186-1.929-0.555c-0.484-0.37-0.727-0.868-0.727-1.493h0.991c0.053,0.361,0.222,0.651,0.509,0.872
					c0.286,0.22,0.685,0.33,1.195,0.33c0.572,0,1.009-0.114,1.308-0.344c0.299-0.229,0.449-0.532,0.449-0.911
					c0-0.141-0.02-0.267-0.06-0.377c-0.04-0.109-0.108-0.205-0.205-0.284c-0.097-0.079-0.189-0.147-0.277-0.204
					c-0.088-0.058-0.218-0.11-0.39-0.159c-0.172-0.048-0.315-0.086-0.43-0.112s-0.282-0.062-0.502-0.105
					c-0.273-0.062-0.493-0.114-0.661-0.158s-0.359-0.102-0.575-0.172s-0.388-0.152-0.516-0.244c-0.127-0.093-0.251-0.205-0.37-0.337
					c-0.119-0.133-0.205-0.289-0.257-0.47C171.126,58.99,171.1,58.785,171.1,58.556z"/>
				<path d="M178.498,56.534v-1.823h1.017v1.823h1.493v0.859h-1.493v4.452c0,0.44,0.086,0.737,0.258,0.892s0.491,0.231,0.958,0.231
					c0.158,0,0.272-0.005,0.343-0.014v0.833c-0.159,0.034-0.352,0.053-0.582,0.053c-0.414,0-0.753-0.04-1.017-0.119
					c-0.265-0.079-0.467-0.209-0.608-0.39c-0.141-0.181-0.237-0.39-0.29-0.628c-0.053-0.237-0.08-0.541-0.08-0.911v-4.399h-1.017
					v-0.859H178.498z"/>
				<path d="M186.715,62.771c-0.193,0.326-0.471,0.595-0.832,0.806c-0.361,0.212-0.797,0.317-1.308,0.317
					c-0.467,0-0.878-0.091-1.235-0.271c-0.357-0.18-0.635-0.436-0.833-0.766c-0.198-0.33-0.297-0.716-0.297-1.156
					c0-0.634,0.218-1.141,0.654-1.52c0.436-0.378,1.059-0.567,1.87-0.567h1.969v-0.898c0-0.925-0.538-1.388-1.612-1.388
					c-0.969,0-1.506,0.401-1.611,1.202h-0.991c0.035-0.651,0.277-1.167,0.727-1.546c0.449-0.378,1.092-0.567,1.929-0.567
					c0.405,0,0.764,0.044,1.077,0.132c0.312,0.088,0.583,0.225,0.812,0.409c0.229,0.186,0.403,0.426,0.521,0.721
					c0.119,0.295,0.179,0.636,0.179,1.023v5.073h-0.991v-1.004H186.715z M184.813,63.008c0.537,0,0.986-0.162,1.348-0.488
					s0.542-0.731,0.542-1.216v-0.832h-1.942c-0.502,0-0.879,0.11-1.13,0.33c-0.251,0.221-0.376,0.516-0.376,0.886
					c0,0.422,0.149,0.748,0.449,0.978C184.002,62.894,184.373,63.008,184.813,63.008z"/>
				<path d="M189.886,54.751c0-0.193,0.066-0.356,0.198-0.488c0.132-0.133,0.295-0.198,0.488-0.198c0.194,0,0.359,0.065,0.496,0.198
					c0.136,0.132,0.204,0.295,0.204,0.488c0,0.203-0.068,0.37-0.204,0.502c-0.137,0.132-0.302,0.198-0.496,0.198
					c-0.193,0-0.356-0.066-0.488-0.198C189.952,55.121,189.886,54.954,189.886,54.751z M190.071,63.774v-7.24h1.018v7.24H190.071z"
					/>
				<path d="M193.453,63.774v-7.24h1.018v0.979h0.026c0.149-0.309,0.41-0.568,0.779-0.78c0.37-0.211,0.815-0.316,1.335-0.316
					c0.748,0,1.371,0.225,1.869,0.674c0.497,0.449,0.746,1.069,0.746,1.862v4.822h-1.03v-4.439c0-1.32-0.607-1.981-1.823-1.981
					c-0.616,0-1.088,0.181-1.414,0.542s-0.489,0.872-0.489,1.532v4.347H193.453z"/>
				<path d="M204.035,63.894c-0.986,0-1.737-0.307-2.252-0.918c-0.515-0.612-0.773-1.425-0.773-2.438v-0.688
					c0-0.678,0.106-1.271,0.317-1.777c0.212-0.506,0.54-0.909,0.984-1.208c0.445-0.3,0.989-0.449,1.632-0.449
					c0.96,0,1.688,0.308,2.187,0.925c0.497,0.616,0.746,1.448,0.746,2.497v0.567h-4.849v0.198c0,0.44,0.068,0.835,0.205,1.183
					s0.358,0.634,0.667,0.858s0.683,0.337,1.123,0.337c0.502,0,0.887-0.109,1.156-0.33c0.269-0.22,0.442-0.488,0.521-0.806h1.07
					c-0.044,0.246-0.125,0.482-0.244,0.707c-0.119,0.225-0.282,0.44-0.489,0.647s-0.484,0.374-0.832,0.502
					C204.856,63.829,204.467,63.894,204.035,63.894z M202.027,59.533h3.818v-0.026c0-0.431-0.075-0.812-0.225-1.143
					c-0.15-0.33-0.37-0.588-0.661-0.772c-0.291-0.186-0.629-0.277-1.017-0.277c-0.59,0-1.057,0.202-1.4,0.607
					s-0.516,0.934-0.516,1.585V59.533z"/>
				<path d="M211.156,56.416c0.563,0,1.028,0.11,1.394,0.33c0.365,0.22,0.609,0.493,0.733,0.819h0.04V53.84h1.004v9.935h-0.951
					v-1.123h-0.026c-0.088,0.317-0.33,0.602-0.727,0.853s-0.885,0.376-1.466,0.376c-0.907,0-1.61-0.295-2.107-0.885
					c-0.498-0.59-0.747-1.374-0.747-2.352v-0.991c0-0.969,0.249-1.75,0.747-2.345C209.546,56.713,210.249,56.416,211.156,56.416z
					 M211.289,57.314c-0.644,0-1.132,0.229-1.467,0.687s-0.502,1.075-0.502,1.85v0.595c0,0.784,0.169,1.404,0.509,1.862
					c0.339,0.458,0.834,0.688,1.486,0.688c0.634,0,1.127-0.225,1.479-0.674s0.528-1.065,0.528-1.85v-0.674
					c0-0.758-0.181-1.36-0.542-1.81C212.42,57.539,211.922,57.314,211.289,57.314z"/>
				<path d="M219.796,63.774v-6.381h-1.044v-0.859h1.044v-0.753c0-0.678,0.172-1.18,0.515-1.506s0.872-0.489,1.585-0.489
					c0.167,0,0.344,0.014,0.528,0.04v0.858c-0.149-0.018-0.286-0.026-0.409-0.026c-0.423,0-0.729,0.089-0.918,0.265
					s-0.284,0.484-0.284,0.925v0.687h1.493v0.859h-1.493v6.381H219.796z"/>
				<path d="M223.971,54.751c0-0.193,0.066-0.356,0.198-0.488c0.132-0.133,0.295-0.198,0.488-0.198c0.194,0,0.359,0.065,0.496,0.198
					c0.136,0.132,0.204,0.295,0.204,0.488c0,0.203-0.068,0.37-0.204,0.502c-0.137,0.132-0.302,0.198-0.496,0.198
					c-0.193,0-0.356-0.066-0.488-0.198C224.037,55.121,223.971,54.954,223.971,54.751z M224.156,63.774v-7.24h1.018v7.24H224.156z"
					/>
				<path d="M227.538,63.774v-7.24h1.018v0.979h0.026c0.149-0.309,0.41-0.568,0.779-0.78c0.37-0.211,0.815-0.316,1.335-0.316
					c0.748,0,1.371,0.225,1.869,0.674c0.497,0.449,0.746,1.069,0.746,1.862v4.822h-1.03v-4.439c0-1.32-0.607-1.981-1.823-1.981
					c-0.616,0-1.088,0.181-1.414,0.542s-0.489,0.872-0.489,1.532v4.347H227.538z"/>
				<path d="M237.949,56.416c0.563,0,1.028,0.11,1.394,0.33s0.61,0.493,0.733,0.819h0.04V53.84h1.004v9.935h-0.951v-1.123h-0.026
					c-0.088,0.317-0.331,0.602-0.727,0.853c-0.396,0.251-0.885,0.376-1.466,0.376c-0.907,0-1.61-0.295-2.107-0.885
					c-0.498-0.59-0.747-1.374-0.747-2.352v-0.991c0-0.969,0.249-1.75,0.747-2.345C236.339,56.713,237.042,56.416,237.949,56.416z
					 M238.081,57.314c-0.643,0-1.132,0.229-1.467,0.687c-0.334,0.458-0.502,1.075-0.502,1.85v0.595c0,0.784,0.17,1.404,0.509,1.862
					s0.834,0.688,1.486,0.688c0.634,0,1.127-0.225,1.479-0.674c0.353-0.449,0.529-1.065,0.529-1.85v-0.674
					c0-0.758-0.181-1.36-0.542-1.81C239.212,57.539,238.715,57.314,238.081,57.314z"/>
				<path d="M243.338,54.751c0-0.193,0.066-0.356,0.198-0.488c0.132-0.133,0.295-0.198,0.489-0.198c0.193,0,0.358,0.065,0.495,0.198
					c0.137,0.132,0.205,0.295,0.205,0.488c0,0.203-0.068,0.37-0.205,0.502s-0.302,0.198-0.495,0.198
					c-0.194,0-0.357-0.066-0.489-0.198C243.405,55.121,243.338,54.954,243.338,54.751z M243.524,63.774v-7.24h1.017v7.24H243.524z"
					/>
				<path d="M246.906,63.774v-7.24h1.017v0.979h0.026c0.15-0.309,0.41-0.568,0.78-0.78c0.37-0.211,0.814-0.316,1.334-0.316
					c0.749,0,1.372,0.225,1.87,0.674s0.747,1.069,0.747,1.862v4.822h-1.031v-4.439c0-1.32-0.608-1.981-1.823-1.981
					c-0.617,0-1.088,0.181-1.414,0.542s-0.489,0.872-0.489,1.532v4.347H246.906z"/>
				<path d="M257.342,65.558c0.669,0,1.178-0.163,1.526-0.488c0.348-0.326,0.521-0.793,0.521-1.4v-1.163h-0.026
					c-0.149,0.326-0.414,0.605-0.792,0.839c-0.379,0.233-0.819,0.351-1.321,0.351c-0.828,0-1.515-0.282-2.061-0.846
					s-0.819-1.312-0.819-2.246v-1.057c0-0.934,0.273-1.688,0.819-2.266s1.237-0.865,2.074-0.865c1.03,0,1.744,0.383,2.141,1.149
					h0.026v-1.031h0.964v7.095c0,0.942-0.272,1.651-0.819,2.127s-1.303,0.714-2.272,0.714c-0.881,0-1.555-0.203-2.021-0.608
					c-0.467-0.404-0.718-0.894-0.753-1.466h1.07c0.035,0.317,0.2,0.59,0.496,0.819C256.389,65.443,256.805,65.558,257.342,65.558z
					 M257.435,57.314c-0.625,0-1.125,0.218-1.499,0.653c-0.375,0.437-0.562,1.024-0.562,1.764v0.727
					c0,0.723,0.192,1.293,0.575,1.711c0.383,0.419,0.883,0.628,1.499,0.628c0.599,0,1.07-0.22,1.414-0.661
					c0.344-0.439,0.516-0.978,0.516-1.611v-0.806c0-0.679-0.177-1.249-0.529-1.711C258.497,57.545,258.025,57.314,257.435,57.314z"
					/>
			</g>
		</g>
		<g>
			<rect x="3.04" y="81.414" fill="none" width="84.259" height="10.07"/>
			<path fill="#FF450A" d="M6.126,89.819H5.343l-2.202-7.981h1.028l1.576,6.45h0.022l1.666-6.45h0.938l1.666,6.45h0.022l1.576-6.45
				h1.028l-2.202,7.981H9.669l-1.755-6.495H7.881L6.126,89.819z"/>
			<path fill="#FF450A" d="M13.694,89.819v-8.406h0.861v3.107h0.034c0.111-0.246,0.312-0.462,0.604-0.648
				c0.291-0.187,0.667-0.279,1.129-0.279c0.686,0,1.237,0.222,1.654,0.665c0.417,0.443,0.626,1.02,0.626,1.728v3.834h-0.86v-3.667
				c0-0.528-0.133-0.955-0.397-1.279c-0.265-0.324-0.646-0.486-1.146-0.486c-0.343,0-0.639,0.072-0.889,0.218
				c-0.25,0.146-0.438,0.352-0.564,0.62s-0.19,0.585-0.19,0.95v3.645H13.694z"/>
			<path fill="#FF450A" d="M20.423,82.185c0-0.164,0.056-0.302,0.168-0.414c0.111-0.111,0.25-0.168,0.413-0.168
				c0.164,0,0.304,0.057,0.42,0.168c0.115,0.112,0.173,0.25,0.173,0.414c0,0.171-0.058,0.312-0.173,0.425
				c-0.116,0.111-0.256,0.167-0.42,0.167c-0.164,0-0.302-0.056-0.413-0.167C20.479,82.497,20.423,82.355,20.423,82.185z
				 M20.58,89.819v-6.126h0.861v6.126H20.58z"/>
			<path fill="#FF450A" d="M23.71,83.693V82.15h0.861v1.543h1.263v0.727h-1.263v3.768c0,0.372,0.073,0.624,0.218,0.754
				c0.146,0.131,0.416,0.196,0.811,0.196c0.134,0,0.231-0.004,0.291-0.012v0.704c-0.134,0.03-0.298,0.045-0.492,0.045
				c-0.351,0-0.637-0.033-0.86-0.101c-0.224-0.066-0.396-0.177-0.515-0.329c-0.119-0.153-0.201-0.33-0.246-0.531
				c-0.044-0.201-0.067-0.459-0.067-0.771V84.42h-0.861v-0.727H23.71z"/>
			<path fill="#FF450A" d="M29.333,89.92c-0.834,0-1.47-0.259-1.906-0.777c-0.437-0.518-0.654-1.205-0.654-2.062v-0.581
				c0-0.573,0.089-1.075,0.269-1.503c0.179-0.429,0.456-0.77,0.833-1.023c0.376-0.253,0.836-0.38,1.38-0.38
				c0.812,0,1.429,0.261,1.851,0.782c0.421,0.521,0.631,1.227,0.631,2.113v0.48h-4.103v0.168c0,0.372,0.058,0.706,0.173,1
				c0.115,0.295,0.304,0.537,0.564,0.727c0.261,0.19,0.577,0.285,0.95,0.285c0.425,0,0.751-0.093,0.978-0.279
				s0.375-0.414,0.442-0.682h0.905c-0.037,0.208-0.106,0.408-0.207,0.598c-0.101,0.19-0.238,0.373-0.413,0.548
				c-0.176,0.175-0.41,0.317-0.705,0.425C30.028,89.866,29.698,89.92,29.333,89.92z M27.634,86.23h3.231v-0.021
				c0-0.365-0.063-0.688-0.19-0.968c-0.127-0.279-0.313-0.497-0.559-0.653c-0.246-0.157-0.533-0.235-0.861-0.235
				c-0.499,0-0.894,0.172-1.185,0.515c-0.291,0.343-0.436,0.79-0.436,1.342V86.23z"/>
			<path fill="#FF450A" d="M37.057,81.849h0.705c-0.142,0.156-0.282,0.357-0.419,0.604s-0.285,0.562-0.441,0.945
				s-0.283,0.846-0.38,1.386c-0.097,0.54-0.146,1.112-0.146,1.716c0,0.478,0.035,0.944,0.106,1.403
				c0.07,0.458,0.146,0.84,0.229,1.146s0.198,0.63,0.347,0.973c0.149,0.343,0.265,0.589,0.347,0.738
				c0.082,0.148,0.197,0.346,0.347,0.592h-0.738c-0.179-0.216-0.345-0.458-0.498-0.727c-0.153-0.269-0.31-0.6-0.47-0.995
				c-0.16-0.395-0.287-0.862-0.38-1.402c-0.093-0.54-0.14-1.112-0.14-1.716c0-0.5,0.033-0.966,0.101-1.397
				c0.067-0.433,0.147-0.8,0.24-1.102s0.214-0.6,0.363-0.895c0.149-0.294,0.283-0.525,0.402-0.692
				C36.751,82.257,36.893,82.065,37.057,81.849z"/>
			<path fill="#FF450A" d="M39.047,87.841h0.85c0.037,0.283,0.134,0.529,0.29,0.737c0.157,0.209,0.363,0.369,0.621,0.481
				c0.257,0.111,0.549,0.167,0.877,0.167c0.484,0,0.917-0.179,1.297-0.536s0.57-0.835,0.57-1.431c0-0.582-0.177-1.049-0.531-1.403
				c-0.354-0.354-0.792-0.531-1.313-0.531c-0.47,0-0.857,0.106-1.163,0.318c-0.306,0.213-0.525,0.472-0.66,0.777h-0.737l0.447-4.595
				h4.259v0.783h-3.51l-0.302,2.671h0.011c0.052-0.074,0.132-0.15,0.24-0.229c0.108-0.078,0.236-0.155,0.386-0.229
				c0.149-0.074,0.324-0.136,0.525-0.185c0.201-0.048,0.402-0.072,0.604-0.072c0.484,0,0.926,0.111,1.325,0.335
				s0.717,0.541,0.956,0.95c0.239,0.41,0.358,0.876,0.358,1.397c0,0.798-0.268,1.453-0.805,1.968
				c-0.537,0.514-1.208,0.771-2.012,0.771c-0.782,0-1.399-0.209-1.85-0.626C39.328,88.943,39.084,88.437,39.047,87.841z"/>
			<path fill="#FF450A" d="M48.482,89.987c-0.798,0-1.453-0.217-1.968-0.648c-0.514-0.433-0.771-0.995-0.771-1.688
				c0-0.298,0.052-0.571,0.157-0.821c0.104-0.25,0.242-0.455,0.413-0.615c0.172-0.16,0.345-0.29,0.52-0.391s0.352-0.17,0.531-0.207
				v-0.012c-0.328-0.104-0.628-0.312-0.899-0.626c-0.272-0.312-0.408-0.708-0.408-1.185c0-0.618,0.233-1.129,0.699-1.531
				c0.465-0.402,1.052-0.604,1.761-0.604c0.7,0,1.284,0.201,1.75,0.604s0.698,0.913,0.698,1.531c0,0.254-0.044,0.49-0.134,0.71
				c-0.09,0.22-0.203,0.4-0.341,0.542c-0.138,0.142-0.278,0.257-0.419,0.347s-0.283,0.16-0.425,0.212v0.012
				c0.179,0.037,0.358,0.106,0.537,0.207s0.352,0.23,0.52,0.391c0.168,0.16,0.304,0.365,0.408,0.615s0.157,0.52,0.157,0.811
				c0,0.693-0.263,1.258-0.789,1.693S49.287,89.987,48.482,89.987z M48.516,89.238c0.543,0,0.997-0.151,1.358-0.453
				s0.542-0.688,0.542-1.157c0-0.477-0.179-0.864-0.537-1.162s-0.812-0.447-1.364-0.447c-0.559,0-1.019,0.151-1.38,0.453
				c-0.362,0.302-0.542,0.688-0.542,1.156c0,0.231,0.048,0.447,0.145,0.648s0.231,0.371,0.403,0.509s0.375,0.248,0.609,0.33
				C47.985,89.197,48.24,89.238,48.516,89.238z M47.358,84.867c0.302,0.269,0.686,0.402,1.152,0.402c0.465,0,0.85-0.134,1.151-0.402
				s0.452-0.611,0.452-1.028c0-0.418-0.149-0.757-0.447-1.018c-0.298-0.261-0.682-0.392-1.151-0.392
				c-0.47,0-0.855,0.131-1.157,0.392c-0.302,0.261-0.453,0.6-0.453,1.018C46.906,84.256,47.057,84.599,47.358,84.867z"/>
			<path fill="#FF450A" d="M52.071,83.85v-0.156c0-0.552,0.143-1.012,0.43-1.381c0.287-0.369,0.673-0.553,1.157-0.553
				c0.477,0,0.859,0.184,1.146,0.553c0.287,0.369,0.43,0.837,0.43,1.403v0.156c0,0.552-0.144,1.014-0.43,1.387
				c-0.287,0.372-0.672,0.559-1.157,0.559c-0.485,0-0.869-0.187-1.151-0.559C52.212,84.886,52.071,84.416,52.071,83.85z
				 M53.345,89.819h-0.794l3.041-4.002l3.041-3.979h0.783l-3.03,3.979L53.345,89.819z M52.73,83.738v0.056
				c0,0.425,0.082,0.766,0.246,1.022c0.164,0.258,0.391,0.386,0.682,0.386c0.187,0,0.351-0.06,0.492-0.179s0.248-0.281,0.318-0.486
				s0.106-0.445,0.106-0.721v-0.056c0-0.418-0.08-0.753-0.24-1.007c-0.161-0.253-0.386-0.38-0.677-0.38
				c-0.298,0-0.527,0.129-0.688,0.386S52.73,83.343,52.73,83.738z M56.766,87.908v-0.157c0-0.551,0.141-1.013,0.425-1.386
				c0.283-0.373,0.667-0.56,1.151-0.56c0.484,0,0.87,0.187,1.157,0.56c0.287,0.373,0.431,0.838,0.431,1.397v0.156
				c0,0.365-0.062,0.695-0.185,0.989c-0.123,0.295-0.308,0.529-0.553,0.704c-0.246,0.176-0.533,0.263-0.861,0.263
				c-0.484,0-0.866-0.186-1.146-0.559C56.905,88.943,56.766,88.475,56.766,87.908z M57.425,87.796v0.056
				c0,0.276,0.033,0.519,0.101,0.727c0.067,0.209,0.171,0.375,0.313,0.498c0.141,0.123,0.309,0.185,0.503,0.185
				c0.186,0,0.35-0.06,0.492-0.18c0.142-0.118,0.25-0.282,0.324-0.491s0.112-0.447,0.112-0.716v-0.066
				c0-0.41-0.082-0.744-0.246-1.001c-0.164-0.257-0.392-0.386-0.682-0.386s-0.516,0.129-0.676,0.386S57.425,87.394,57.425,87.796z"
				/>
			<path fill="#FF450A" d="M60.578,81.849h0.682c0.224,0.276,0.406,0.527,0.548,0.755s0.3,0.531,0.475,0.911
				s0.307,0.821,0.397,1.324c0.089,0.503,0.134,1.061,0.134,1.672c0,1.975-0.499,3.588-1.498,4.84h-0.727
				c0.119-0.208,0.211-0.372,0.274-0.491c0.063-0.12,0.16-0.31,0.29-0.57c0.131-0.261,0.233-0.509,0.308-0.743
				c0.074-0.235,0.154-0.513,0.24-0.833s0.147-0.669,0.185-1.046c0.037-0.376,0.056-0.766,0.056-1.168
				c0-0.604-0.046-1.176-0.14-1.716c-0.093-0.54-0.218-1.002-0.374-1.386c-0.157-0.384-0.304-0.699-0.442-0.945
				S60.711,82.005,60.578,81.849z"/>
		</g>
		<line fill="none" stroke="#FF450A" stroke-width="8" stroke-miterlimit="10" x1="67.068" y1="20.084" x2="3.04" y2="20.084"/>
		<line fill="none" stroke="#013270" stroke-width="8" stroke-miterlimit="10" x1="307.932" y1="20.084" x2="67.028" y2="20.084"/>
		<line fill="none" stroke="#FF450A" stroke-width="8" stroke-miterlimit="10" x1="179.106" y1="73.387" x2="3.041" y2="73.387"/>
	</g>
</g>
</svg>
