<?xml version="1.0" encoding="utf-8"?>
<!-- Generator: Adobe Illustrator 19.1.0, SVG Export Plug-In . SVG Version: 6.00 Build 0)  -->
<!DOCTYPE svg PUBLIC "-//W3C//DTD SVG 1.1//EN" "http://www.w3.org/Graphics/SVG/1.1/DTD/svg11.dtd">
<svg version="1.1" id="Layer_1" xmlns="http://www.w3.org/2000/svg" xmlns:xlink="http://www.w3.org/1999/xlink" x="0px" y="0px"
	 width="130.2px" height="38.7px" viewBox="-574 341.3 130.2 38.7" style="enable-background:new -574 341.3 130.2 38.7;"
	 xml:space="preserve">
<style type="text/css">
	.st0{fill:#1464EF;}
</style>
<g>
	<path class="st0" d="M-569.3,358.9h-4.7v-17.1h4.7V358.9z M-569.3,379.5h-4.7v-17.1h4.7V379.5z M-564.7,341.7h4.7l8.6,10.5h0v-10.5
		h4.7v17.1h-4.7l-8.6-10.5h0v10.5h-4.7V341.7z M-564.7,362.4h4.7l8.6,10.5h0v-10.5h4.7v17.1h-4.7l-8.6-10.5h0v10.5h-4.7V362.4z
		 M-534.7,352.1l4.4-10.4h5.1l-7.7,17.1h-3.6l-7.6-17.1h5.1L-534.7,352.1z M-532.4,366.8c-0.9-0.7-2-1.1-3.1-1.1c-0.9,0-2,0.5-2,1.4
		c0,1,1.3,1.4,2.1,1.6l1.2,0.3c2.5,0.7,4.4,1.9,4.4,4.7c0,1.7-0.4,3.5-1.9,4.6c-1.4,1.1-3.3,1.6-5.1,1.6c-2.3,0-4.5-0.7-6.3-2l2-3.6
		c1.2,1,2.6,1.8,4.1,1.8c1.1,0,2.3-0.5,2.3-1.7c0-1.2-1.8-1.7-2.8-2c-2.9-0.8-4.9-1.5-4.9-4.8c0-3.5,2.6-5.7,6.2-5.7
		c1.8,0,4,0.5,5.6,1.4L-532.4,366.8z M-518.9,379.5h-4.7v-13.4h-3.9v-3.8h12.4v3.8h-3.9V379.5z M-517.5,358.9h-4.7v-17.1h4.7V358.9z
		 M-502.5,346.2c-0.9-0.7-2-1.1-3.1-1.1c-0.9,0-2,0.5-2,1.4c0,1,1.3,1.4,2.1,1.6l1.2,0.3c2.5,0.7,4.4,1.9,4.4,4.7
		c0,1.7-0.4,3.5-1.9,4.6c-1.4,1.1-3.3,1.6-5.1,1.6c-2.3,0-4.5-0.7-6.3-2l2-3.6c1.2,1,2.6,1.8,4.1,1.8c1.1,0,2.3-0.5,2.3-1.7
		c0-1.2-1.8-1.7-2.8-2c-2.9-0.8-4.9-1.5-4.9-4.8c0-3.5,2.6-5.7,6.2-5.7c1.8,0,4,0.5,5.6,1.4L-502.5,346.2z M-507.1,379.5h-4.7v-17.1
		h4.7V379.5z M-495.3,379.5h-4.7v-13.4h-3.9v-3.8h12.4v3.8h-3.9L-495.3,379.5L-495.3,379.5z M-491,358.9h-4.7v-17.1h4.7V358.9z
		 M-472.6,362.4v9.6c0,2.2-0.1,4.4-1.9,6c-1.5,1.4-3.9,1.9-6,1.9c-2.1,0-4.5-0.5-6-1.9c-1.8-1.7-1.9-3.8-1.9-6v-9.6h4.7v9
		c0,2.2,0.2,4.7,3.2,4.7s3.2-2.4,3.2-4.7v-9C-477.3,362.4-472.6,362.4-472.6,362.4z M-485.9,358.9v-17.1h6.7c3.2,0,5.3,1.2,5.3,4.5
		c0,1.5-0.5,2.8-2,3.5v0c2.6,0.3,3.7,2,3.7,4.4c0,3.6-3.2,4.8-6.5,4.8H-485.9z M-481.2,348.5h0.5c1.2,0,2.5-0.2,2.5-1.7
		c0-1.6-1.5-1.7-2.7-1.7h-0.3V348.5z M-481.2,355.5h0.6c1.4,0,3.7,0.1,3.7-1.8c0-2.1-2.3-1.9-3.8-1.9h-0.5
		C-481.2,351.8-481.2,355.5-481.2,355.5z M-461.1,379.5h-4.7v-13.4h-3.9v-3.8h12.4v3.8h-3.9L-461.1,379.5L-461.1,379.5z
		 M-463.1,355.1h5.6v3.8h-10.3v-17.1h4.7L-463.1,355.1L-463.1,355.1z M-449.3,345.5v2.9h5.3v3.8h-5.3v3h5.6v3.8H-454v-17.1h10.2v3.8
		H-449.3z M-449.3,366.2v2.9h5.3v3.8h-5.3v3h5.6v3.8H-454v-17.1h10.2v3.8H-449.3z"/>
</g>
</svg>
