<svg xmlns="http://www.w3.org/2000/svg" xmlns:xlink="http://www.w3.org/1999/xlink" version="1.1" x="0px" y="0px" width="418.465px" height="93.335px" viewBox="0 0 418.465 93.335" enable-background="new 0 0 418.465 93.335" xml:space="preserve"><style>.style0{fill:	#AAAAAA;}</style><g><g><path d="M197.375 0.27c-0.154 0-0.285 0.11-0.314 0.259l-2.995 15.645c-0.018 0.1 0 0.2 0.1 0.3 c0.062 0.1 0.2 0.1 0.2 0.115h9.326c0.151 0 0.283-0.107 0.314-0.257l0.489-2.466c0.019-0.093-0.005-0.191-0.067-0.266 c-0.061-0.074-0.151-0.117-0.247-0.117c0 0-5.12 0-5.801 0c0.114-0.591 0.636-3.333 0.715-3.752c0.479 0 5.2 0 5.2 0 c0.155 0 0.287-0.111 0.316-0.263l0.444-2.466c0.003-0.019 0.007-0.038 0.007-0.057c0-0.074-0.027-0.147-0.075-0.204 c-0.062-0.074-0.153-0.116-0.246-0.116c0 0-4.414 0-5.084 0c0.11-0.571 0.535-2.811 0.612-3.215c0.485 0 5.9 0 5.9 0 c0.154 0 0.288-0.112 0.315-0.266l0.423-2.466c0.003-0.017 0.005-0.035 0.005-0.054c0-0.075-0.027-0.148-0.075-0.207 c-0.062-0.071-0.15-0.113-0.246-0.113L197.375 0.27L197.375 0.27z" class="style0"/><path d="M117.738 3.376h-0.722l-0.793 4.134h0.734c1.033 0 1.947-0.33 2.509-0.9 c0.408-0.415 0.611-0.942 0.611-1.565V4.989C120.057 3.9 119.3 3.4 117.7 3.376z M114.083 0.27h2.645 c2.507 0 7.2 0 7.3 4.371v0.133c0 1.545-0.519 2.889-1.504 3.893c-1.233 1.257-3.122 1.949-5.322 1.949h-1.551l-1.091 5.7 c-0.028 0.152-0.162 0.26-0.314 0.26h-3.138c-0.096 0-0.187-0.042-0.248-0.117c-0.061-0.072-0.086-0.17-0.067-0.264l3.02-15.645 C113.797 0.4 113.9 0.3 114.1 0.27z" class="style0"/><path d="M129.671 10.177c0.033 1.7 0.9 3.5 3 3.542c1.117 0 2.12-0.445 2.982-1.322 c1.522-1.554 2.171-4.018 2.136-5.771c-0.031-1.702-0.861-3.52-3.092-3.52c-1.141 0-2.148 0.441-2.999 1.3 C130.445 5.7 129.6 8 129.7 10.177z M128.169 3.027C129.885 1 132.1 0 134.8 0c4.343 0 6.9 2.5 7 6.9 c0.05 2.653-0.861 5.188-2.571 7.145c-1.574 1.787-3.935 2.731-6.824 2.731c-3.875 0-6.532-2.739-6.609-6.814 C125.707 7.4 126.6 4.9 128.2 3.027z" class="style0"/><path d="M162.876 0.27c-0.126 0-0.241 0.075-0.292 0.19c0 0-3.908 8.828-4.772 10.8 c-0.052-2.104-0.264-10.663-0.264-10.663c-0.003-0.173-0.145-0.311-0.32-0.311h-4.213c-0.128 0-0.246 0.077-0.296 0.2 c0 0-3.673 8.862-4.474 10.798c-0.122-2.065-0.626-10.693-0.626-10.693c-0.009-0.17-0.15-0.301-0.318-0.301h-3.139 c-0.09 0-0.175 0.037-0.236 0.103c-0.061 0.065-0.09 0.154-0.083 0.245l1.286 15.644c0.013 0.2 0.2 0.3 0.3 0.294h3.878 c0.129 0 0.245-0.077 0.296-0.195c0 0 3.893-9.233 4.747-11.256c0.068 2.2 0.4 11.1 0.4 11.1 c0.005 0.2 0.1 0.3 0.3 0.311h3.922c0.126 0 0.239-0.073 0.292-0.187l7.165-15.645c0.046-0.099 0.039-0.215-0.022-0.306 c-0.059-0.092-0.159-0.147-0.269-0.147L162.876 0.27L162.876 0.27z" class="style0"/><path d="M169.385 0.27c-0.153 0-0.287 0.11-0.314 0.259l-2.995 15.645c-0.018 0.1 0 0.2 0.1 0.3 c0.06 0.1 0.2 0.1 0.2 0.115h9.324c0.153 0 0.284-0.107 0.315-0.257l0.489-2.466c0.02-0.093-0.005-0.191-0.065-0.266 c-0.062-0.074-0.152-0.117-0.248-0.117c0 0-5.12 0-5.8 0c0.113-0.591 0.633-3.333 0.713-3.752c0.48 0 5.2 0 5.2 0 c0.154 0 0.287-0.111 0.314-0.263l0.447-2.466c0.002-0.019 0.005-0.038 0.005-0.057c0-0.074-0.026-0.147-0.075-0.204 c-0.061-0.074-0.15-0.116-0.245-0.116c0 0-4.415 0-5.083 0c0.108-0.571 0.535-2.811 0.612-3.215c0.486 0 5.9 0 5.9 0 c0.156 0 0.29-0.112 0.317-0.266l0.423-2.466c0.002-0.017 0.005-0.035 0.005-0.054c0-0.075-0.026-0.148-0.076-0.207 c-0.06-0.071-0.151-0.113-0.244-0.113L169.385 0.27L169.385 0.27z" class="style0"/><path d="M186.69 3.376h-1.035l-0.672 3.573h0.757c0.748 0 2.113-0.112 2.847-0.859 c0.339-0.346 0.505-0.784 0.505-1.337V4.698C189.068 3.5 188.2 3.4 186.7 3.376z M186.477 0.3 c2.869-0.001 6.443-0.001 6.5 4.013v0.105c0 1.185-0.384 2.211-1.118 2.971c-0.62 0.642-1.479 1.079-2.479 1.3 c0.334 0.3 0.6 0.7 0.7 1.213l1.623 6.299c0.007 0 0 0.1 0 0.081c0 0.069-0.023 0.139-0.068 0.2 c-0.061 0.077-0.153 0.124-0.253 0.124h-3.296c-0.148 0-0.279-0.103-0.312-0.248l-0.832-3.674l-0.154-0.727 c-0.259-1.271-0.375-1.851-1.562-1.851h-0.922l-1.193 6.24c-0.03 0.152-0.161 0.26-0.315 0.26h-3.137 c-0.097 0-0.187-0.042-0.247-0.115c-0.062-0.074-0.086-0.17-0.067-0.264l2.972-15.646c0.028-0.151 0.161-0.261 0.314-0.261 L186.477 0.27L186.477 0.27z" class="style0"/><path d="M214.252 3.376h-0.81l-1.917 10.073h1.07c1.996 0 3.527-0.53 4.557-1.576 c1.053-1.073 1.585-2.686 1.585-4.8l-0.004-0.245C218.691 4.7 217 3.4 214.3 3.376z M210.506 0.27h4.707 c2.729 0 7.3 0.9 7.4 6.992c0.03 1.545-0.242 4.463-2.4 6.661c-1.713 1.746-4.228 2.632-7.477 2.632h-5.269 c-0.094 0-0.184-0.042-0.245-0.115c-0.062-0.075-0.086-0.17-0.069-0.267l2.996-15.645C210.221 0.4 210.4 0.3 210.5 0.27z" class="style0"/><path d="M234.344 9.562H233.6l-0.734 3.887h0.69c1.204 0 2.522-0.093 3.202-0.784 c0.343-0.347 0.506-0.826 0.506-1.462v-0.072C237.243 10 236.4 9.6 234.3 9.562z M235.637 3.376h-0.834l-0.631 3.2 h0.845c0.821 0 1.926-0.127 2.518-0.73c0.292-0.299 0.437-0.685 0.437-1.179v-0.05C237.949 3.6 237.1 3.4 235.6 3.376z M231.98 0.27h4.641c3.207 0 5.1 1.5 5.1 4.057V4.4c0 1.616-1.052 3.052-2.568 3.682c1.166 0.5 1.8 1.7 1.9 3.3 v0.118c0 1.281-0.401 2.341-1.2 3.153c-1.232 1.259-3.382 1.897-6.382 1.897h-4.457c-0.096 0-0.188-0.042-0.25-0.115 c-0.06-0.074-0.082-0.17-0.065-0.264l2.972-15.646C231.697 0.4 231.8 0.3 232 0.27z" class="style0"/><path d="M255.045 0.27c-0.099 0-0.194 0.047-0.254 0.126c0 0-4.004 5.301-4.611 6.1 c-0.344-0.917-2.252-6.022-2.252-6.022c-0.047-0.125-0.166-0.208-0.301-0.208h-3.316c-0.107 0-0.209 0.054-0.268 0.1 c-0.035 0.054-0.055 0.116-0.055 0.178c0 0 0 0.1 0 0.124c0 0 3.7 8.9 3.8 9.1 c-0.035 0.185-1.226 6.381-1.226 6.381c-0.004 0.021-0.007 0.042-0.007 0.062c0 0.1 0 0.1 0.1 0.2 c0.062 0.1 0.2 0.1 0.2 0.117h3.137c0.154 0 0.287-0.107 0.313-0.26c0 0 1.197-6.245 1.23-6.399 c0.096-0.123 7.347-9.105 7.347-9.105c0.05-0.057 0.07-0.129 0.07-0.201c0-0.047-0.008-0.094-0.029-0.138 c-0.054-0.112-0.166-0.182-0.288-0.182L255.045 0.27L255.045 0.27z" class="style0"/></g><g><g><path d="M44.114 25.656c-1.665 3.511-1.002 6.4 1.5 6.437c2.484 0 5.851-2.764 7.514-6.272 c1.667-3.514 1.003-6.395-1.481-6.44C49.146 19.3 45.8 22.1 44.1 25.656z M64.356 13 c0.021 0 0 0 0 0.052c0 0.008-0.001 0.016-0.002 0.021C62.903 17.3 60.4 22 58 25.7 c-5.142 7.635-12.524 12.451-16.483 10.754c-3.958-1.697-3.006-9.265 2.142-16.905c1.158-1.714 2.427-3.285 3.743-4.672 c0.01-0.012 0.017-0.026 0.017-0.041c0-0.032-0.026-0.059-0.058-0.059c0 0-0.007 0-0.008 0 c-1.617 0.224-3.256 0.543-4.91 0.962c-0.011 0-0.022 0.009-0.03 0.02c-17.374 21.306-24.767 48.978-23.75 73.663l0 0 c0 0.033-0.025 0.059-0.058 0.059c-0.007 0-0.015 0-0.022-0.003C8.34 85.3 0.9 75.4 0.1 62.911l-0.01-0.146 c-1.292-22.289 16.475-45.12 39.69-50.997C48.752 9.5 57.3 10.1 64.4 12.982z" class="style0"/><path d="M57.789 73.096c-1.687 1.173-3.448 2.257-5.267 3.231c-0.008 0.002-0.018 0.005-0.026 0 c-0.032 0-0.058-0.024-0.059-0.056c-0.339-5.353-1.492-10.535-3.485-14.85c-5.315-11.515-14.604-12.402-20.742-1.976 c-3.754 6.378-5.464 15.521-5.001 24.295c0 0 0 0 0 0.053c6.511 2 14 2.3 22 0.2 c23.182-5.906 40.915-28.715 39.625-50.981C83.753 13.5 68.3 0.9 48.9 2.038c-0.014 0-0.026 0.005-0.036 0 c-1.892 1.913-3.662 3.845-5.323 5.796c-0.008 0.01-0.014 0.023-0.014 0.036c0 0 0 0.1 0.1 0.1 c0.001 0 0 0 0.008-0.001c11.396-1.442 20.5 0.9 26.5 5.623c0.014 0 0 0 0 0 c0 0.013-0.003 0.025-0.008 0.033C49.537 42.6 52.1 59.1 57.8 73.024c0.002 0 0 0 0 0 C57.813 73.1 57.8 73.1 57.8 73.096z" class="style0"/></g><g><path d="M249.365 39.971c4.85 0 8.4 1.1 10.2 2.031c0.021 0 0 0 0 0.062l-1.674 8.8 c-0.002 0.019-0.016 0.032-0.031 0.041c-0.018 0.009-0.036 0.009-0.053-0.002c-1.961-1.067-5.353-2.207-8.992-2.207 c-3.058 0-5.047 1.28-5.047 3.423c0 1.5 1.5 2.9 4.7 4.487c4.199 2.1 8.9 5.2 8.9 10.8 c0 3.667-1.226 6.735-3.634 9.125c-3.205 3.182-8.404 4.917-14.656 4.868c-4.809-0.079-9.672-1.326-12.105-3.088 c-0.019-0.015-0.025-0.037-0.023-0.062l1.68-8.833c0.002-0.016 0.016-0.033 0.033-0.042c0.02-0.007 0.037-0.004 0.1 0 c2.604 1.6 7.7 3.4 11.5 3.395c2.918 0 4.883-1.346 4.883-3.506c0-1.957-1.381-3.324-4.91-5.051 c-5.583-2.793-8.375-6.33-8.375-10.502C231.89 45.5 238.9 40 249.4 39.971z" class="style0"/><path d="M183.93 40.053c2.977 0 6 0.5 8.1 1.381c0.026 0 0 0 0 0.065l-1.802 9.5 c-0.004 0.019-0.015 0.033-0.032 0.041c-0.02 0.006-0.039 0.009-0.055-0.003c-1.819-1.018-3.924-1.508-6.434-1.508 c-8.391 0-13.39 7.313-13.39 14.363c0 6 4 8.1 7.7 8.123c3.33 0 6.158-0.728 9.755-2.496 c0.021-0.012 0.044-0.01 0.1 0.004c0.02 0 0 0 0 0.058l-1.839 9.715c-0.004 0.017-0.017 0.033-0.033 0 c-2.727 1.319-6.947 2.11-11.288 2.11c-10.183 0-16.748-6.379-16.748-16.258C158.026 50.8 169.2 40.1 183.9 40.053z" class="style0"/><path d="M136.228 51.287c-3.167 3.167-5.543 9.116-5.54 13.853c0.001 4.2 1.5 6.7 4.2 6.7 c4.289 0 7.982-4.485 9.253-11.053c0.286-1.467 0.574-2.96 0.782-4.287c0.21-1.327 0.338-2.498 0.301-3.315 c-0.137-2.805-1.598-4.316-4.216-4.316C139.429 48.9 137.8 49.7 136.2 51.287z M140.602 80.6 c-0.011-0.018-0.015-0.033-0.011-0.051l0.351-1.773c0.314-1.598 1.608-3.8 2.099-4.521l0.076-0.133 c0.17-0.384-0.08-0.832-0.387-0.97c-0.37-0.159-0.833-0.036-1.006 0.351l-0.048 0.146c-0.21 0.851-0.647 2.812-2.477 4.5 c-2.32 2.121-5.536 3.381-9.038 3.381c-7.833 0-11.373-6.954-11.377-13.913c-0.005-7.905 3.101-15.734 8.303-20.941 c4.357-4.36 9.981-6.664 16.269-6.664c4.783 0 8.3 1.4 10.5 4.091c3.282 4 3 9.9 2.2 14.289l-4.242 22.2 c-0.004 0.027-0.027 0.049-0.058 0.049h-11.14C140.628 80.6 140.6 80.6 140.6 80.577z" class="style0"/><path d="M276.935 72.541c6.19 0 10.737-8.789 10.737-16.548c0-1.874-0.441-6.424-4.76-6.424 c-4.391 0-8.097 5.002-9.533 12.589C272.887 64.8 271.5 72.5 276.9 72.541z M287.072 40 c7.803 0 12.9 5.9 12.9 15.13c0 9.664-4.64 19.574-13.005 24.033c-6.49 3.462-12.394 2.68-15.32 0.4 c-0.699-0.544-0.869-1.977-0.946-2.543l-0.034-0.148c-0.131-0.398-0.604-0.556-0.971-0.427c-0.318 0.114-0.607 0.499-0.479 0.9 l0.062 0.139c0.533 0.9 0.9 1.7 0.8 2.491L267.5 93.285c-0.004 0.026-0.029 0.05-0.057 0.05h-11.672 c-0.018 0-0.032-0.008-0.044-0.021c-0.013-0.015-0.017-0.031-0.013-0.049l10.019-52.686c0.005-0.027 0.03-0.048 0.058-0.048 l10.264 0.007c0.017 0 0 0 0 0.021c0.011 0 0 0 0 0.048l-0.345 1.819l-0.003 0 c-0.545 2.868-1.399 3.972-1.955 4.651l-0.086 0.126c-0.204 0.4 0 0.8 0.3 0.936c0.295 0.2 0.8 0.2 1.023-0.196 l0.059-0.138c0.286-0.83 0.956-2.875 2.581-4.271l0.007-0.004C280.397 41.2 283.7 40 287.1 39.971z" class="style0"/><path d="M199.623 26.841h11.588c0.018 0 0 0 0 0.021c0.013 0 0 0 0 0 l-6.046 31.799c-0.003 0 0 0 0 0.05c0.018 0 0 0 0.052-0.013l15.559-17.944 c0.011-0.014 0.027-0.021 0.044-0.021h12.709c0.022 0 0 0 0.1 0.036c0.002 0 0 0 0 0 c0 0.013-0.006 0.027-0.016 0.038L217.51 59.065l9.849 21.369c0.006 0 0 0 0 0 c0 0.014-0.005 0.023-0.009 0.032c-0.014 0.018-0.03 0.026-0.05 0.026h-12.548c-0.021 0-0.043-0.013-0.053-0.033l-9.527-21.125 c-0.007-0.02-0.023-0.027-0.043-0.026c-0.021 0.001-0.033 0.015-0.038 0.034l-4.011 21.104c-0.006 0.027-0.029 0.047-0.058 0 H189.44c-0.018 0-0.034-0.009-0.045-0.021c-0.012-0.017-0.015-0.033-0.012-0.05l10.183-53.561 C199.569 26.9 199.6 26.8 199.6 26.841z" class="style0"/><path d="M120.738 39.89c0.698 0 1.6 0.1 2.2 0.188c0.015 0 0 0 0 0 c0.008 0 0 0 0 0.044l-2.269 11.425c-0.003 0.014-0.011 0.027-0.025 0.035c-0.012 0.011-0.029 0.012-0.044 0 c-0.412-0.087-1.066-0.187-1.836-0.187c-8.003 0-11.126 7.821-12.339 14.293l-2.842 15.209c-0.005 0.027-0.029 0.047-0.058 0 H91.887c-0.018 0-0.036-0.009-0.045-0.021c-0.011-0.014-0.017-0.031-0.013-0.049l7.622-40.081 c0.005-0.027 0.03-0.048 0.059-0.048h10.261c0.018 0 0 0 0 0.021c0.008 0 0 0 0 0.037l-0.516 2.7 l-0.006 0.029c-0.487 2.561-1.275 4.071-1.78 4.79l-0.076 0.132c-0.178 0.4 0.1 0.8 0.4 0.917s0.795 0.1 0.973-0.273 l0.051-0.144c0.227-0.853 0.691-2.692 2.275-4.468C113.882 41.5 117.2 39.9 120.7 39.89z" class="style0"/><path d="M397.76 51.94c0-2.051-1.699-3.345-4.236-3.345c-3.927 0-6.755 2.476-8.255 5.4 c-1.084 2.097-1.468 2.306-2.466 2.935l-0.127 0.085c-0.322 0.27-0.215 0.7 0 1.006c0.219 0.3 0.7 0.4 1 0.2 l0.105-0.109c0.812-0.967 1.002-1.328 4.089-1.453c4.729-0.189 7.562-0.907 8.941-2.275 C397.443 53.7 397.8 52.9 397.8 51.94z M381.496 64.282c1.071 1 1.8 2.4 1.9 2.8 c0.198 0.8 0.5 1.5 0.9 2.114c1.525 1.9 4.2 3 7.6 2.979c4.891 0 9.128-1.188 13.737-3.844 c0.021-0.011 0.045-0.011 0.1 0.003c0.019 0 0 0 0 0.059l-1.858 9.767c-0.003 0.019-0.014 0.032-0.028 0 c-5.613 2.856-12.198 3.168-14.772 3.168c-10.968 0-17.236-6.099-17.236-16.748c0-6.142 2.256-12.293 6.185-16.88 c4.311-5.037 10.337-7.809 16.966-7.809c8.298 0 13.8 4.8 13.8 11.967c0 3.307-1.075 6.023-3.193 8.1 c-3.568 3.478-10.013 5.224-19.688 5.283c-2.32-0.002-2.85-1.174-3.26-1.951l-0.082-0.125c-0.26-0.334-0.756-0.262-1.021-0.055 c-0.263 0.207-0.438 0.66-0.181 0.989L381.496 64.282z" class="style0"/><path d="M408.864 76.452c-0.218 2.4 1.6 4.4 4 4.372c2.473 0 4.681-2.022 4.9-4.497 c0.22-2.436-1.555-4.377-3.979-4.377C411.295 72 409.1 74 408.9 76.452z M408.168 76.4 c0.258-2.839 2.763-5.141 5.599-5.141c2.837 0 4.9 2.3 4.7 5.141c-0.258 2.834-2.764 5.135-5.601 5.1 S407.912 79.2 408.2 76.39z M412.181 73.356c0.003-0.012 0.013-0.021 0.023-0.021h1.287l0.013 0 c0.331 0 0.5 0 0.7 0.02c0.226 0 0.4 0.1 0.6 0.112c0.654 0.2 1 0.7 1 1.4 c0 0.112-0.013 0.229-0.037 0.352c-0.148 0.812-0.66 1.47-1.603 1.729l0.824 2.436c0 0 0 0 0 0 c0 0.006-0.001 0.01-0.004 0.014c-0.005 0.009-0.012 0.011-0.021 0.011h-0.838c-0.011 0-0.021-0.007-0.022-0.015l-0.788-2.32 l-0.515 0.013h-0.021h-0.568l-0.434 2.304c-0.001 0.012-0.014 0.02-0.023 0.02h-0.693c-0.007 0-0.016-0.002-0.021-0.01 c-0.003-0.006-0.007-0.012-0.007-0.02l0.438-2.324l0.004-0.029l0.345-1.823L412.181 73.356z M413.355 74.081h-0.564l-0.212 1.1 l-0.213 1.128h0.556h0.062c0.286-0.006 0.474-0.009 0.625-0.018c0.166-0.012 0.29-0.036 0.426-0.077 c0.534-0.154 0.909-0.544 1.002-1.042c0.096-0.492-0.133-0.88-0.605-1.031c-0.121-0.045-0.229-0.064-0.396-0.078 c-0.146-0.01-0.335-0.011-0.618-0.018H413.355z" class="style0"/><path d="M365.865 40.053c2.979 0 6 0.5 8.1 1.381c0.025 0 0 0 0 0.065l-1.803 9.5 c-0.007 0.019-0.017 0.033-0.033 0.041c-0.019 0.006-0.038 0.009-0.056-0.003c-1.816-1.018-3.924-1.508-6.433-1.508 c-8.391 0-13.392 7.313-13.392 14.363c0 6 4 8.1 7.7 8.123c3.33 0 6.158-0.728 9.753-2.496 c0.022-0.012 0.046-0.01 0.1 0.004s0.025 0 0 0.058l-1.84 9.715c-0.002 0.017-0.017 0.033-0.032 0 c-2.728 1.319-6.947 2.11-11.287 2.11c-10.185 0-16.748-6.379-16.748-16.258C339.963 50.8 351.1 40.1 365.9 40.053z" class="style0"/><path d="M318.164 51.287c-3.168 3.167-5.546 9.116-5.541 13.853c0.002 4.2 1.5 6.7 4.2 6.7 c4.289 0 7.984-4.485 9.256-11.053c0.283-1.467 0.572-2.96 0.781-4.287s0.338-2.498 0.3-3.315 c-0.138-2.805-1.599-4.316-4.216-4.316C321.363 48.9 319.7 49.7 318.2 51.287z M322.535 80.6 c-0.011-0.018-0.014-0.033-0.011-0.051l0.351-1.773c0.315-1.598 1.609-3.8 2.1-4.521l0.074-0.133 c0.172-0.384-0.077-0.832-0.387-0.97c-0.369-0.159-0.832-0.036-1.006 0.351l-0.047 0.146c-0.211 0.851-0.646 2.812-2.477 4.5 c-2.321 2.121-5.537 3.381-9.039 3.381c-7.834 0-11.371-6.954-11.377-13.913c-0.004-7.905 3.101-15.734 8.304-20.941 c4.356-4.36 9.981-6.664 16.269-6.664c4.784 0 8.3 1.4 10.5 4.091c3.281 4 3 9.9 2.2 14.289L333.78 80.5 c-0.005 0.027-0.028 0.049-0.058 0.049h-11.141C322.564 80.6 322.5 80.6 322.5 80.577z" class="style0"/></g></g></g></svg>